<svg width="800" height="513" viewBox="0 0 800 513" fill="none" xmlns="http://www.w3.org/2000/svg">
<g clip-path="url(#clip0_76_590)">
<path d="M800 479.67H0V491.38H800V479.67Z" fill="#FCD87D"/>
<path fill-rule="evenodd" clip-rule="evenodd" d="M100.25 424.92V486.67L103.71 491.37H66.36L69.2 486.67H69.29V449.32L67.43 444.18H74.08H69.38C68.76 436.64 62.37 430.61 54.74 430.61C47.11 430.61 40.63 436.64 40.01 444.18H35.22H41.96L40.1 449.32V486.67H40.19L43.56 491.37H6.29996L9.04996 486.67V418L0.979961 411.7H0.709961V411.08H9.04996V400.88H100.26V411.08H108.69V411.7H108.25L100.27 418V424.92H100.25Z" fill="#FFE9AF"/>
<path fill-rule="evenodd" clip-rule="evenodd" d="M102.83 438.23V449.58H103.45V491.37H210.18V449.58H211.33V436.9H209.82V342.15H211.95V339.49H207.69V335.5H206.18V334.26H205.74L204.05 331.24L202.28 328.04L200.59 331.24L198.9 334.26H198.46V335.5H173.26V339.49H168.91V342.15H171.31V385.36H160.84L159.15 372.67L158.8 369.3V351.2H161.64V348.98H158.8V346.58H156.4V348.98H153.56V351.2H156.4V368.86L155.87 372.67L154.18 385.36H142.38V342.15H144.51V339.49H140.25V335.5H115.59V334.26H115.15L113.46 331.24L111.77 328.04L110 331.24L108.4 334.26H107.87V335.5H105.83V339.49H101.48V342.15H103.87V436.9H102.81V438.23H102.83ZM142.4 389.35H154.29V396.8L153.58 397.95L149.5 404.34H142.4V389.34V389.35ZM160.85 389.35H171.32V404.35H165.64L161.65 397.96L160.85 396.81V389.36V389.35ZM144.26 422C144.61 415.61 149.58 410.56 155.88 410.11C149.58 410.55 144.61 415.7 144.26 422ZM157.84 410.11C160.5 410.29 162.9 411.35 164.85 412.95C162.9 411.36 160.5 410.29 157.84 410.11ZM203.44 405.23H177.71V385.71H203.44V405.23ZM194.21 388.82C195.1 388.82 195.9 389.35 195.9 389.97V403.19H192.53V389.97C192.53 389.35 193.24 388.82 194.22 388.82H194.21ZM187.56 388.82C188.45 388.82 189.25 389.35 189.25 389.97V403.19H185.88V389.97C185.88 389.35 186.59 388.82 187.57 388.82H187.56ZM198.03 411.71H201.49V408.25H198.03V411.71ZM179.84 411.71H183.39V408.25H179.84V411.71ZM126.78 388.82C127.67 388.82 128.47 389.35 128.47 389.97V403.19H125.1V389.97C125.1 389.35 125.81 388.82 126.79 388.82H126.78ZM120.13 388.82C121.02 388.82 121.73 389.35 121.73 389.97V403.19H118.45V389.97C118.45 389.35 119.16 388.82 120.14 388.82H120.13ZM130.6 411.71H134.06V408.25H130.6V411.71ZM112.41 411.71H115.87V408.25H112.41V411.71ZM203.7 488.8H201.3V465.38C201.3 458.19 190.74 452.34 190.74 452.34C190.74 452.34 180.18 458.2 180.18 465.38V488.8H176.72V449.58H203.69V488.8H203.7ZM170.25 488.8H167.5V465.38C167.5 458.19 156.94 452.34 156.94 452.34C156.94 452.34 146.38 458.2 146.38 465.38V488.8H143.36V449.58H170.24V488.8H170.25ZM136.81 488.8H133.79V465.38C133.79 458.19 123.23 452.34 123.23 452.34C123.23 452.34 112.67 458.2 112.67 465.38V488.8H110.01V449.58H136.8V488.8H136.81Z" fill="#EFBF44"/>
<path fill-rule="evenodd" clip-rule="evenodd" d="M547.85 485.08H549.62L536.22 459.17C529.21 452.43 519.63 448.35 509.16 448.35C499.58 448.35 490.88 451.81 484.14 457.49L469.86 485.08H472.43V491.38H438.72V485.08H443.16L470.93 431.41V423.34H476.88L486.73 395.12V394.5H486.91L489.66 386.51H488.6V379.06H491.71V377.64H487.09V369.56H494.1C499.33 328.57 501.82 258.13 502.62 235.59H502.44V233.82H502.71L502.8 229.47H501.56V222.2H504.76V213.24H508.48V200.55H509.72V188.93H511.14V200.55H512.47V213.24H516.11V222.2H519.39V229.47H518.06L518.24 233.82H518.42V235.59H518.33C518.77 248.28 519.66 276.31 521.44 305.77L521.53 306.04L521.44 306.13C522.5 323.96 523.83 342.15 525.43 357.77C525.87 362.03 526.4 365.84 526.76 369.57H533.86V377.65H529.25V379.07H532.27V386.52H531.56L534.31 394.51L544.33 423.35H547.43V430.89L548.05 430.62L576.26 485.09H581.58V491.39H547.87V485.09L547.85 485.08ZM479.36 421.46L488.32 416.23L483.08 411.17L479.35 421.46H479.36ZM484.42 407L492.4 401.77L487.88 397.24L484.42 407ZM489.12 393.7L494.98 389.97L491.43 386.96L489.12 393.7ZM529.58 386.51H529.31L525.94 389.7L531.89 393.16L529.58 386.51ZM533.39 397.33L529.22 401.59L536.41 406.11L533.39 397.33ZM538.09 410.82L532.41 416.23L541.9 421.73L538.08 410.82H538.09ZM509.44 229.47L507.31 231.24L505.18 229.47H509.44ZM506.69 231.87L504.2 233.82L504.38 229.83L506.69 231.87ZM505.36 233.82L507.13 232.31L508.73 233.82H505.36ZM507.84 231.78L509.61 230.36V233.38L507.84 231.78ZM509.61 235.77L506.95 238.52L504.2 235.59H509.61V235.77ZM506.24 239.23L504.02 241.63L504.11 236.84L506.24 239.23ZM504.02 242.78L506.86 239.85L509.43 242.78H504.02ZM507.48 239.14L509.61 236.92V241.44L507.48 239.13V239.14ZM509.61 244.55L506.77 247.39L504.2 244.46H509.61V244.55ZM505.98 248.01L503.67 250.49L503.84 245.43L505.97 248L505.98 248.01ZM503.58 251.74L506.69 248.72L509.26 251.83H503.58V251.74ZM507.31 248.01L509.62 245.7V250.67L507.31 248.01ZM509.61 253.69L506.68 256.53L503.93 253.51H509.61V253.69ZM505.89 257.24L503.32 259.72V259.19L503.5 254.58L505.9 257.24H505.89ZM503.49 260.7L506.51 257.86L509.08 260.7H503.49ZM507.13 257.24L509.61 254.93V259.9L507.13 257.24ZM509.61 263.01L506.68 265.58L503.48 262.39H509.42L509.6 262.48V263.01H509.61ZM505.89 266.2L502.96 268.68L503.23 263.45L505.89 266.2ZM503.05 269.75L506.51 266.82L509.35 269.75H503.05ZM507.13 266.2L509.61 264.16V268.6L507.13 266.2ZM511.3 262.74L511.56 262.39H517.5L514.49 265.58L511.3 262.83V262.74ZM509.61 271.53L506.24 274.37L503.31 271.44H509.61V271.53ZM505.53 274.99L502.6 277.47L502.78 272.24L505.53 274.99ZM502.43 278.62L506.16 275.6L509.18 278.79H502.43V278.61V278.62ZM506.86 274.99L509.43 272.68V277.74L506.86 274.99ZM509.35 280.58L505.98 283.51L502.96 280.41H509.35V280.59V280.58ZM505.27 284.12L502.16 286.87L502.34 281.19L505.27 284.12ZM502.43 287.67L505.89 284.74L508.82 287.67H502.43ZM506.69 284.12L509.35 281.73V284.57L509.26 285.99V286.88L506.69 284.13V284.12ZM502.61 280.4L502.34 281.2L502.43 280.4H502.61ZM508.99 289.36L505.8 292.2L502.96 289.36H508.99ZM505 292.91L501.63 295.93L501.9 289.9L505 292.92V292.91ZM502.25 296.72L505.71 293.53L508.99 296.72H502.25ZM506.51 292.82L509.26 290.42L509.17 291.93V294.24L509.08 295.31L506.51 292.83V292.82ZM508.46 298.41L505.36 300.98L502.79 298.41H508.47H508.46ZM504.47 301.87L501.1 304.62L501.55 298.76L504.48 301.87H504.47ZM501.63 305.68L505.27 302.57L508.2 305.68H501.63ZM506.24 301.87L508.99 299.38V300.54L508.81 304.53L506.24 301.87ZM508.73 307.37L505.36 310.21L502.7 307.37H508.73ZM504.47 310.92L500.56 314.29L501.01 307.37L504.47 310.91V310.92ZM501.9 314.64L505.27 311.8L508.11 314.64H501.9ZM506.24 310.92L508.72 308.88V309.24L508.63 309.68V311.99L508.54 313.41L506.23 310.93L506.24 310.92ZM507.93 316.33L504.74 318.9L502.26 316.33H507.94H507.93ZM503.84 319.79L499.94 323.07L500.47 316.33L503.84 319.79ZM501.1 323.6L504.65 320.58L507.67 323.6H501.1ZM505.62 319.79L508.46 317.31L508.37 318.29V319L508.19 322.37L505.62 319.8V319.79ZM507.31 325.29L503.94 328.04L501.28 325.29H507.31ZM502.96 328.75L499.32 331.68L499.85 325.38L502.96 328.75ZM500.03 332.57L503.84 329.64L506.5 332.57H500.02H500.03ZM504.65 328.84L508.02 326.27C507.93 328.13 507.84 330.17 507.66 332.04L504.64 328.85L504.65 328.84ZM507.04 334.34L503.67 336.91L501.1 334.34H507.05H507.04ZM502.78 337.71L498.61 340.99C498.79 338.86 498.96 336.55 499.14 334.34H499.49L502.77 337.71H502.78ZM499.85 341.53L503.49 338.51L506.33 341.53H499.85ZM504.47 337.8L507.48 335.4C507.39 337.18 507.3 338.95 507.13 340.64L504.47 337.8ZM505.62 343.21L502.69 345.61L500.47 343.21H505.62ZM501.72 346.41L497.82 349.43C498.09 347.48 498.26 345.35 498.35 343.22H498.79L501.72 346.41ZM498.35 350.58L502.43 347.21L505.72 350.58H498.35ZM503.4 346.49L506.95 343.66C506.77 345.61 506.69 347.74 506.42 349.6L503.4 346.49ZM505.8 352.26L501.9 355.28L499.15 352.26H505.8ZM501.01 355.99L497.19 359.18H496.92C497.1 356.96 497.28 354.66 497.54 352.35L501 355.99H501.01ZM498.97 359.18L501.81 356.88L503.94 359.18H498.97ZM502.78 356.17L506.15 353.51C505.88 355.38 505.71 357.33 505.53 359.01L502.78 356.17ZM505.09 360.87L500.74 364.42L497.46 360.87H505.09ZM499.85 365.13L495.86 368.33C496.04 366.2 496.39 363.98 496.57 361.76L499.85 365.13ZM496.04 369.56L500.56 366.01L503.58 369.2V369.29L503.49 369.55H496.04V369.56ZM501.54 365.22L505 362.47C504.65 364.42 504.38 366.29 504.02 367.88L501.54 365.22ZM511.66 229.47L513.87 231.24L515.91 229.47H511.65H511.66ZM514.5 231.87L516.63 233.56L516.54 230.01L514.5 231.87ZM515.65 233.82L513.96 232.31L512.28 233.82H515.65ZM513.25 231.78L511.3 230.09V233.55L513.25 231.78ZM511.3 235.59L514.22 238.52L516.71 235.68V235.59H511.3ZM514.85 239.23L516.8 241.36L516.71 237.19L514.85 239.23ZM516.89 242.6L514.32 239.85L511.57 242.78H516.89V242.6ZM513.61 239.14L511.31 236.74V241.71L513.61 239.14ZM511.48 244.47L514.41 247.4L516.8 244.47H511.48ZM515.03 248.01L517.16 250.14L517.07 245.7L515.03 248.01ZM517.24 251.39L514.49 248.73L511.92 251.84H517.24V251.39ZM513.78 248.01L511.3 245.53V251.12L513.78 248.01ZM511.3 253.52L514.49 256.54L517.24 253.52H511.3ZM515.21 257.24L517.51 259.37L517.33 254.84L515.2 257.24H515.21ZM517.51 260.7L514.59 257.86L512.1 260.7H517.51ZM513.87 257.24L511.3 254.76V260.17L513.87 257.24ZM515.21 266.2L517.87 268.51L517.69 263.63L515.21 266.2ZM517.96 269.66L514.59 266.82L511.66 269.75H517.96V269.66ZM513.87 266.2L511.3 263.98V268.77L513.87 266.2ZM511.48 271.44L514.94 274.37L517.87 271.44H511.48ZM515.65 274.99L518.31 277.3L518.04 272.6L515.64 275L515.65 274.99ZM518.31 278.45L515.03 275.61L512.01 278.8H518.4L518.31 278.45ZM514.32 274.99L511.39 272.5V277.91L514.32 274.98V274.99ZM511.48 280.4L515.12 283.5L518.22 280.4H511.48ZM515.91 284.12L518.75 286.61L518.48 281.46L515.91 284.12ZM518.75 287.67L515.2 284.74L512.27 287.67H518.75ZM514.5 284.12L511.48 281.46V284.56L511.57 285.98V287.05L514.5 284.12ZM512.19 289.36L515.21 292.2L518.05 289.36H512.19ZM516.09 292.91L519.2 295.66L518.93 290.16L516.09 292.91ZM518.93 296.72L515.47 293.53L512.19 296.72H518.93ZM514.58 292.82L511.56 290.16L511.65 291.93V294.24L511.74 295.57L514.58 292.82ZM512.63 298.41L515.74 300.98L518.31 298.41H512.63ZM516.62 301.87L519.64 304.35L519.37 299.03L516.62 301.87ZM519.46 305.68L515.91 302.57L512.8 305.68H519.45H519.46ZM514.94 301.87L511.75 299.21L511.93 300.54L512.02 304.8L514.95 301.87H514.94ZM512.45 307.37L515.64 310.21L518.48 307.37H512.45ZM516.62 310.92L520.26 314.12L519.82 307.73L516.63 310.92H516.62ZM519.2 314.64L515.92 311.8L513.08 314.64H519.2ZM514.94 310.92L512.1 308.61V309.23L512.19 309.67V311.98L512.28 313.66L514.94 310.91V310.92ZM513.25 316.33L516.27 318.9L518.93 316.33H513.25ZM517.24 319.79L520.88 322.81L520.52 316.51L517.24 319.79ZM520.08 323.6L516.53 320.58L513.42 323.6H520.08ZM515.56 319.79L512.45 317.13L512.54 318.28V318.99L512.63 322.72L515.56 319.79ZM513.78 325.29L517.24 328.04L519.73 325.29H513.78ZM518.22 328.75L521.42 331.5L520.97 325.73L518.22 328.75ZM520.97 332.57L517.33 329.64L514.49 332.57H520.96H520.97ZM516.36 328.84L512.81 325.91C512.9 328.13 513.08 330.26 513.17 332.3L516.36 328.84ZM514.05 334.34L517.42 336.91L519.99 334.34H514.04H514.05ZM518.4 337.71L522.3 340.82C522.03 338.6 521.86 336.56 521.77 334.34H521.68L518.4 337.71ZM521.33 341.53L517.51 338.51L514.76 341.53H521.32H521.33ZM516.62 337.8L513.34 335.14C513.43 337.09 513.61 339.04 513.7 340.91L516.63 337.8H516.62ZM515.56 343.21L518.49 345.61L520.71 343.21H515.57H515.56ZM519.46 346.41L523.01 349.25C522.83 347.21 522.57 345.26 522.48 343.22H522.39L519.46 346.41ZM522.83 350.58L518.57 347.21L515.46 350.58H522.82H522.83ZM517.69 346.49L513.88 343.3C513.97 345.61 514.23 347.83 514.42 349.95L517.7 346.49H517.69ZM515.38 352.26L519.11 355.28L522.04 352.26H515.39H515.38ZM520.08 355.99L523.98 359.18C523.71 357.05 523.54 354.83 523.27 352.7L520.08 355.98V355.99ZM522.04 359.18L519.38 356.88L517.16 359.18H522.04ZM518.4 356.17L514.76 353.24C514.94 355.28 515.11 357.32 515.47 359.18L518.4 356.16V356.17ZM516 360.87L520.35 364.42L523.63 360.87H516ZM521.33 365.13L524.97 368.06C524.79 366.11 524.44 364.07 524.26 362.03L521.33 365.14V365.13ZM524.96 369.56L520.52 366.01L517.24 369.47L517.33 369.56H524.96ZM519.55 365.22L515.91 362.2C516.18 364.42 516.53 366.37 516.88 368.06L519.54 365.22H519.55ZM490.27 394.49H500.21L496.04 390.94L490.27 394.49ZM500.38 386.51L496.04 389.26L492.93 386.51H500.38ZM497.1 390.24L502.87 386.51H503.67L502.61 394.5H502.26L497.11 390.24H497.1ZM524.88 390.59L520.71 394.49H531.63L524.89 390.59H524.88ZM520.35 386.51L524.79 389.08L527.54 386.51H520.35ZM523.72 389.97L517.51 386.51L518.84 394.5L523.72 389.97ZM485.48 408.51H499.23L493.73 403.1L485.48 408.51ZM500.92 396.18L493.73 400.88L489.03 396.18H500.92ZM495.15 402.21L502.07 397.78L500.47 407.63L495.15 402.22V402.21ZM527.8 402.92L522.21 408.51H536.93L527.8 402.92ZM520.53 396.18L527.81 400.71L532.33 396.18H520.53ZM526.47 402.03L519.2 397.51L520.71 407L520.8 407.71L526.48 402.03H526.47ZM531 417.56L525.14 423.33H540.49L531 417.56ZM522.48 410.2L530.91 415.26L536.14 410.2H522.48ZM529.4 416.76L521.51 411.97L523.19 422.71L529.4 416.77V416.76ZM480.25 423.33H495.78L489.75 417.56L480.26 423.33H480.25ZM498.26 410.2L489.92 415.26L484.6 410.2H498.26ZM491.34 416.76L499.86 411.7L498.09 423.15L491.35 416.76H491.34ZM526.47 440.27V443.02C527.09 443.29 527.72 443.55 528.25 443.73L526.47 440.27ZM525.76 442.76V438.86L524.61 436.64V442.32L525.76 442.76ZM523.81 442.14V435.22L523.1 433.8H522.66V441.69L523.81 442.13V442.14ZM521.86 441.43V433.8H520.79V441.16L521.86 441.42V441.43ZM519.99 441.07V433.8H518.84V440.72L519.99 441.07ZM518.04 440.63V433.8H516.88V440.46L518.04 440.64V440.63ZM516.18 440.27V433.79H515.03V440.09L516.18 440.27ZM514.32 440.01V433.8H513.16V439.92L514.32 440.01ZM512.45 439.92V433.8H511.3V439.83L512.45 439.92ZM510.5 439.83V433.8H509.35V439.83H510.5ZM508.55 439.83V433.8H507.48V439.83H508.55ZM506.69 439.83V433.8H505.54V439.92L506.69 439.83ZM504.74 440.01V433.8H503.58V440.1L504.74 440.01ZM502.87 440.19V433.8H501.72V440.28L502.87 440.19ZM501.01 440.54V433.8H499.85V440.72L501.01 440.54ZM499.15 440.81V433.8H498V441.16L499.15 440.81ZM497.19 441.34V433.8H496.39L496.04 434.42V441.69L497.19 441.34ZM495.24 441.87V435.92L494.17 438.14V442.22L495.24 441.87ZM552.64 483.04L557.25 477.19L547.31 472.75L552.63 483.04H552.64ZM558.94 475.23L563.46 469.64H546.52L558.94 475.23ZM565.15 471.33L561.25 476.3L569.68 479.94L565.16 471.33H565.15ZM559.56 478.25L554.15 485.08H572.25L571.45 483.48L559.56 478.25ZM544.31 466.98L549.45 463.35L540.94 460.33L544.31 466.98ZM551.49 462.01L556.28 458.73H542.62L551.49 462.01ZM558.85 459.08L553.61 462.72L562.31 465.83L558.85 459.09V459.08ZM551.49 464.14L546.08 467.95H561.96L551.49 464.14ZM540.93 457.04H555.92L546.07 453.49L540.93 457.04ZM538.8 456.33L543.94 452.78L535.34 449.68L538.8 456.33ZM546.08 451.28L551.14 447.82H536.41L546.08 451.28ZM553.26 448.52L548.21 452.07L556.72 455.18L553.26 448.52ZM533.57 446.22H552.11L550.42 442.94H531.88L533.56 446.22H533.57ZM466.67 483.22L461.97 477.19L472.17 472.75L466.67 483.22ZM460.28 475.23L455.85 469.64H472.8L460.29 475.23H460.28ZM454.25 471.42L457.98 476.3L449.9 479.85L454.25 471.42ZM459.67 478.25L465.17 485.08H447.25L448.05 483.4L459.67 478.25ZM475.1 467.07L469.86 463.35L478.56 460.24L475.1 467.07ZM467.74 462.01L463.04 458.73H476.7L467.74 462.01ZM460.64 459.17L465.7 462.72L457.18 465.83L460.64 459.17ZM467.74 464.14L473.24 467.95H457.27L467.74 464.14ZM478.39 457.04H463.39L473.24 453.49L478.39 457.04ZM549.54 441.25H531L527.18 433.8H545.72L549.53 441.25H549.54ZM480.51 456.42L475.28 452.78L484.15 449.68L480.51 456.42ZM473.24 451.28L468.19 447.82H482.83L473.25 451.28H473.24ZM466.05 448.61L471.11 452.07L462.68 455.09L466.05 448.61ZM485.93 446.22H467.3L468.99 442.94H487.62L485.94 446.22H485.93ZM488.41 441.25H469.87L473.77 433.8H492.31L488.41 441.25ZM504.91 391.39H516.53L521.41 423.33H499.85L502.34 407L504.91 391.39ZM516.18 389.7H505.09L505.62 386.51H515.65L516.18 389.7ZM493.38 442.49V439.56L491.43 443.29C492.05 442.93 492.67 442.76 493.38 442.49ZM532.15 451.19L531.18 449.33C524.7 445.51 517.25 443.39 509.18 443.39C501.81 443.39 494.81 445.25 488.77 448.53L487.88 450.31C494.18 446.76 501.45 444.63 509.17 444.63C517.68 444.63 525.41 447.03 532.15 451.2V451.19Z" fill="#FFB905"/>
<path fill-rule="evenodd" clip-rule="evenodd" d="M346.1 415.7V422H346.9V423.16H346.63C369.25 437.45 356.57 441.88 359.23 444.72C354.88 444.63 350.54 444.63 346.1 444.72H332.79C334.48 441.61 321.35 437.53 344.77 423.16H344.5V422H345.3V416.06H344.77C343.79 416.06 342.91 415.44 342.55 414.46C342.99 414.91 343.53 415.08 344.15 415.08C345.48 415.08 346.63 414.02 346.63 412.68C346.63 412.41 346.54 412.06 346.45 411.88C346.98 412.32 347.25 412.94 347.25 413.57C347.25 414.46 346.81 415.25 346.1 415.7ZM301.92 450.21C302.19 449.68 300.06 449.05 303.96 446.66C307.69 449.05 305.65 449.77 306.09 450.21H301.92ZM301.74 454.29H306V451.98H301.74V454.29ZM302.54 453.76H303.34V452.43H302.54V453.76ZM304.49 453.76H305.2V452.43H304.49V453.76ZM303.52 453.76H304.23V452.43H303.52V453.76ZM301.21 451.72H306.62V451.28H301.21V451.72ZM301.21 450.92H306.62V450.47H301.21V450.92ZM301.21 455H306.62V454.65H301.21V455ZM301.21 455.53H306.62V455.18H301.21V455.53ZM301.65 455.62H306.09V466.62H301.65V455.62ZM306.09 467.34V476.83H301.65V467.34H306.09ZM306.09 477.54V483.4H311.32V456.25L320.1 454.47V483.4H320.45V449.69H321.6V449.33H331.89V446.22H359.57V448.79V449.32H370.22V449.68H371.11V483.39H371.64V454.02L380.16 456.42V483.39H385.93V477.53H390.28V483.39H398.18V473.9H405.28V483.39H414.33V485.78H277.35V483.39H286.67V473.9H293.86V483.39H301.67V477.53H306.11L306.09 477.54ZM293.49 429.45C293.05 428.65 296.51 427.68 290.21 423.86C284.09 427.58 287.46 428.74 286.75 429.45H293.49ZM293.67 436.1H286.84V432.37H293.67V436.1ZM292.42 435.31H291.27V433.18H292.42V435.31ZM289.23 435.31H288.08V433.18H289.23V435.31ZM290.83 435.31H289.68V433.18H290.83V435.31ZM294.73 432.2H285.86V431.23H294.73V432.2ZM294.73 430.78H285.86V429.89H294.73V430.78ZM294.73 437.26H285.86V436.37H294.73V437.26ZM294.73 438.14H285.86V437.52H294.73V438.14ZM414.33 491.38H277.35V486.59H414.33V491.38ZM293.84 438.32H286.65V456.15H293.84V438.32ZM398.45 429.45C398.98 428.65 395.43 427.68 401.82 423.86C407.94 427.58 404.57 428.74 405.28 429.45H398.45ZM405.19 436.1V432.37H406.17V431.22H397.3V432.37H398.28V436.1H397.3V438.32H398.19V456.15H405.29V438.32H406.18V436.1H405.2H405.19ZM399.6 435.31H400.75V433.18H399.6V435.31ZM402.71 435.31H403.95V433.18H402.71V435.31ZM401.2 435.31H402.36V433.18H401.2V435.31ZM397.29 431.05H406.16V429.9H397.29V431.05ZM405.28 457.31V472.66H398.18V457.31H405.28ZM333.59 483.39H357.99V451.18H333.59V483.39ZM390.11 450.21C389.84 449.68 391.97 449.05 388.07 446.66C384.25 449.05 386.38 449.77 385.94 450.21H390.11ZM390.28 454.29H386.02V451.98H390.28V454.29ZM389.4 453.76H388.69V452.43H389.4V453.76ZM387.53 453.76H386.82V452.43H387.53V453.76ZM388.42 453.76H387.71V452.43H388.42V453.76ZM390.81 451.81H385.4V451.28H390.81V451.81ZM390.81 450.92H385.4V450.47H390.81V450.92ZM390.81 455H385.4V454.56H390.81V455ZM390.81 455.62H390.28V466.62H385.93V455.62H385.4V455.18H390.81V455.62ZM385.94 467.34V476.83H390.29V467.34H385.94ZM286.66 457.31V472.66H293.85V457.31H286.66ZM317.71 474.17V480.74L313.19 480.83V474.71C313.19 473.56 315.32 471.69 315.41 471.69C315.5 471.69 317.72 473.02 317.72 474.17H317.71ZM317.71 463.16V469.64L313.19 470.17V463.69C313.19 462.45 315.32 460.58 315.41 460.58C315.5 460.49 317.72 461.82 317.72 463.15L317.71 463.16ZM374.22 474.17V480.74L378.75 480.83V474.71C378.75 473.56 376.53 471.69 376.44 471.69C376.35 471.69 374.22 473.02 374.22 474.17ZM374.22 463.16V469.64L378.75 470.17V463.69C378.75 462.45 376.53 460.58 376.44 460.58C376.35 460.49 374.22 461.82 374.22 463.15V463.16ZM360.92 448.79C361.46 447.81 357.19 446.66 365 441.96H364.65V441.61H364.92V440.01H364.65C364.38 440.01 364.03 439.74 363.94 439.48C364.03 439.57 364.29 439.66 364.47 439.66C364.91 439.66 365.27 439.31 365.27 438.95C365.27 438.86 365.27 438.78 365.18 438.69C365.36 438.78 365.44 438.95 365.44 439.22C365.44 439.49 365.35 439.66 365.18 439.84V441.61H365.36V441.96H365.01C372.46 446.49 368.56 447.91 369.27 448.79H360.93H360.92ZM348.05 464.58V469.64H353.2V464.4C353.2 461.38 346.19 457.3 345.83 457.3C345.47 457.3 338.47 461.38 338.47 464.4V469.64H343.53V464.58C343.53 463.69 345.66 462.45 345.84 462.45C345.93 462.45 348.06 463.69 348.06 464.58H348.05ZM348.05 475.85V480.82H343.53V475.85C343.53 474.87 345.66 473.64 345.84 473.64C345.93 473.64 348.06 474.88 348.06 475.85H348.05ZM353.2 471.42H338.47V480.82H336.34V453.85H355.24V480.82H353.2V471.42ZM324.63 465.74H326.4V469.11H324.63V465.74ZM324.63 477.45H326.4V480.82H324.63V477.45ZM365.35 477.45H367.12V480.82H365.35V477.45ZM365.35 465.74H367.12V469.11H365.35V465.74ZM323.03 451.45H324.63V453.85H323.03V451.45ZM367.39 451.45H369.08V453.85H367.39V451.45ZM364.73 451.45H366.33V453.85H364.73V451.45ZM361.98 451.45H363.58V453.85H361.98V451.45ZM328.53 451.45H330.13V453.85H328.53V451.45ZM325.78 451.45H327.38V453.85H325.78V451.45ZM362.96 471.15H365.44C364.91 471.42 364.38 471.86 364.11 472.04C363.58 472.48 362.87 473.29 362.87 474.08V481.18H369.7V474.08C369.7 473.28 368.9 472.48 368.37 472.04C368.19 471.86 367.57 471.42 367.04 471.15H369.7V470.44H362.96V471.15ZM322.15 459.08H325.17C324.64 459.35 323.66 460.15 323.4 460.32C322.87 460.76 322.07 461.56 322.07 462.36V469.46H328.9V462.36C328.9 461.56 328.1 460.76 327.57 460.32C327.3 460.05 326.42 459.34 325.8 459.08H328.91V458.37H322.17V459.08H322.15ZM322.15 471.15H324.72C324.19 471.42 323.57 471.86 323.39 472.04C322.86 472.48 322.06 473.29 322.06 474.08V481.18H328.89V474.08C328.89 473.28 328.18 472.48 327.56 472.04C327.38 471.86 326.85 471.42 326.32 471.15H328.89V470.44H322.15V471.15ZM362.78 459.08H365.97C365.35 459.35 364.37 460.06 364.19 460.32C363.57 460.76 362.86 461.56 362.86 462.36V469.46H369.69V462.36C369.69 461.56 368.89 460.76 368.36 460.32C368.09 460.14 367.12 459.34 366.59 459.08H369.43V458.37H362.78V459.08ZM326.94 438.68C327.12 438.77 327.21 438.94 327.21 439.21C327.21 439.48 327.12 439.65 326.94 439.83V441.6H327.21V441.95H326.41V441.6H326.68V440H326.41C326.14 440 325.88 439.73 325.7 439.47C325.88 439.56 326.06 439.65 326.23 439.65C326.67 439.65 327.03 439.3 327.03 438.94C327.03 438.85 327.03 438.77 326.94 438.68ZM326.76 441.96C334.21 446.49 330.4 447.91 331.02 448.79H322.68C323.3 447.81 318.95 446.66 326.76 441.96Z" fill="#F4B512"/>
<path fill-rule="evenodd" clip-rule="evenodd" d="M444.31 352.62H442.72V341.26L442.54 341.44L442.27 341.26V344.9L441.92 344.46L441.57 345.08L441.21 345.7L440.77 345.08L440.41 344.46L439.97 345.08L439.62 345.7L439.18 345.08L438.82 344.46L438.38 345.08L438.02 345.7L437.67 345.08L437.23 344.46L436.87 345.08L436.43 345.7L436.08 345.08L435.64 344.46L435.29 345.08L434.93 345.7L434.48 345.08L434.13 344.46L433.69 345.08L433.33 345.7L432.89 345.08L432.54 344.46L432.1 345.08L431.75 345.7L431.39 345.08L430.95 344.46L430.6 345.08L430.16 345.7L429.81 345.08L429.37 344.46L429.02 345.08L428.67 345.7L428.22 345.08L427.86 344.46L427.42 345.08L427.07 345.7L426.63 345.08L426.28 344.46L425.83 345.08L425.48 345.7L425.13 345.08L424.68 344.46L424.33 345.08L423.89 345.7L423.54 345.08L423.1 344.46L422.75 345.08L422.39 345.7L421.95 345.08L421.6 344.46L421.15 345.08L420.8 345.7L420.36 345.08L420 344.46L419.56 345.08L419.21 345.7L418.86 345.08L418.42 344.46L418.06 345.08L417.62 345.7L417.27 345.08L416.83 344.46L416.47 345.08L416.12 345.7L415.68 345.08L415.33 344.46L414.97 344.99V341.27L414.71 341.45L414.44 341.27V352.63H412.93V348.19L412.75 348.45L412.48 348.19V385.01H444.86V348.19L444.59 348.45L444.41 348.19V352.63L444.31 352.62ZM445.29 491.38H410.95V470.89H445.29V491.38ZM441.92 469.29V450.13H440.5V469.29H439.43V450.13H437.92V469.29H436.86V450.13H435.44V469.29H434.29V450.13H432.87V469.29H431.72V450.13H430.3V469.29H429.15V450.13H427.73V469.29H426.58V450.13H425.16V469.29H424.09V450.13H422.58V469.29H421.52V450.13H420.1V469.29H418.95V450.13H417.53V469.29H416.38V450.13H414.96V469.29H413.81V429.63H443.09V469.29H441.94H441.92ZM440.5 449.06H441.92V430.52H440.5V449.06ZM414.95 449.06H416.37V430.52H414.95V449.06ZM417.52 449.06H418.94V430.52H417.52V449.06ZM420.09 449.06H421.51V430.52H420.09V449.06ZM422.58 449.06H424.09V430.52H422.58V449.06ZM425.15 449.06H426.57V430.52H425.15V449.06ZM427.72 449.06H429.14V430.52H427.72V449.06ZM430.3 449.06H431.72V430.52H430.3V449.06ZM432.87 449.06H434.29V430.52H432.87V449.06ZM435.44 449.06H436.86V430.52H435.44V449.06ZM437.93 449.06H439.44V430.52H437.93V449.06ZM415.66 340.29L414.59 339.4L413.62 340.29L414.59 341.35L415.66 340.29ZM443.52 340.29L442.55 339.4L441.57 340.29L442.55 341.35L443.52 340.29ZM445.47 347.21L444.49 346.32L443.6 347.21L444.49 348.27L445.47 347.21ZM413.53 347.21L412.65 346.32L411.67 347.21L412.65 348.27L413.53 347.21ZM414.33 339.49V338.87H414.86V339.49L414.6 339.22L414.33 339.49ZM442.27 339.49V338.87H442.72V339.49L442.54 339.22L442.27 339.49ZM412.38 346.41V345.7H412.82V346.32L412.64 346.14L412.37 346.41H412.38ZM444.31 346.32V345.7H444.75V346.41L444.48 346.14L444.3 346.32H444.31ZM421.6 334.34L417.34 344.9L417.43 344.99L417.52 345.17L418.32 344.02L418.94 345L419.12 345.18L419.3 345L419.92 344.02L420.72 345.26L420.9 344.99L421.52 343.93L422.05 344.99L422.32 345.26L423.03 344.02L423.74 345L423.83 345.18L424.01 345L424.63 344.02L425.25 345L425.43 345.18L425.61 345L426.23 344.02L426.85 345L427.03 345.27L427.21 345L427.83 343.94L428.37 345L428.64 345.27L428.73 345L429.35 344.02L430.06 345L430.15 345.18L430.95 344.03L431.57 345.01L431.75 345.19L431.93 345.01L432.55 344.03L433.35 345.27L433.53 345L434.15 343.94L434.77 345L434.95 345.27L435.66 344.03L436.37 345.01L436.46 345.19L437.26 344.04L437.88 345.02L438.06 345.2L438.24 345.02L438.86 344.04L439.66 345.19L439.75 345.01L439.84 344.92L435.58 334.36H421.65L421.6 334.34ZM423.02 341.53L422.14 340.02L421.87 339.67L420.71 341.53L421.06 341.71L421.86 340.38L422.57 341.71L423.01 341.53H423.02ZM429.68 337.98L428.79 336.38L428.61 336.03L427.45 337.98L427.8 338.16L428.6 336.83L429.31 338.16L429.67 337.98H429.68ZM434.11 337.98L433.14 336.38L432.96 336.03L431.81 337.98L432.17 338.16L432.97 336.83L433.68 338.16L434.12 337.98H434.11ZM436.33 341.53L435.35 340.02L435.17 339.67L434.1 341.53L434.37 341.71L435.17 340.38L435.97 341.71L436.33 341.53ZM431.81 341.53L431.01 340.02L430.74 339.67L429.59 341.53L429.94 341.71L430.74 340.38L431.54 341.71L431.81 341.53ZM427.37 341.53L426.57 340.02L426.3 339.67L425.15 341.53L425.5 341.71L426.3 340.38L427.01 341.71L427.36 341.53H427.37ZM425.69 337.98L424.89 336.38L424.62 336.03L423.47 337.98L423.82 338.16L424.62 336.83L425.33 338.16L425.69 337.98ZM418.85 347.3H415.66V351.65H418.85V347.3ZM441.03 347.3H437.92V351.65H441.03V347.3ZM436.69 347.3H433.41V351.65H436.69V347.3ZM432.25 347.3H428.97V351.65H432.25V347.3ZM427.81 347.3H424.53V351.65H427.81V347.3ZM423.29 347.3H420.1V351.65H423.29V347.3ZM429.85 307.46H427.28V305.6H429.85V307.46ZM421.52 321.74L420.54 320.76L419.56 321.74L420.54 322.71L421.52 321.74ZM437.57 321.74L436.6 320.76L435.62 321.74L436.6 322.71L437.57 321.74ZM436.06 325.56L435.71 326.27L435.35 326.98H435.26L434.99 326.27L434.55 325.56L434.11 326.27L433.84 326.98L433.49 326.27L433.05 325.56L432.7 326.27L432.35 326.98L431.99 326.27L431.64 325.56L431.19 326.27L430.84 326.98L430.49 326.27L430.14 325.56L429.7 326.27L429.43 326.98H429.34L428.99 326.27L428.64 325.56L428.19 326.27L427.92 326.98H427.83L427.48 326.27L427.13 325.56L426.69 326.27L426.42 326.98H426.33L425.97 326.27L425.62 325.56L425.18 326.27L424.91 326.98H424.83L424.47 326.27L424.03 325.56L423.68 326.27L423.33 326.98L423.06 326.27L422.62 325.56L422.18 326.27L421.91 326.98H421.82L421.55 326.27L421.1 325.56L420.83 326V322.89L420.56 323.07L420.29 322.89V326.97V333.8H436.88V326.97V322.89L436.62 323.07L436.35 322.89V326L436.08 325.56H436.06ZM428.61 304.53C428.61 304.8 428.52 305.06 428.52 305.33H428.61V304.53ZM428.26 307.73C427.28 313.85 424.44 319.26 422.49 325.03V324.94L423.2 326.18L423.29 326.36L424 324.94L424.71 326.18L424.8 326.36L424.88 326.18L425.59 324.94L426.3 326.36L426.39 326.18L427.1 324.94L427.81 326.36L427.9 326.18L428.61 324.94L429.23 326.18L429.32 326.36L429.41 326.18L430.12 324.94L430.83 326.36L430.92 326.18L431.63 324.94L432.34 326.36L432.43 326.18L433.14 324.94L433.67 326.18L433.85 326.36L433.94 326.18L434.56 324.94C434.74 324.67 429.15 310.21 428.79 307.73H428.26ZM429.68 316.06L428.79 314.64L428.61 314.2L427.45 316.06L427.8 316.32L428.6 314.99L429.31 316.32L429.67 316.06H429.68ZM426.31 323.7L425.51 322.1L425.25 321.75L424.09 323.7L424.44 323.88L425.24 322.46L425.95 323.88L426.31 323.7ZM429.68 323.7L428.79 322.1L428.61 321.75L427.45 323.7L427.8 323.88L428.6 322.46L429.31 323.88L429.67 323.7H429.68ZM433.05 323.7L432.16 322.1L431.89 321.75L430.73 323.7L431.17 323.88L431.88 322.46L432.68 323.88L433.03 323.7H433.05ZM427.72 320.05L426.83 318.45L426.56 318.1L425.5 320.05L425.85 320.23L426.56 318.81L427.36 320.23L427.72 320.05ZM431.63 320.05L430.74 318.45L430.56 318.1L429.41 320.05L429.68 320.23L430.56 318.81L431.27 320.23L431.63 320.05ZM420.27 320.68V320.06H420.8V320.68L420.53 320.42L420.26 320.68H420.27ZM436.33 320.68V320.06H436.86V320.68L436.6 320.42L436.33 320.68ZM423.64 328.31H421.15V332.75H423.64V328.31ZM435.97 328.31H433.49V332.75H435.97V328.31ZM432.87 328.31H430.39V332.75H432.87V328.31ZM429.85 328.31H427.37V332.75H429.85V328.31ZM426.75 328.31H424.27V332.75H426.75V328.31ZM440.68 427.41H442.1V407.18H440.68V427.41ZM415.04 427.41H416.46V407.18H415.04V427.41ZM417.61 427.41H419.03V407.18H417.61V427.41ZM420.18 427.41H421.6V407.18H420.18V427.41ZM422.76 427.41H424.18V407.18H422.76V427.41ZM425.33 427.41H426.75V407.18H425.33V427.41ZM427.81 427.41H429.32V407.18H427.81V427.41ZM430.38 427.41H431.8V407.18H430.38V427.41ZM432.96 427.41H434.38V407.18H432.96V427.41ZM435.53 427.41H436.95V407.18H435.53V427.41ZM438.11 427.41H439.53V407.18H438.11V427.41ZM440.68 406.11H442.1V387.48H440.68V406.11ZM415.04 406.11H416.46V387.48H415.04V406.11ZM417.61 406.11H419.03V387.48H417.61V406.11ZM420.18 406.11H421.6V387.48H420.18V406.11ZM422.76 406.11H424.18V387.48H422.76V406.11ZM425.33 406.11H426.75V387.48H425.33V406.11ZM427.81 406.11H429.32V387.48H427.81V406.11ZM430.38 406.11H431.8V387.48H430.38V406.11ZM432.96 406.11H434.38V387.48H432.96V406.11ZM435.53 406.11H436.95V387.48H435.53V406.11ZM438.11 406.11H439.53V387.48H438.11V406.11ZM443.16 386.69H413.97V428.21H443.16V386.69ZM417.7 382.25H416.02V383.94H417.7V382.25ZM441.03 382.25H439.35V383.94H441.03V382.25ZM438.9 382.25H437.21V383.94H438.9V382.25ZM436.77 382.25H435.09V383.94H436.77V382.25ZM434.64 382.25H432.96V383.94H434.64V382.25ZM432.52 382.25H430.83V383.94H432.52V382.25ZM430.38 382.25H428.7V383.94H430.38V382.25ZM428.26 382.25H426.57V383.94H428.26V382.25ZM426.13 382.25H424.44V383.94H426.13V382.25ZM424 382.25H422.4V383.94H424V382.25ZM421.96 382.25H420.27V383.94H421.96V382.25ZM419.83 382.25H418.14V383.94H419.83V382.25ZM428.61 369.83C428.43 369.83 428.26 369.74 428.08 369.74L427.46 370.36C427.37 370.71 427.37 370.98 427.19 371.16C427.1 371.25 426.93 371.25 426.75 371.16C426.63 370.987 426.483 370.81 426.31 370.63C426.13 370.54 426.13 370.37 426.31 370.19C426.49 370.01 426.75 369.92 427.02 369.92L427.73 369.3C427.55 369.21 427.55 368.94 427.55 368.77V368.5L421.16 361.67V361.49H421.34C421.34 361.4 421.43 361.4 421.43 361.49L428.17 367.79C428.26 367.7 428.44 367.7 428.62 367.7C428.8 367.7 429.06 367.79 429.24 367.88L430.3 366.91C430.21 366.91 430.12 366.82 430.12 366.73C429.94 366.64 429.94 366.37 430.12 366.29C430.3 366.11 430.74 366.02 431.18 366.02L431.36 365.84V365.39H431.98V365.92H431.63L431.36 366.19C431.36 366.63 431.36 367.08 431.18 367.26C431 367.35 430.74 367.35 430.65 367.26L430.56 367.17L429.5 368.23C429.59 368.41 429.68 368.58 429.68 368.76C429.68 368.94 429.59 369.03 429.59 369.11C429.85 369.55 430.39 369.91 430.92 370.09C430.92 370.09 431.01 370.09 431.01 370.18C431.01 370.27 431.01 370.36 430.92 370.36C430.74 370.36 430.74 370.45 430.74 370.54C430.65 370.54 430.65 370.63 430.65 370.72C430.65 370.81 430.56 370.9 430.56 370.9C430.38 370.9 430.29 370.9 430.29 370.99C430.2 370.99 430.11 371.08 430.11 371.17H430.02C429.93 371.26 429.93 371.17 429.84 371.17C429.67 370.55 429.31 370.2 428.78 369.84H428.6L428.61 369.83ZM428.35 359.54H427.73L427.64 358.39H427.55H428.35V359.54ZM427.19 359.63C426.93 359.72 426.66 359.72 426.39 359.81L426.13 358.66C426.39 358.57 426.75 358.48 427.1 358.48L427.19 359.63ZM425.95 359.89C425.77 359.98 425.6 360.07 425.33 360.07L424.88 359.01C425.15 358.92 425.41 358.83 425.68 358.75L425.94 359.9L425.95 359.89ZM424.98 360.25C424.71 360.43 424.44 360.52 424.18 360.6L423.56 359.62C423.83 359.44 424.18 359.27 424.53 359.18L424.98 360.25ZM423.73 360.87C423.55 361.04 423.38 361.13 423.2 361.22L422.49 360.24C422.76 360.15 422.93 359.97 423.2 359.79L423.73 360.86V360.87ZM422.85 361.49C422.67 361.67 422.58 361.76 422.4 361.85L422.58 362.03C422.67 361.94 422.85 361.77 422.93 361.68H423.02L423.11 361.59C423.37 361.42 423.55 361.24 423.82 361.06H423.91L425.77 364.34C425.59 364.43 425.42 364.52 425.33 364.61L425.51 364.79C426.31 364.08 427.37 363.73 428.62 363.73C429.87 363.73 431.1 364.26 431.99 365.06H432.35C432.08 364.8 431.82 364.53 431.46 364.35L433.24 361.07H433.33C433.69 361.34 433.95 361.51 434.31 361.78L434.4 361.87C434.58 362.05 434.75 362.22 435.02 362.4C435.2 362.67 435.46 362.93 435.73 363.2V363.29L435.82 363.38C436 363.65 436.17 363.83 436.26 364.09L433.07 365.95C432.89 365.69 432.63 365.33 432.45 365.06V365.5C433.16 366.3 433.69 367.54 433.69 368.78C433.69 370.2 433.07 371.44 432.18 372.42C431.2 373.31 429.96 373.93 428.63 373.93C427.21 373.93 425.97 373.31 424.99 372.42C424.01 371.44 423.48 370.21 423.48 368.78C423.48 367.63 423.83 366.56 424.54 365.76L424.36 365.58C424.27 365.67 424.18 365.85 424.1 365.93L420.9 364.07C421.08 363.72 421.34 363.36 421.61 363.09V363C421.7 363 421.7 362.91 421.79 362.83L421.61 362.65C421.52 362.74 421.52 362.83 421.43 362.92L420.45 362.12C420.63 362.03 420.72 361.94 420.81 361.77V361.33L421.08 361.24C421.17 361.06 421.35 361.06 421.53 361.06C421.71 360.89 421.88 360.8 422.15 360.62L422.86 361.51L422.85 361.49ZM421.33 363.09H421.24L420.44 362.38L421.33 363V363.09ZM421.16 363.26C420.98 363.44 420.81 363.71 420.72 363.97L420.19 363.62L419.66 363.35C419.84 363.09 420.01 362.73 420.19 362.55H420.28L421.17 363.26H421.16ZM420.45 364.33C420.36 364.51 420.27 364.68 420.19 364.95L419.04 364.42C419.13 364.24 419.31 363.98 419.39 363.8L420.45 364.33ZM419.92 365.39C419.83 365.66 419.74 365.92 419.66 366.19L418.6 365.84H418.51C418.6 365.48 418.78 365.22 418.86 364.87L419.92 365.4V365.39ZM419.56 366.63C419.47 366.81 419.47 366.99 419.38 367.25L418.23 367.07C418.32 366.81 418.32 366.54 418.41 366.27V366.36L419.56 366.63ZM419.38 367.44L418.32 367.35V367.26L419.38 367.44ZM419.38 367.7C419.29 367.96 419.29 368.23 419.29 368.5H418.14C418.14 368.15 418.14 367.88 418.23 367.53L419.38 367.71V367.7ZM419.3 369.03C419.3 369.21 419.3 369.47 419.39 369.65L418.15 369.74V369.03H419.3ZM419.38 370.09C419.47 370.36 419.47 370.71 419.56 370.98L418.41 371.25C418.32 370.9 418.23 370.63 418.23 370.28L419.38 370.1V370.09ZM419.65 371.42C419.74 371.6 419.83 371.78 419.91 371.95L418.76 372.39V372.48C418.67 372.21 418.58 371.95 418.49 371.68H418.58L419.64 371.41L419.65 371.42ZM420.01 372.22L419.03 372.66V372.57L420.01 372.22ZM420.09 372.4C420.18 372.67 420.27 372.93 420.44 373.2L419.38 373.82C419.2 373.55 419.11 373.2 418.94 372.93L419.03 372.84L420.09 372.4ZM420.71 373.65C420.8 373.83 420.89 374 421.06 374.09L420 374.8C419.91 374.62 419.73 374.44 419.65 374.18L420.71 373.65ZM421.33 374.44C421.51 374.71 421.69 374.89 421.87 375.15L421.07 376.04H420.98C420.8 375.78 420.54 375.51 420.36 375.24L421.34 374.44H421.33ZM422.23 375.51C422.4 375.6 422.49 375.78 422.67 375.86L421.96 376.84H421.87C421.69 376.66 421.52 376.48 421.33 376.31L422.22 375.51H422.23ZM423.02 376.22C423.29 376.4 423.46 376.49 423.73 376.66L423.2 377.73H423.11C422.84 377.55 422.58 377.38 422.31 377.11L423.02 376.22ZM424.17 376.93C424.35 377.02 424.52 377.11 424.7 377.2L424.26 378.26C423.99 378.17 423.73 378.08 423.55 377.91L424.17 376.93ZM425.15 377.37C425.42 377.46 425.68 377.55 425.95 377.64L425.69 378.79C425.33 378.7 424.98 378.61 424.71 378.52L425.16 377.37H425.15ZM426.13 377.73L425.95 378.7H425.86L426.13 377.73ZM426.39 377.82C426.57 377.82 426.83 377.91 427.01 377.91L426.83 379.06C426.56 379.06 426.3 378.97 426.12 378.97L426.38 377.82H426.39ZM427.19 377.99H427.28L427.1 378.96L427.19 377.99ZM427.46 377.99C427.73 377.99 428.08 378.08 428.35 378.08V379.23C427.99 379.23 427.64 379.23 427.28 379.14L427.46 377.99ZM428.79 378.08C428.97 378.08 429.23 378.08 429.41 377.99L429.59 379.14V379.23H428.79V378.08ZM429.94 377.99C430.21 377.9 430.47 377.9 430.74 377.81L431.01 378.96C430.74 379.05 430.39 379.05 430.03 379.14L429.94 377.99ZM431.01 377.73L431.27 378.7H431.18L431 377.73H431.01ZM431.18 377.64C431.36 377.64 431.54 377.55 431.8 377.46L432.24 378.53V378.62C431.97 378.71 431.8 378.8 431.53 378.8L431.17 377.65L431.18 377.64ZM431.98 377.37H432.07L432.42 378.35L431.98 377.37ZM432.25 377.28C432.52 377.19 432.78 377.01 432.96 376.93L433.58 377.91V378C433.31 378.09 432.96 378.27 432.69 378.44V378.35L432.25 377.29V377.28ZM433.4 376.66C433.58 376.57 433.76 376.48 433.93 376.31L434.64 377.29C434.46 377.46 434.2 377.55 434.02 377.73L433.4 376.66ZM434.29 376.04C434.56 375.86 434.73 375.69 434.91 375.51L435.8 376.31C435.53 376.57 435.27 376.84 435 377.02L434.29 376.04ZM435.27 375.15C435.44 374.97 435.53 374.8 435.62 374.71L436.6 375.42C436.51 375.6 436.33 375.78 436.16 375.95L435.28 375.15H435.27ZM435.97 374.27C436.15 374.09 436.33 373.83 436.41 373.56L437.47 374.18C437.29 374.53 437.12 374.8 436.94 375.07H436.85L435.96 374.27H435.97ZM436.69 373.2C436.78 373.02 436.87 372.84 436.95 372.67L438.11 373.11C437.93 373.37 437.84 373.56 437.75 373.82H437.66L436.68 373.2H436.69ZM437.13 372.22C437.22 371.95 437.39 371.69 437.39 371.42L438.55 371.69H438.64C438.46 372.04 438.37 372.4 438.29 372.66L437.13 372.22ZM437.57 370.98C437.57 370.8 437.66 370.54 437.66 370.36L438.9 370.54C438.81 370.72 438.81 370.98 438.72 371.25L437.56 370.98H437.57ZM437.75 370.09L438.82 370.27H438.73L437.75 370.09ZM437.75 369.83C437.84 369.57 437.84 369.3 437.84 369.03H439C439 369.38 439 369.65 438.91 370L437.76 369.82L437.75 369.83ZM437.84 368.5C437.84 368.33 437.84 368.15 437.75 367.97L438.99 367.79V368.5H437.83H437.84ZM437.75 367.7V367.61L438.82 367.52V367.61L437.75 367.7ZM437.75 367.44C437.66 367.17 437.66 366.91 437.57 366.64L438.73 366.37V366.28C438.82 366.63 438.91 366.99 438.91 367.35L437.76 367.44H437.75ZM437.48 366.19C437.39 365.92 437.3 365.75 437.21 365.57L438.37 365.13C438.46 365.4 438.55 365.57 438.55 365.84L437.48 366.19ZM437.13 365.3L438.11 364.86V364.95L437.13 365.31V365.3ZM437.04 365.13C436.95 364.87 436.86 364.6 436.69 364.33L437.67 363.8H437.76C437.94 364.07 438.03 364.42 438.21 364.69L437.05 365.13H437.04ZM436.42 363.97C436.33 363.79 436.24 363.62 436.15 363.44L437.04 362.73C437.22 362.91 437.39 363.17 437.48 363.35L436.42 363.97ZM435.8 363C435.62 362.83 435.44 362.65 435.27 362.38L436.15 361.58C436.33 361.85 436.59 362.11 436.77 362.29V362.38L435.8 363ZM434.91 362.11C434.82 361.93 434.64 361.76 434.46 361.67L435.17 360.7C435.35 360.88 435.61 361.05 435.79 361.23L434.9 362.12L434.91 362.11ZM434.29 361.49L435 360.69L434.38 361.49H434.29ZM434.11 361.4C433.84 361.22 433.67 361.04 433.4 360.87L434.02 359.89C434.29 360.07 434.55 360.25 434.82 360.43L434.11 361.41V361.4ZM432.96 360.69C432.78 360.51 432.61 360.42 432.43 360.34L432.87 359.27C433.14 359.36 433.31 359.45 433.58 359.62L432.96 360.69ZM431.98 360.16C431.72 360.07 431.45 359.98 431.18 359.89L431.54 358.74C431.81 358.83 432.16 359 432.43 359.09L431.99 360.16H431.98ZM430.74 359.8C430.56 359.71 430.3 359.71 430.12 359.62L430.3 358.47C430.57 358.56 430.83 358.56 431.01 358.65L430.74 359.8ZM429.94 359.63H429.85L430.03 358.57L429.94 359.63ZM429.68 359.63C429.41 359.54 429.06 359.54 428.79 359.54V358.39H429.85L429.68 359.63ZM424.26 360.87C424.53 360.69 424.7 360.6 424.97 360.43H425.06L425.33 360.34C425.6 360.25 425.77 360.16 426.04 360.07H426.13L426.31 359.98H426.49C426.76 359.89 427.02 359.89 427.29 359.8H427.73V359.71H428.35V363.44C427.55 363.53 426.75 363.7 426.13 364.06L424.27 360.87H424.26ZM428.79 359.71C429.06 359.71 429.32 359.71 429.59 359.8H430.03C430.3 359.89 430.47 359.89 430.65 359.98H430.74L431.01 360.07H431.1C431.36 360.16 431.63 360.25 431.9 360.34V360.43H431.99C432.08 360.43 432.17 360.52 432.26 360.52L432.35 360.61C432.53 360.61 432.7 360.79 432.88 360.88L431.02 364.07C430.31 363.72 429.6 363.54 428.8 363.45V359.72L428.79 359.71ZM436.51 364.51C436.69 364.78 436.78 365.04 436.86 365.31L436.95 365.4C436.95 365.49 436.95 365.58 437.04 365.58V365.67C437.13 365.93 437.22 366.29 437.31 366.64C437.49 367.26 437.57 367.88 437.57 368.59H433.84C433.84 367.79 433.58 366.99 433.31 366.37L436.5 364.51H436.51ZM437.57 369.03C437.57 369.3 437.57 369.56 437.48 369.83C437.48 370.19 437.39 370.54 437.3 370.9C437.12 371.7 436.85 372.4 436.5 373.11L433.22 371.25C433.58 370.54 433.75 369.83 433.84 369.03H437.57ZM436.24 373.47C436.15 373.74 435.97 374 435.8 374.27L435.62 374.45L435.53 374.54C435.35 374.72 435.27 374.9 435.18 374.98L435 375.07L434.91 375.25L434.73 375.34H434.82C434.55 375.52 434.37 375.69 434.2 375.87H434.11V375.96L434.02 376.05C433.75 376.23 433.58 376.32 433.31 376.49L431.45 373.21C431.72 373.03 432.07 372.77 432.34 372.5C432.61 372.23 432.87 371.97 433.05 371.61L436.24 373.47ZM432.87 376.75C432.69 376.84 432.43 377.01 432.16 377.1V377.01L431.98 377.1L431.89 377.19L431.71 377.28C431.53 377.28 431.35 377.37 431.17 377.45H431.08C430.99 377.45 430.81 377.54 430.72 377.54H430.63C430.27 377.63 430.01 377.72 429.66 377.72H429.48C429.21 377.81 429.04 377.81 428.77 377.81V374.08C429.57 373.99 430.28 373.82 430.99 373.46L432.85 376.74L432.87 376.75ZM428.35 377.82C428.08 377.82 427.81 377.82 427.55 377.73H427.11C426.84 377.64 426.67 377.64 426.49 377.55C426.05 377.46 425.61 377.29 425.16 377.11H425.07C424.81 377.02 424.54 376.85 424.27 376.76L426.13 373.48C426.84 373.84 427.55 374.01 428.35 374.1V377.83V377.82ZM423.82 376.48C423.64 376.39 423.38 376.21 423.11 376.04H423.2L423.11 375.95L422.84 375.86V375.77H422.75C422.66 375.59 422.48 375.5 422.31 375.33H422.4L422.31 375.24L422.13 375.06L421.95 374.97C421.77 374.79 421.6 374.62 421.42 374.35L421.24 374.08L421.15 373.99C421.06 373.81 420.97 373.64 420.88 373.46H420.79L424.07 371.6C424.33 371.95 424.51 372.22 424.87 372.49C425.14 372.76 425.4 373.02 425.76 373.29L423.81 376.48H423.82ZM420.63 373.11C420.45 372.84 420.36 372.58 420.27 372.22H420.18C420.09 371.95 420 371.6 419.91 371.33C419.82 371.15 419.82 371.06 419.82 370.89C419.64 370.27 419.55 369.65 419.55 369.02H423.28C423.28 369.82 423.55 370.53 423.9 371.24L420.62 373.1L420.63 373.11ZM419.56 368.59C419.56 368.33 419.56 367.97 419.65 367.71V367.27C419.74 367.09 419.74 366.83 419.83 366.65C419.83 366.47 419.83 366.38 419.92 366.3V366.21C420.01 365.94 420.1 365.68 420.19 365.5L420.28 365.32V365.23C420.28 365.14 420.37 365.14 420.37 365.05C420.46 364.88 420.55 364.7 420.64 364.52L423.92 366.38C423.57 367.09 423.3 367.8 423.3 368.6H419.57L419.56 368.59ZM440.59 356.7H428.61C435.18 356.7 440.59 362.11 440.59 368.77V356.7ZM431.18 358.74H431.27L431.01 359.8L431.19 358.74H431.18ZM435.8 361.49H435.89L435.18 362.29L435.09 362.2L435.8 361.49ZM435.89 376.04L435.8 376.13L435.09 375.33H435.18L435.89 376.04ZM421.33 376.13L421.24 376.04L421.95 375.33H422.04L421.33 376.13ZM425.86 358.74H425.95L426.13 359.8L425.86 358.74ZM436.86 362.55L435.97 363.26V363.17L436.86 362.55ZM424.53 378.35L424.44 378.26L424.88 377.29L424.53 378.35ZM422.14 376.93V376.84L422.85 376.04L422.14 376.93ZM422.4 360.51V360.42L423.02 361.31V361.4L422.4 360.51ZM424.71 359.18L425.16 360.16L425.07 360.25L424.71 359.18ZM428.61 356.7H416.54V368.77C416.54 362.12 421.95 356.7 428.61 356.7ZM416.55 368.76V380.83H428.62C421.97 380.83 416.55 375.42 416.55 368.76ZM428.61 380.83H440.59V368.76C440.59 375.41 435.18 380.83 428.61 380.83ZM428.61 380.21C422.31 380.21 417.16 375.06 417.16 368.76C417.16 362.46 422.31 357.41 428.61 357.41C434.91 357.41 439.97 362.55 439.97 368.76C439.97 374.97 434.83 380.21 428.61 380.21ZM438.73 379.5C438.2 379.5 437.84 379.15 437.84 378.53C437.84 378.09 438.2 377.73 438.73 377.73C439.17 377.73 439.62 378.08 439.62 378.53C439.62 379.15 439.18 379.5 438.73 379.5ZM438.73 359.63C438.2 359.63 437.84 359.19 437.84 358.74C437.84 358.21 438.2 357.85 438.73 357.85C439.17 357.85 439.62 358.2 439.62 358.74C439.62 359.18 439.18 359.63 438.73 359.63ZM418.59 359.63C418.06 359.63 417.7 359.19 417.7 358.74C417.7 358.21 418.06 357.85 418.59 357.85C419.12 357.85 419.48 358.2 419.48 358.74C419.48 359.18 419.13 359.63 418.59 359.63ZM418.59 379.5C418.06 379.5 417.7 379.15 417.7 378.53C417.7 378.09 418.06 377.73 418.59 377.73C419.12 377.73 419.48 378.08 419.48 378.53C419.48 379.15 419.13 379.5 418.59 379.5ZM440.94 356.34V381.18H416.19V356.34H440.94ZM441.03 353.68H439.35V355.45H441.03V353.68ZM417.7 353.68H416.02V355.45H417.7V353.68ZM419.83 353.68H418.14V355.45H419.83V353.68ZM421.96 353.68H420.27V355.45H421.96V353.68ZM424 353.68H422.4V355.45H424V353.68ZM426.13 353.68H424.44V355.45H426.13V353.68ZM428.26 353.68H426.57V355.45H428.26V353.68ZM430.38 353.68H428.7V355.45H430.38V353.68ZM432.52 353.68H430.83V355.45H432.52V353.68ZM434.64 353.68H432.96V355.45H434.64V353.68ZM436.77 353.68H435.09V355.45H436.77V353.68ZM438.9 353.68H437.21V355.45H438.9V353.68ZM415.04 383.76H415.4V353.68H415.04V383.76ZM413.26 383.76H413.7V353.68H413.26V383.76ZM414.15 383.76H414.59V353.68H414.15V383.76ZM441.74 383.76H442.27V353.68H441.74V383.76ZM443.52 383.76H443.96V353.68H443.52V383.76ZM442.63 383.76H443.07V353.68H442.63V383.76Z" fill="#FFB005"/>
<path fill-rule="evenodd" clip-rule="evenodd" d="M771.43 381.1V379.86L767.79 378.09V384.21L771.43 381.1ZM691.32 348.09H717.85V355.81H691.32V348.09ZM717.84 357.05V368.85H691.31V357.05H717.84ZM717.84 370.72V391.92H691.31V370.72H717.84ZM698.06 350.49H702.58V351.46H698.06V350.49ZM713.59 360.87V366.28H709.33V360.87C709.33 359.89 710.4 359.09 711.46 359.09C712.7 359.09 713.59 359.89 713.59 360.87ZM706.84 360.87V366.28H702.58V360.87C702.58 359.89 703.47 359.09 704.71 359.09C705.86 359.09 706.84 359.89 706.84 360.87ZM700.01 360.87V366.28H695.75V360.87C695.75 359.89 696.64 359.09 697.88 359.09C699.03 359.09 700.01 359.89 700.01 360.87ZM706.67 376.66H711.19V377.55H706.67V376.66ZM701.07 376.84H705.59V377.73H701.07V376.84ZM704.27 377.99H708.79V378.96H704.27V377.99ZM706.93 379.68H711.45V380.66H706.93V379.68ZM701.61 379.68H706.13V380.66H701.61V379.68ZM698.15 388.73H702.58V389.7H698.15V388.73ZM695.93 387.57H700.46V388.55H695.93V387.57ZM693.71 386.33H698.23V387.22H693.71V386.33ZM710.92 386.06H715.44V387.04H710.92V386.06ZM708.35 349.42H712.87V350.4H708.35V349.42ZM701.25 352.71H705.77V353.69H701.25V352.71ZM656.62 417.12H701.52V452.25H656.62V417.12ZM701.52 453.76V491.37H656.62V453.76H701.52ZM689.63 481.53H697.26V483.13H689.63V481.53ZM682.44 465.47H690.07V467.07H682.44V465.47ZM673.13 465.83H680.76V467.43H673.13V465.83ZM678.45 467.87H686.08V469.46H678.45V467.87ZM682.89 470.71H690.52V472.31H682.89V470.71ZM673.93 470.71H681.47V472.31H673.93V470.71ZM667.89 486.05H675.52V487.65H667.89V486.05ZM664.26 484.01H671.89V485.61H664.26V484.01ZM660.62 481.88H668.25V483.57H660.62V481.88ZM671.09 438.85V447.99H663.9V438.85C663.9 437.16 665.5 435.74 667.54 435.74C669.58 435.74 671.09 437.16 671.09 438.85ZM694.33 438.85V447.99H687.14V438.85C687.14 437.16 688.65 435.74 690.69 435.74C692.73 435.74 694.33 437.16 694.33 438.85ZM682.71 438.85V447.99H675.52V438.85C675.52 437.16 677.12 435.74 679.07 435.74C681.02 435.74 682.71 437.16 682.71 438.85ZM667.8 421.29H675.43V422.88H667.8V421.29ZM685.37 419.42H693V421.02H685.37V419.42ZM673.21 424.92H680.84V426.61H673.21V424.92ZM656.62 429.18H701.52V430.78H656.62V429.18ZM704.71 329.82L695.84 337.27H714.12L704.72 329.82H704.71ZM712.34 337.54V347.48H697.7V337.54H712.34ZM703.38 341.35H706.39V338.42H703.38V341.35ZM780.92 373.47L768.41 384.03H794.32L780.92 373.47ZM791.48 384.74V398.85H799.38V460.16H762.2V398.85H771.16V384.74H791.48ZM779.06 389.52H783.23V385.35H779.06V389.52ZM771.52 402.3H777.82V403.54H771.52V402.3ZM793.43 416.85V424.3H787.48V416.85C787.48 415.43 788.72 414.27 790.41 414.27C792.01 414.27 793.43 415.42 793.43 416.85ZM783.85 416.85V424.3H777.9V416.85C777.9 415.43 779.23 414.27 780.83 414.27C782.43 414.27 783.85 415.42 783.85 416.85ZM774.27 416.85V424.3H768.32V416.85C768.32 415.43 769.65 414.27 771.25 414.27C772.94 414.27 774.27 415.42 774.27 416.85ZM783.59 438.77H789.89V440.1H783.59V438.77ZM775.87 439.03H782.17V440.36H775.87V439.03ZM780.3 440.72H786.69V442.14H780.3V440.72ZM784.03 443.11H790.33V444.44H784.03V443.11ZM776.49 443.11H782.88V444.44H776.49V443.11ZM771.61 455.8H777.91V457.13H771.61V455.8ZM768.59 454.11H774.89V455.44H768.59V454.11ZM765.57 452.43H771.87V453.76H765.57V452.43ZM789.62 452.07H795.92V453.31H789.62V452.07ZM785.98 400.79H792.28V402.03H785.98V400.79ZM776.04 405.32H782.34V406.65H776.04V405.32ZM762.2 408.78H799.38V410.55H762.2V408.78ZM762.2 427.94H799.38V431.67H762.2V427.94ZM679.16 386.42L663.99 399.11H695.4L679.16 386.42ZM692.02 399.82V415.88H667.36V399.82H692.02ZM676.94 405.85H682V400.79H676.94V405.85ZM702.67 441.87L703.91 441.25V450.74L705.95 449.85V440.36L710.21 438.32V447.81L712.16 446.84V437.35L716.42 435.31V444.8L718.46 443.82V434.33L722.72 432.29V441.78L724.67 440.81V431.32L728.93 429.28V438.77L730.97 437.88V428.3L735.23 426.26V435.75L737.18 434.86V425.37L741.44 423.24V432.73L743.48 431.84V422.35L747.65 420.31V429.8L749.69 428.82V419.33L753.95 417.29V426.78L755.9 425.8V416.31L760.16 414.27V423.77L761.05 423.42V455.36L702.67 483.4V441.88V441.87ZM767.79 384.2V386.15L766.11 385.35V377.19L762.38 375.41V383.66L760.7 382.77V374.61L757.06 372.83V381.08L755.28 380.19V372.03L751.73 370.26V378.51L749.96 377.62V369.46L746.32 367.78V375.85L744.64 375.05V366.89L740.91 365.11V373.27L739.22 372.47V364.31L735.58 362.53V370.69L733.9 369.89V361.73L730.17 359.95V368.11L728.48 367.31V359.15L724.84 357.38V365.54L723.07 364.74V356.58L719.52 354.81V362.97L719.08 362.8V390.3L761.05 410.44V397.67H770.45V384.18H767.79V384.2Z" fill="#FFB905"/>
<path fill-rule="evenodd" clip-rule="evenodd" d="M287.1 346.32L285.68 359.63L238.57 354.49L239.99 341.18L287.1 346.33V346.32ZM249.57 467.78C274.15 467.78 295.35 477.54 303.96 491.38H195.01C203.79 477.54 224.91 467.78 249.57 467.78ZM228.63 431.85L278.67 437.35L278.41 440.37L228.28 434.87L228.64 431.85H228.63ZM247.97 320.14L283.99 324.04L284.26 321.38L248.24 317.47L247.97 320.13V320.14ZM239.01 336.65L289.14 342.06L288.78 345.17L238.74 339.67L239.01 336.65ZM236.97 355.63L287.01 361.13L286.74 364.24L236.61 358.74L236.97 355.63ZM234.93 374.71L284.97 380.21L284.62 383.23L234.58 377.82L234.93 374.71ZM232.8 393.7L282.93 399.2L282.49 402.31L232.45 396.81L232.81 393.7H232.8ZM230.76 412.77L280.8 418.27L280.44 421.38L230.4 415.88L230.75 412.78L230.76 412.77ZM279.29 340.11L280.98 324.85L250.73 321.57L249.04 336.83L279.29 340.11ZM258.71 329.11L258.18 334.52L252.95 333.99L253.48 328.58C253.66 327.07 254.99 325.92 256.41 326.09C257.83 326.27 258.9 327.6 258.72 329.11H258.71ZM276.72 331.15L276.1 336.56L270.87 335.94L271.49 330.53C271.67 329.02 273 327.96 274.42 328.13C275.84 328.22 276.91 329.55 276.73 331.15H276.72ZM267.76 330.17L267.14 335.58L261.91 334.96L262.53 329.55C262.62 328.04 263.95 326.89 265.46 327.16C266.88 327.25 267.86 328.58 267.77 330.17H267.76ZM244.87 344.37L243.9 353.15L240.79 352.8L241.77 344.02C241.86 343.31 242.57 342.78 243.46 342.86C244.35 342.95 244.97 343.57 244.88 344.37H244.87ZM275.3 425.55L274.23 434.34L271.21 433.98L272.19 425.2C272.28 424.49 272.99 423.96 273.88 424.05C274.68 424.23 275.3 424.85 275.3 425.56V425.55ZM270.95 425.01L269.97 433.89L266.87 433.53L267.85 424.75C267.94 424.04 268.65 423.51 269.54 423.6C270.43 423.69 271.05 424.4 270.96 425.02L270.95 425.01ZM266.61 424.66L265.63 433.36L262.61 433.09L263.5 424.22C263.59 423.51 264.39 423.06 265.27 423.16C266.07 423.25 266.69 423.87 266.6 424.67L266.61 424.66ZM262.35 424.13L261.37 432.91L258.27 432.56L259.25 423.78C259.34 423.07 260.05 422.62 260.93 422.62C261.82 422.8 262.44 423.42 262.35 424.13ZM258 423.59L257.02 432.46L254 432.11L254.89 423.33C254.98 422.62 255.78 422.09 256.58 422.17C257.47 422.26 258.09 422.97 258 423.59ZM253.74 423.24L252.76 431.93L249.65 431.66L250.54 422.79C250.63 422.08 251.43 421.64 252.31 421.73C253.2 421.82 253.82 422.44 253.73 423.24H253.74ZM249.39 422.71L248.42 431.49L245.31 431.14L246.29 422.44C246.38 421.64 247.18 421.2 247.97 421.2C248.86 421.38 249.48 422 249.39 422.71ZM245.05 422.26L244.16 431.04L240.97 430.69L241.95 421.9C242.04 421.19 242.84 420.66 243.72 420.75C244.52 420.84 245.14 421.55 245.05 422.26ZM240.79 421.82L239.81 430.6L236.7 430.25L237.68 421.46C237.77 420.75 238.57 420.22 239.37 420.31C240.17 420.4 240.88 421.02 240.79 421.82ZM236.44 421.29L235.55 430.07L232.36 429.71L233.34 421.02C233.43 420.22 234.14 419.78 235.03 419.78C235.92 419.96 236.54 420.58 236.45 421.29H236.44ZM277.34 406.29L276.45 415.07L273.26 414.72L274.24 405.93C274.33 405.22 275.04 404.78 275.93 404.78C276.82 404.96 277.44 405.58 277.35 406.29H277.34ZM273.08 405.85L272.02 414.63L269 414.28L269.98 405.49C270.07 404.78 270.78 404.25 271.67 404.34C272.47 404.43 273.09 405.14 273.09 405.85H273.08ZM268.74 405.4L267.76 414.19L264.65 413.84L265.63 404.97C265.72 404.35 266.43 403.82 267.32 403.91C268.21 404 268.83 404.62 268.74 405.41V405.4ZM264.48 404.88L263.42 413.66L260.4 413.4L261.29 404.61C261.47 403.81 262.18 403.37 263.06 403.37C263.86 403.55 264.48 404.17 264.48 404.88ZM260.13 404.43L259.15 413.22L256.05 412.86L257.03 404.08C257.12 403.37 257.83 402.84 258.72 402.92C259.61 403.01 260.23 403.72 260.14 404.43H260.13ZM255.78 403.99L254.8 412.77L251.78 412.41L252.67 403.54C252.76 402.92 253.56 402.38 254.36 402.47C255.25 402.56 255.87 403.18 255.78 403.98V403.99ZM251.52 403.46L250.54 412.24L247.43 411.97L248.41 403.19C248.41 402.39 249.21 401.95 250.1 401.95C250.99 402.13 251.61 402.75 251.52 403.46ZM247.18 403.01L246.2 411.8L243.18 411.44L244.07 402.66C244.16 401.95 244.96 401.42 245.75 401.6C246.64 401.6 247.26 402.31 247.17 403.02L247.18 403.01ZM242.83 402.57L241.94 411.36L238.75 411L239.73 402.13C239.82 401.51 240.62 400.98 241.5 401.07C242.3 401.16 243.01 401.78 242.83 402.58V402.57ZM238.57 402.03L237.59 410.82L234.48 410.55L235.46 401.77C235.55 400.97 236.35 400.53 237.15 400.53C237.95 400.71 238.66 401.33 238.57 402.04V402.03ZM279.47 387.04L278.49 395.82L275.39 395.55L276.37 386.68C276.46 385.97 277.17 385.52 278.06 385.61C278.86 385.7 279.57 386.32 279.48 387.03L279.47 387.04ZM275.12 386.6L274.23 395.39L271.04 395.03L272.02 386.25C272.11 385.54 272.91 385.01 273.71 385.1C274.6 385.19 275.22 385.9 275.13 386.61L275.12 386.6ZM270.87 386.15L269.89 394.93L266.78 394.58L267.76 385.8C267.85 385.09 268.56 384.56 269.44 384.65C270.24 384.74 270.86 385.36 270.86 386.16L270.87 386.15ZM266.52 385.62L265.54 394.41L262.43 394.14L263.41 385.36C263.5 384.56 264.21 384.12 265.09 384.21C265.98 384.3 266.6 384.92 266.51 385.63L266.52 385.62ZM262.26 385.18L261.19 393.96L258.17 393.61L259.06 384.83C259.24 384.12 259.95 383.59 260.83 383.68C261.63 383.77 262.25 384.48 262.25 385.19L262.26 385.18ZM257.91 384.74L256.93 393.52L253.83 393.16L254.81 384.38C254.9 383.67 255.61 383.13 256.5 383.22C257.39 383.31 258.01 384.02 257.92 384.73L257.91 384.74ZM253.57 384.29L252.59 392.98L249.57 392.72L250.46 383.94C250.55 383.14 251.35 382.7 252.23 382.78C253.03 382.87 253.65 383.49 253.56 384.29H253.57ZM249.31 383.76L248.33 392.54L245.23 392.19L246.21 383.41C246.21 382.7 247.01 382.16 247.9 382.34C248.79 382.43 249.41 383.05 249.32 383.76H249.31ZM244.96 383.31L243.98 392.09L240.96 391.74L241.85 382.95C241.94 382.24 242.74 381.71 243.54 381.8C244.43 381.89 245.05 382.6 244.96 383.31ZM240.7 382.87L239.72 391.57L236.53 391.31L237.51 382.52C237.6 381.72 238.4 381.28 239.28 381.37C240.17 381.46 240.79 382.08 240.7 382.87ZM281.51 367.88L280.62 376.57L277.51 376.31L278.49 367.44C278.49 366.73 279.29 366.28 280.09 366.37C280.98 366.46 281.69 367.08 281.51 367.88ZM277.25 367.35L276.27 376.13L273.16 375.78L274.14 367.09C274.23 366.29 274.94 365.85 275.83 365.85C276.63 366.03 277.34 366.65 277.25 367.36V367.35ZM272.9 366.81L272.01 375.68L268.82 375.33L269.89 366.54C269.89 365.83 270.69 365.3 271.48 365.48C272.37 365.48 272.99 366.19 272.9 366.81ZM268.65 366.46L267.67 375.25L264.57 374.9L265.55 366.02C265.64 365.4 266.35 364.87 267.24 364.96C268.04 365.05 268.66 365.67 268.66 366.47L268.65 366.46ZM264.3 365.92L263.32 374.71L260.21 374.36L261.18 365.66C261.27 364.86 261.98 364.42 262.87 364.42C263.76 364.6 264.38 365.22 264.29 365.93L264.3 365.92ZM260.04 365.48L258.97 374.27L255.95 373.92L256.84 365.13C257.02 364.42 257.73 363.89 258.61 364.07C259.41 364.07 260.03 364.78 260.03 365.49L260.04 365.48ZM255.69 365.04L254.71 373.83L251.6 373.47L252.58 364.69C252.67 363.98 253.38 363.45 254.27 363.54C255.16 363.63 255.78 364.25 255.69 365.05V365.04ZM251.35 364.51L250.37 373.29L247.35 372.93L248.24 364.24C248.42 363.44 249.13 362.99 250.02 362.99C250.82 363.17 251.44 363.79 251.35 364.5V364.51ZM247.09 364.06L246.11 372.84L243 372.49L243.98 363.71C244.07 363 244.78 362.47 245.67 362.64C246.56 362.64 247.18 363.35 247.09 364.06ZM242.74 363.62L241.76 372.4L238.74 372.05L239.63 363.27C239.72 362.56 240.52 362.03 241.32 362.12C242.21 362.21 242.83 362.83 242.74 363.63V363.62ZM283.64 348.62L282.66 357.41L279.56 357.05L280.54 348.18C280.63 347.56 281.43 347.03 282.31 347.12C283.11 347.21 283.73 347.83 283.64 348.63V348.62ZM279.29 348.09L278.4 356.88L275.29 356.61L276.27 347.83C276.27 347.03 277.07 346.58 277.87 346.58C278.76 346.76 279.47 347.38 279.29 348.09ZM275.04 347.65L274.06 356.43L270.95 356.08L271.93 347.3C272.02 346.59 272.73 346.06 273.62 346.23C274.51 346.23 275.13 346.94 275.04 347.65ZM270.69 347.21L269.8 355.99L266.61 355.64L267.67 346.85C267.67 346.14 268.47 345.61 269.27 345.7C270.16 345.79 270.87 346.41 270.69 347.21ZM266.43 346.67L265.45 355.45L262.35 355.19L263.33 346.4C263.42 345.6 264.13 345.16 265.02 345.16C265.82 345.34 266.44 345.96 266.44 346.67H266.43ZM262.08 346.23L261.1 355.01L257.99 354.66L258.97 345.87C259.06 345.16 259.77 344.63 260.66 344.81C261.55 344.81 262.17 345.52 262.08 346.23ZM257.82 345.79L256.84 354.57L253.73 354.22L254.71 345.43C254.8 344.72 255.51 344.19 256.4 344.28C257.2 344.37 257.82 344.99 257.82 345.79ZM253.48 345.25L252.5 354.03L249.39 353.77L250.37 344.98C250.46 344.18 251.17 343.74 252.06 343.83C252.95 343.92 253.57 344.54 253.48 345.25ZM249.22 344.81L248.15 353.59L245.14 353.23L246.03 344.45C246.21 343.74 246.92 343.21 247.8 343.38C248.6 343.38 249.22 344.09 249.22 344.8V344.81ZM285.06 365.39L283.64 378.61L236.53 373.46L237.95 360.24L285.06 365.38V365.39ZM283.02 384.47L281.51 397.69L234.4 392.54L235.91 379.32L283.02 384.47ZM280.89 403.54L279.47 416.76L232.36 411.61L233.78 398.39L280.89 403.54ZM278.85 422.53L277.34 435.84L230.32 430.69L231.74 417.38L278.85 422.52V422.53ZM276.72 441.6L273.7 469.64C272.99 469.46 272.28 469.28 271.48 469.02L273.79 448.52C273.97 446.48 272.19 444.71 269.71 444.35C267.23 444.08 265.1 445.5 264.92 447.63L262.79 467.33C261.99 467.24 261.28 467.15 260.48 467.06L262.61 447.36C262.79 445.32 261.01 443.46 258.62 443.19C256.22 442.92 254.01 444.34 253.83 446.39L251.61 466.44C250.9 466.35 250.19 466.35 249.57 466.35H249.3L251.52 446.12C251.7 444.08 249.92 442.22 247.53 441.95C245.05 441.68 242.92 443.11 242.65 445.14L240.34 466.79C239.54 466.88 238.74 466.96 237.94 467.05L240.34 444.87C240.61 442.92 238.74 440.97 236.35 440.7C233.95 440.44 231.74 441.85 231.56 443.98L228.81 468.73C227.92 468.91 226.95 469.17 226.06 469.44L229.61 436.44L276.72 441.58V441.6Z" fill="#FFB005"/>
<path fill-rule="evenodd" clip-rule="evenodd" d="M590.97 488.27L556.99 488.62L561.52 483.12L563.21 481.17L564.28 479.84L565.96 477.89L567.02 476.56L568.62 474.7L591.07 447.73L613.69 474.26C613.51 474.44 613.24 474.7 613.07 474.88L627.36 461.57C630.2 464.06 633.04 466.54 635.88 468.93C637.83 465.83 641.2 461.92 645.46 462.37C652.82 462.63 653.89 473.99 653.89 473.99L649.98 474.08L650.07 476.3C651.49 477.72 652.55 479.49 653.18 481.44C653.27 481.53 653.27 481.62 653.36 481.71L653.63 482.06L653.72 482.33C653.9 482.69 653.99 483.04 654.25 483.49L638.55 483.58C643.79 483.58 649.02 483.49 654.25 483.49L653.98 483.05L653.8 482.61L653.71 482.34C653.89 482.7 653.98 483.05 654.24 483.5C654.42 484.03 655.04 485.54 655.13 486.07L663.38 486.43C664.71 486.78 665.42 486.7 666.31 491.04L640.76 491.22C640.85 491.66 628.69 491.04 628.69 491.04L602.78 490.78C602.78 490.78 602.78 489.18 602.6 488.47L590.98 488.29L590.97 488.27ZM615.55 478.07C615.91 478.16 616.26 478.34 616.7 478.51C616.26 478.33 615.9 478.16 615.55 478.07ZM626.9 487.92C626.63 487.65 626.28 487.48 625.92 487.3C626.27 487.48 626.63 487.65 626.9 487.92ZM653.34 481.71C653.25 481.62 653.25 481.53 653.16 481.44L653.34 481.71Z" fill="#FCD87D"/>
<path fill-rule="evenodd" clip-rule="evenodd" d="M640.03 427.76V430.42H626.45V444.7H632.31L628.23 446.03V491.37H619.27V446.12L615.1 444.7H621.04V430.42H575.88V444.7H581.83L577.75 446.03V491.37H568.7V446.12L564.71 444.7H570.56V430.42H556.99V427.76H553.35V425.81H570.56V418.09H566.48V415.07C560.89 414.27 555.13 413.3 549.36 412.14V405.57C547.23 405.22 545.01 404.77 542.79 404.24V398.91C540.31 398.47 537.74 397.93 535.25 397.41V392.62C577.92 399.81 620.07 399.36 661.68 392.62V397.41C659.2 397.94 656.71 398.47 654.14 398.91V404.24C652.01 404.77 649.79 405.22 647.58 405.66V412.14C641.99 413.39 636.22 414.45 630.46 415.25V418.09H626.46V425.81H643.59V427.76H640.04H640.03ZM579.97 416.59V418.1H575.89V425.82H594.43V417.3C589.64 417.21 584.85 416.95 579.97 416.59ZM621.05 418.09H616.97V416.67C612.26 417.11 607.39 417.29 602.6 417.38V425.81H621.05V418.09Z" fill="#FFB905"/>
<path fill-rule="evenodd" clip-rule="evenodd" d="M535.96 99.85C533.48 102.16 534.19 101.89 528.42 100.2C523.36 98.6 525.76 98.07 521.23 100.64C517.15 103.04 510.49 105.43 507.39 107.29C508.55 109.86 518.48 118.29 520.88 121.75C519.99 122.19 519.28 122.55 518.31 122.99C516.8 123.7 517.16 123.7 515.38 122.64C511.48 120.42 498.97 113.32 496.48 112.26C493.2 113.68 484.5 118.12 481.49 117.94C480.07 117.85 477.76 117.5 478.21 115.72C479.36 111.37 487.17 108.98 492.23 106.76C494.27 105.87 493.74 105.96 494.18 103.74C494.72 101.35 498.09 83.96 498.88 83.07C499.23 82.8 501.98 81.65 502.52 81.38C502.79 82.98 502.96 84.75 503.05 86.44L503.94 96.29C503.94 97.89 504.21 99.75 504.47 101.26C506.78 100.11 509.08 99.13 511.48 97.98C523.37 92.3 521.24 96.12 523.99 89.73C525.59 86.18 525.59 84.05 529.05 84.58C528.43 91.68 530.38 96.11 535.97 99.84L535.96 99.85ZM435 31.09C438.2 32.07 437.48 32.16 441.92 28.07C445.82 24.52 443.43 25.05 448.66 25.5C453.27 25.85 460.37 25.23 464.01 25.59C464.1 28.34 458.69 40.23 457.98 44.4H460.82C462.51 44.4 462.15 44.58 463.39 42.89C465.96 39.16 474.13 27.36 475.99 25.41C479.63 25.32 489.3 25.5 491.96 24.17C493.2 23.46 495.15 22.04 494 20.62C491.07 17.25 483 18.4 477.5 18.58C475.28 18.58 475.82 18.49 474.39 16.72C472.88 14.77 462.41 0.48 461.35 0.04C460.91 -0.05 457.89 0.04 457.36 0.04C457.72 1.64 458.34 3.23 458.96 4.83L462.42 14.14C463.04 15.56 463.66 17.42 464.11 18.84C461.54 18.75 458.96 18.84 456.3 18.84C443.17 18.84 446.81 21.41 441.48 16.8C438.56 14.23 437.67 12.36 434.74 14.32C438.29 20.44 438.47 25.32 435.01 31.09H435ZM433.58 22.04C434.91 21.86 435.36 23.9 433.84 24.17L431.71 24.44C430.38 24.71 429.84 22.58 431.35 22.31L433.57 22.04H433.58ZM245.14 164C244.43 165.42 242.48 164.35 243.1 163.11L243.63 161.96C244.34 160.63 246.29 161.69 245.58 162.94L245.14 164.01V164ZM248.51 156.99C247.8 158.32 245.85 157.35 246.56 156.01L247.54 154.06C248.16 152.73 250.11 153.79 249.49 155.03L248.51 156.98V156.99ZM252.5 149.18C251.88 150.42 249.84 149.54 250.55 148.2L251.61 146.25C252.23 145.01 254.18 145.9 253.56 147.32L252.49 149.18H252.5ZM256.76 141.55C255.96 142.88 254.1 141.64 254.81 140.49L255.96 138.54C256.76 137.21 258.53 138.45 257.82 139.6L256.76 141.55ZM261.19 134.01C260.39 135.25 258.53 134.1 259.33 132.86L260.48 131C261.19 129.76 263.14 130.91 262.34 132.15L261.19 134.01ZM265.9 126.56C265.19 127.71 263.24 126.65 264.04 125.41L265.28 123.55C265.99 122.4 267.94 123.46 267.05 124.79L265.9 126.56ZM270.78 119.37C269.89 120.52 268.21 119.19 269.01 118.04L270.25 116.27C271.14 115.12 272.91 116.45 272.02 117.6L270.78 119.37ZM275.92 112.27C275.03 113.42 273.35 112.09 274.23 110.94L275.56 109.17C276.45 108.02 278.13 109.44 277.24 110.5L275.91 112.27H275.92ZM281.07 105.62C280.27 106.06 279.3 105.35 279.38 104.47C279.29 103.94 279.73 103.23 280.36 103.14L281.07 102.25C281.96 101.19 283.73 102.52 282.76 103.67L282.58 103.94L282.93 104.03C284.35 104.56 283.46 106.6 282.13 106.07L281.06 105.63L281.07 105.62ZM287.01 98.7C285.94 99.77 284.44 98.26 285.41 97.19L286.83 95.59C287.89 94.44 289.4 96.03 288.43 97.01L287.01 98.7ZM292.96 92.22C291.98 93.28 290.3 91.78 291.36 90.71L292.87 89.11C293.85 88.05 295.44 89.55 294.47 90.62L292.96 92.22ZM299.08 86.01C297.93 86.99 296.51 85.3 297.57 84.41L299.08 82.9C300.23 81.83 301.65 83.52 300.68 84.5L299.08 86.01ZM305.47 79.98C304.4 80.96 302.9 79.36 303.96 78.38L305.65 76.87C306.71 75.89 308.22 77.58 307.07 78.56L305.47 79.98ZM312.03 74.3C311.05 75.19 309.55 73.59 310.7 72.62L312.39 71.2C313.63 70.22 314.87 72.09 313.72 72.89L312.03 74.31V74.3ZM318.95 68.8C317.71 69.69 316.47 67.91 317.62 67.11L319.31 65.78C320.55 64.89 321.79 66.67 320.64 67.47L318.95 68.8ZM325.96 63.65C324.9 64.45 323.48 62.76 324.72 61.88C325.34 61.44 325.96 60.99 326.58 60.64C327.64 59.84 329.06 61.53 327.82 62.41C327.2 62.85 326.58 63.21 325.96 63.65ZM333.24 58.77C332 59.57 330.93 57.62 332.09 56.91L333.95 55.76C335.19 54.96 336.35 56.91 335.1 57.62L333.24 58.77ZM340.69 54.25C339.54 54.96 338.3 53.1 339.63 52.3L341.58 51.24C342.73 50.53 343.97 52.39 342.64 53.19L340.69 54.25ZM348.41 49.99C346.99 50.7 346.1 48.66 347.34 48.04L349.29 46.98C350.62 46.36 351.6 48.4 350.36 49.02L348.41 50V49.99ZM356.22 46.09C354.98 46.71 353.91 44.76 355.24 44.05C355.95 43.78 356.57 43.43 357.28 43.16C358.52 42.54 359.5 44.49 358.17 45.11C357.55 45.46 356.84 45.73 356.22 46.09ZM364.2 42.45C362.78 42.98 362.07 40.94 363.31 40.41L365.35 39.52C366.77 38.99 367.48 41.11 366.15 41.56L364.2 42.45ZM372.27 39.16C370.94 39.69 370.14 37.65 371.47 37.12L373.6 36.32C374.84 35.79 375.73 37.83 374.31 38.36L372.27 39.16ZM380.52 36.15C379.19 36.59 378.39 34.55 379.81 34.11C380.52 33.84 381.23 33.58 381.94 33.4C383.18 32.87 383.98 34.91 382.56 35.44C381.85 35.71 381.23 35.88 380.52 36.15ZM388.86 33.49C387.35 33.84 386.91 31.72 388.24 31.36L390.37 30.74C391.79 30.39 392.32 32.51 390.9 32.87L388.86 33.49ZM397.29 31.09C395.87 31.45 395.34 29.32 396.76 28.96L398.89 28.43C400.22 28.08 400.84 30.2 399.42 30.56L397.29 31.09ZM405.81 29.05C404.48 29.4 403.77 27.28 405.28 26.83L407.5 26.39C409.01 26.12 409.28 28.34 407.94 28.52L405.81 29.05ZM414.33 27.19C412.91 27.46 412.56 25.33 413.98 25.06L416.11 24.71C417.62 24.44 417.97 26.57 416.55 26.84L414.33 27.19ZM423.02 25.68C421.6 25.95 421.16 23.82 422.67 23.55L424.8 23.2C426.22 22.93 426.66 25.15 425.15 25.42L423.02 25.69V25.68ZM127.58 111.56C125.09 113.87 125.81 113.6 120.04 111.83C114.98 110.32 117.38 109.7 112.85 112.36C108.77 114.67 102.11 117.15 99.01 119.01C100.16 121.58 110.1 130.01 112.5 133.47C111.61 133.91 110.9 134.18 109.93 134.62C108.42 135.42 108.78 135.42 107 134.35C103.1 132.13 90.59 124.94 88.1 123.97C84.82 125.39 76.12 129.83 73.11 129.65C71.69 129.56 69.38 129.12 69.83 127.34C70.98 122.99 78.79 120.6 83.85 118.38C85.89 117.49 85.36 117.67 85.8 115.45C86.33 112.97 89.71 95.67 90.5 94.78C90.77 94.51 93.6 93.27 94.14 93.09C94.41 94.69 94.59 96.37 94.67 98.06L95.56 108C95.56 109.51 95.83 111.46 96.09 112.88C98.4 111.81 100.7 110.75 103.1 109.69C114.99 104.01 112.77 107.83 115.61 101.44C117.21 97.89 117.12 95.76 120.67 96.29C120.05 103.39 122 107.82 127.59 111.55L127.58 111.56ZM125.01 102.78C123.68 103.22 124.21 105.26 125.72 104.91L127.76 104.2C129 103.84 128.56 101.72 127.05 102.07L125.01 102.78ZM356.13 150.51C357.28 151.49 358.52 149.71 357.46 148.83L356.57 148.12C355.33 147.14 354.09 148.92 355.15 149.81L356.13 150.52V150.51ZM350 145.63C351.15 146.52 352.48 144.83 351.42 143.94L349.65 142.52C348.5 141.63 347.17 143.41 348.32 144.29L350.01 145.62L350 145.63ZM343.08 140.31C344.14 141.2 345.56 139.51 344.41 138.54L342.64 137.21C341.49 136.41 340.07 138.1 341.31 138.99L343.08 140.32V140.31ZM335.99 135.16C337.23 136.05 338.39 134.1 337.23 133.39L335.37 132.15C334.13 131.26 332.97 133.22 334.13 133.92L335.99 135.16ZM328.71 130.28C329.95 131.08 331.11 129.22 329.95 128.42L328.09 127.27C326.85 126.47 325.61 128.25 326.85 129.05L328.71 130.29V130.28ZM321.35 125.58C322.5 126.29 323.74 124.52 322.41 123.72L320.55 122.57C319.4 121.86 318.16 123.63 319.4 124.43L321.35 125.58ZM313.72 121.14C315.14 121.85 316.03 119.9 314.87 119.19L312.92 118.13C311.59 117.42 310.61 119.37 311.86 120.08L313.72 121.15V121.14ZM306.09 116.97C307.42 117.59 308.31 115.64 307.07 115.02L305.12 113.95C303.79 113.33 302.81 115.28 304.14 115.9L306.09 116.96V116.97ZM298.19 113.07C299.52 113.69 300.5 111.74 299.16 111.03L297.21 110.14C295.97 109.52 294.9 111.38 296.23 112.09L298.18 113.07H298.19ZM290.3 109.43C291.72 109.96 292.43 107.92 291.1 107.39L289.06 106.5C287.73 105.97 286.93 108.01 288.26 108.54L290.3 109.43ZM273.97 103.04C275.48 103.48 275.92 101.35 274.68 101L272.55 100.29C271.04 99.85 270.6 101.98 271.84 102.33L273.97 103.04ZM265.63 100.38C266.96 100.82 267.58 98.69 266.25 98.25L264.12 97.63C262.7 97.27 262.08 99.4 263.5 99.76L265.63 100.38ZM257.2 98.08C258.44 98.43 259.24 96.39 257.73 95.95L255.6 95.42C254 95.07 253.74 97.28 255.07 97.55L257.2 98.08ZM248.69 96.04C250.11 96.31 250.46 94.18 249.13 93.91L246.91 93.47C245.49 93.2 245.05 95.33 246.46 95.6L248.68 96.04H248.69ZM240.08 94.44C241.41 94.71 241.94 92.58 240.43 92.22C239.72 92.13 238.92 91.95 238.21 91.87C236.88 91.6 236.35 93.73 237.86 94.09C238.57 94.18 239.37 94.27 240.08 94.45V94.44ZM231.38 93.11C232.89 93.29 233.07 91.07 231.65 90.98L229.52 90.71C228.01 90.53 227.83 92.75 229.25 92.84L231.38 93.11ZM222.69 92.22C224.11 92.31 224.38 90.18 222.87 90L220.65 89.82C219.32 89.64 218.96 91.86 220.56 92.04L222.69 92.22ZM214 91.6C215.51 91.69 215.42 89.47 214.09 89.47L211.87 89.38C210.36 89.29 210.36 91.51 211.78 91.51L214 91.6ZM205.21 91.42C206.63 91.42 206.72 89.2 205.21 89.2H202.99C201.66 89.2 201.48 91.42 202.99 91.42H205.21ZM196.43 91.6C198.03 91.42 197.76 89.29 196.34 89.38L194.21 89.47C192.7 89.56 192.88 91.78 194.3 91.69L196.43 91.6ZM187.73 92.04C189.15 91.95 188.97 89.73 187.55 89.82L185.33 90C183.91 90.09 184.09 92.31 185.51 92.22L187.73 92.04ZM179.04 92.84C180.37 92.75 180.28 90.53 178.77 90.71C178.06 90.8 177.26 90.89 176.55 90.98C175.22 91.07 175.31 93.29 176.82 93.11C177.53 93.02 178.24 92.93 179.04 92.84ZM170.34 93.99C171.85 93.72 171.32 91.6 169.99 91.86L167.77 92.13C166.35 92.49 166.79 94.62 168.12 94.35L170.34 93.99ZM161.65 95.5C163.07 95.23 162.72 93.02 161.3 93.28L159.08 93.72C157.75 93.99 158.1 96.12 159.52 95.85L161.65 95.49V95.5ZM153.13 97.19C154.46 97.01 154.11 94.79 152.6 95.06L150.47 95.59C148.96 95.95 149.67 98.07 151 97.72L153.13 97.19ZM144.61 99.32C146.03 98.88 145.41 96.75 143.99 97.19L141.86 97.72C140.44 98.07 141.06 100.2 142.48 99.85L144.61 99.32ZM136.1 101.63C137.52 101.28 136.99 99.06 135.48 99.5L133.44 100.12C132.11 100.47 132.55 102.6 134.06 102.25L136.1 101.63ZM533.39 91.07C532.06 91.51 532.59 93.55 534.1 93.2L536.14 92.49C537.38 92.13 537.03 90.01 535.43 90.45L533.39 91.07ZM764.51 138.89C765.66 139.78 766.99 138 765.84 137.2L764.95 136.4C763.71 135.42 762.47 137.29 763.53 138.09L764.51 138.89ZM758.39 134.01C759.55 134.9 760.87 133.12 759.81 132.24L758.03 130.91C756.88 130.02 755.54 131.71 756.7 132.6L758.38 134.02L758.39 134.01ZM751.47 128.6C752.53 129.49 753.95 127.8 752.8 126.91L751.03 125.58C749.88 124.69 748.46 126.38 749.7 127.35L751.47 128.59V128.6ZM744.37 123.54C745.61 124.34 746.77 122.48 745.61 121.68L743.84 120.44C742.51 119.64 741.35 121.51 742.6 122.3L744.37 123.54ZM737.1 118.57C738.34 119.37 739.49 117.51 738.34 116.71L736.48 115.56C735.24 114.76 734.08 116.63 735.24 117.42L737.1 118.57ZM729.73 113.87C730.89 114.67 732.13 112.89 730.89 112.01L728.94 110.86C727.88 110.15 726.55 111.92 727.88 112.81L729.74 113.87H729.73ZM722.19 109.43C723.52 110.14 724.41 108.19 723.26 107.57L721.31 106.42C719.98 105.8 719 107.75 720.25 108.37L722.2 109.44L722.19 109.43ZM714.47 105.26C715.8 105.88 716.78 104.02 715.44 103.31L713.49 102.33C712.16 101.62 711.27 103.66 712.51 104.28L714.46 105.25L714.47 105.26ZM706.57 101.36C707.9 101.98 708.88 100.03 707.55 99.41L705.6 98.43C704.36 97.81 703.3 99.76 704.62 100.38L706.57 101.36ZM698.68 97.72C700.1 98.25 700.81 96.21 699.48 95.68L697.53 94.79C696.11 94.26 695.31 96.39 696.64 96.83L698.68 97.72ZM690.52 94.44C691.85 94.97 692.73 92.93 691.32 92.31L689.28 91.6C687.95 91.07 687.15 93.11 688.48 93.64L690.52 94.44ZM682.35 91.42C683.86 91.86 684.3 89.65 683.06 89.29L680.93 88.58C679.42 88.14 678.98 90.27 680.22 90.71L682.35 91.42ZM674.02 88.67C675.44 89.11 675.97 86.98 674.64 86.63L672.51 86.01C671.09 85.57 670.47 87.7 671.89 88.05L674.02 88.67ZM665.59 86.37C666.83 86.72 667.63 84.68 666.12 84.24L663.99 83.71C662.39 83.36 662.12 85.57 663.46 85.84L665.59 86.37ZM657.07 84.41C658.49 84.68 658.84 82.46 657.51 82.19L655.29 81.75C653.87 81.48 653.51 83.61 654.94 83.88L657.07 84.41ZM648.46 82.73C649.79 83 650.33 80.87 648.81 80.6C648.1 80.42 647.39 80.33 646.59 80.16C645.35 79.98 644.73 82.11 646.24 82.38C647.04 82.47 647.75 82.65 648.46 82.74V82.73ZM639.77 81.4C641.28 81.58 641.46 79.45 640.04 79.27L637.91 79C636.4 78.82 636.22 81.04 637.64 81.13L639.77 81.4ZM631.07 80.51C632.49 80.69 632.75 78.47 631.25 78.29L629.03 78.11C627.7 78.02 627.34 80.15 628.94 80.33L631.07 80.51ZM622.38 79.98C623.89 79.98 623.8 77.76 622.47 77.76L620.25 77.67C618.74 77.67 618.74 79.8 620.16 79.89L622.38 79.98ZM613.59 79.71C615.01 79.71 615.1 77.58 613.59 77.49H611.37C610.04 77.49 609.86 79.71 611.37 79.71H613.59ZM604.81 79.89C606.41 79.8 606.14 77.58 604.72 77.67L602.59 77.76C601.08 77.85 601.26 80.07 602.68 79.98L604.81 79.89ZM596.12 80.33C597.54 80.24 597.45 78.02 595.94 78.2L593.72 78.38C592.3 78.47 592.48 80.6 593.9 80.51L596.12 80.33ZM587.42 81.22C588.75 81.04 588.66 78.82 587.15 79C586.44 79.09 585.64 79.18 584.93 79.27C583.6 79.36 583.69 81.58 585.2 81.4C585.91 81.31 586.62 81.22 587.42 81.22ZM578.73 82.28C580.24 82.01 579.7 79.89 578.38 80.15L576.16 80.5C574.74 80.77 575.18 82.9 576.51 82.63L578.73 82.27V82.28ZM570.03 83.79C571.45 83.52 571.1 81.4 569.68 81.66L567.47 82.01C566.14 82.28 566.49 84.49 567.91 84.23L570.04 83.79H570.03ZM561.52 85.57C562.85 85.3 562.5 83.09 560.99 83.44L558.86 83.88C557.35 84.32 558.06 86.37 559.39 86.01L561.52 85.57ZM553 87.61C554.42 87.17 553.8 85.13 552.47 85.48L550.25 86.01C548.83 86.45 549.45 88.49 550.87 88.14L553 87.61ZM544.57 89.91C545.9 89.56 545.37 87.43 543.95 87.78L541.82 88.4C540.49 88.75 540.93 90.97 542.44 90.53L544.57 89.91Z" fill="#FF8800"/>
</g>
<defs>
<clipPath id="clip0_76_590">
<rect width="800" height="513" fill="white"/>
</clipPath>
</defs>
</svg>
