<svg width="814" height="685" viewBox="0 0 814 685" fill="none" xmlns="http://www.w3.org/2000/svg">
<g clip-path="url(#clip0_76_378)">
<path d="M443.362 50.9683C443.362 53.443 442.343 55.707 440.69 57.3568C439.055 59.0066 436.788 60.0246 434.309 60.0246H240.693C235.718 60.0246 231.64 55.9528 231.64 50.9858C231.64 48.5111 232.659 46.247 234.312 44.5972C235.947 42.9474 238.214 41.9295 240.693 41.9295H249.852C253.473 33.5401 261.805 27.678 271.527 27.678C278.066 27.678 283.973 30.3458 288.262 34.6282C293.958 24.9751 304.487 18.4813 316.529 18.4813C319.834 18.4813 323.033 18.9902 326.039 19.8853C332.333 8.05593 344.796 0 359.141 0C376.386 0 390.871 11.6188 395.248 27.4323C398.43 25.8527 401.999 24.94 405.813 24.94C416.572 24.94 425.625 32.1009 428.49 41.9119H434.327C439.301 41.9119 443.38 45.9838 443.38 50.9507L443.362 50.9683Z" fill="#FEDCCA"/>
<path d="M672.4 89.4051C672.4 91.2304 671.662 92.8977 670.449 94.0912C669.254 95.3022 667.584 96.0394 665.755 96.0394H523.365C519.708 96.0394 516.72 93.0557 516.72 89.3875C516.72 87.5622 517.458 85.8948 518.671 84.7014C519.866 83.4904 521.536 82.7532 523.365 82.7532H530.097C532.752 76.5928 538.887 72.2752 546.042 72.2752C550.858 72.2752 555.2 74.2234 558.347 77.3826C562.548 70.2744 570.283 65.5005 579.143 65.5005C581.587 65.5005 583.925 65.8691 586.14 66.536C590.78 57.8307 599.922 51.916 610.487 51.916C623.161 51.916 633.832 60.4634 637.049 72.0822C639.387 70.9238 642.024 70.2569 644.819 70.2569C652.729 70.2569 659.392 75.5222 661.484 82.7357H665.773C669.429 82.7357 672.418 85.7193 672.418 89.3875L672.4 89.4051Z" fill="#FEDCCA"/>
<path d="M770.369 360.92C767.978 361.394 765.64 362.201 763.407 363.324L756.024 355.128L747.041 363.219L754.125 371.064C752.491 373.206 751.207 375.557 750.293 378.015L737.953 377.383L737.32 389.44L748.711 390.037C749.028 393.424 749.959 396.742 751.541 399.848L743.332 407.237L751.436 416.206L759.294 409.133C761.86 411.081 764.69 412.502 767.661 413.433L767.134 423.665L779.211 424.297L779.721 414.415C783.272 413.906 786.752 412.678 789.934 410.73L797.001 418.575L805.984 410.484L798.583 402.288C799.937 400.199 800.974 397.953 801.712 395.636L813.385 396.25L814.017 384.192L802.696 383.613C802.187 380.068 800.956 376.593 799.005 373.416L806.863 366.361L798.759 357.392L790.549 364.763C788.036 363.131 785.311 361.938 782.481 361.218L783.078 349.915L771.001 349.283L770.404 360.937L770.369 360.92ZM783.992 380.103C788.088 384.631 787.719 391.652 783.184 395.741C778.648 399.83 771.617 399.462 767.521 394.934C763.425 390.406 763.794 383.385 768.329 379.296C772.865 375.206 779.896 375.575 783.992 380.103Z" fill="#FEDCCA"/>
<path d="M83.7994 161.364C81.4087 161.838 79.0707 162.646 76.8381 163.769L69.4549 155.573L60.472 163.664L67.5563 171.509C65.9215 173.65 64.6382 176.002 63.7241 178.459L51.3836 177.827L50.7507 189.885L62.142 190.482C62.4584 193.869 63.3901 197.186 64.9722 200.293L56.7628 207.682L64.8667 216.65L72.7246 209.577C75.2911 211.525 78.1214 212.947 81.0923 213.877L80.5649 224.109L92.6417 224.741L93.1515 214.86C96.7025 214.351 100.183 213.122 103.365 211.174L110.432 219.02L119.415 210.929L112.014 202.732C113.367 200.644 114.405 198.397 115.143 196.08L126.815 196.695L127.448 184.637L116.127 184.058C115.618 180.513 114.387 177.037 112.436 173.861L120.294 166.805L112.19 157.837L103.98 165.208C101.466 163.576 98.7417 162.382 95.9114 161.663L96.5091 150.36L84.4323 149.728L83.8346 161.382L83.7994 161.364ZM97.4232 180.548C101.519 185.076 101.15 192.096 96.6146 196.186C92.0792 200.275 85.0475 199.906 80.9516 195.378C76.8557 190.85 77.2248 183.83 81.7603 179.74C86.2957 175.651 93.3273 176.02 97.4232 180.548Z" fill="#FEDCCA"/>
<path d="M757.36 297.42C756.059 297.683 754.776 298.122 753.563 298.736L749.52 294.261L744.615 298.684L748.482 302.966C747.586 304.142 746.883 305.423 746.391 306.757L739.64 306.406L739.289 313.005L745.512 313.321C745.687 315.164 746.197 316.989 747.059 318.692L742.576 322.729L747.006 327.625L751.295 323.764C752.701 324.835 754.248 325.607 755.866 326.116L755.567 331.697L762.177 332.031L762.458 326.625C764.409 326.344 766.308 325.677 768.03 324.607L771.898 328.889L776.802 324.466L772.759 319.991C773.498 318.85 774.078 317.621 774.464 316.358L780.846 316.691L781.197 310.092L775.009 309.776C774.728 307.828 774.06 305.932 772.988 304.212L777.277 300.351L772.847 295.454L768.364 299.491C766.993 298.596 765.499 297.947 763.952 297.56L764.269 291.383L757.659 291.031L757.325 297.403L757.36 297.42ZM764.796 307.916C767.028 310.39 766.835 314.234 764.356 316.463C761.878 318.692 758.028 318.499 755.795 316.024C753.563 313.549 753.756 309.706 756.235 307.477C758.714 305.248 762.563 305.441 764.796 307.916Z" fill="#FEDCCA"/>
<path d="M37.8828 240.713C36.582 240.976 35.2987 241.415 34.0857 242.029L30.0426 237.553L25.138 241.976L29.0054 246.259C28.1089 247.435 27.4057 248.716 26.9135 250.05L20.1631 249.699L19.8115 256.298L26.0345 256.614C26.2103 258.457 26.7201 260.282 27.5815 261.984L23.0988 266.021L27.5287 270.918L31.818 267.057C33.2244 268.127 34.7713 268.9 36.3886 269.409L36.0898 274.99L42.6995 275.323L42.9808 269.918C44.932 269.637 46.8306 268.97 48.5533 267.899L52.4207 272.182L57.3253 267.759L53.2821 263.283C54.0204 262.142 54.6006 260.914 54.9873 259.65L61.3685 259.984L61.7201 253.384L55.5322 253.069C55.251 251.12 54.583 249.225 53.5106 247.505L57.7999 243.644L53.37 238.747L48.8873 242.784C47.5162 241.888 46.0219 241.239 44.475 240.853L44.7914 234.675L38.1817 234.324L37.8477 240.695L37.8828 240.713ZM45.3364 251.191C47.5689 253.665 47.3755 257.509 44.8969 259.738C42.4182 261.967 38.5684 261.774 36.3359 259.299C34.1033 256.824 34.2967 252.981 36.7753 250.752C39.254 248.523 43.1038 248.716 45.3364 251.191Z" fill="#FEDCCA"/>
<path d="M385.65 684.982C598.639 684.982 771.3 672.206 771.3 656.444C771.3 640.683 598.639 627.906 385.65 627.906C172.661 627.906 0 640.683 0 656.444C0 672.206 172.661 684.982 385.65 684.982Z" fill="#FEDCCA"/>
<path d="M759.558 226.303C765.288 226.303 769.965 230.972 769.965 236.694C769.965 242.415 765.288 247.084 759.558 247.084C753.827 247.084 749.151 242.415 749.151 236.694C749.151 230.972 753.827 226.303 759.558 226.303ZM759.558 243.819C763.495 243.819 766.695 240.625 766.695 236.694C766.695 232.762 763.495 229.568 759.558 229.568C755.62 229.568 752.421 232.762 752.421 236.694C752.421 240.625 755.62 243.819 759.558 243.819Z" fill="#F5992F"/>
<path d="M713.711 195.958C719.442 195.958 724.118 200.626 724.118 206.348C724.118 212.069 719.442 216.738 713.711 216.738C707.981 216.738 703.304 212.069 703.304 206.348C703.304 200.626 707.981 195.958 713.711 195.958ZM713.711 213.473C717.649 213.473 720.848 210.279 720.848 206.348C720.848 202.416 717.649 199.222 713.711 199.222C709.774 199.222 706.574 202.416 706.574 206.348C706.574 210.279 709.774 213.473 713.711 213.473Z" fill="#E60049"/>
<path d="M709.123 167.139C710.02 167.139 710.758 167.876 710.758 168.771V175.967C710.758 176.862 710.02 177.599 709.123 177.599C708.227 177.599 707.488 176.862 707.488 175.967V168.771C707.488 167.876 708.227 167.139 709.123 167.139Z" fill="#F5992F"/>
<path d="M709.123 154.555C710.02 154.555 710.758 155.292 710.758 156.187V163.383C710.758 164.278 710.02 165.015 709.123 165.015C708.227 165.015 707.488 164.278 707.488 163.383V156.187C707.488 155.292 708.227 154.555 709.123 154.555Z" fill="#F5992F"/>
<path d="M699.015 164.436H705.484C706.381 164.436 707.119 165.173 707.119 166.068C707.119 166.963 706.381 167.701 705.484 167.701H699.015C698.119 167.701 697.38 166.963 697.38 166.068C697.38 165.173 698.119 164.436 699.015 164.436Z" fill="#F5992F"/>
<path d="M712.762 164.436H719.231C720.128 164.436 720.866 165.173 720.866 166.068C720.866 166.963 720.128 167.701 719.231 167.701H712.762C711.866 167.701 711.127 166.963 711.127 166.068C711.127 165.173 711.866 164.436 712.762 164.436Z" fill="#F5992F"/>
<path d="M765.482 194.273C766.378 194.273 767.116 195.01 767.116 195.905V203.101C767.116 203.996 766.378 204.733 765.482 204.733C764.585 204.733 763.847 203.996 763.847 203.101V195.905C763.847 195.01 764.585 194.273 765.482 194.273Z" fill="#F5992F"/>
<path d="M765.482 181.689C766.378 181.689 767.116 182.426 767.116 183.321V190.499C767.116 191.394 766.378 192.132 765.482 192.132C764.585 192.132 763.847 191.394 763.847 190.499V183.321C763.847 182.426 764.585 181.689 765.482 181.689Z" fill="#F5992F"/>
<path d="M755.391 191.57H761.86C762.757 191.57 763.495 192.307 763.495 193.202C763.495 194.097 762.757 194.835 761.86 194.835H755.391C754.495 194.835 753.756 194.097 753.756 193.202C753.756 192.307 754.495 191.57 755.391 191.57Z" fill="#F5992F"/>
<path d="M769.121 191.57H775.59C776.486 191.57 777.225 192.307 777.225 193.202C777.225 194.097 776.486 194.835 775.59 194.835H769.121C768.224 194.835 767.486 194.097 767.486 193.202C767.486 192.307 768.224 191.57 769.121 191.57Z" fill="#F5992F"/>
<path d="M140.703 83.4028C134.972 83.4028 130.296 78.7342 130.296 73.0125C130.296 67.2909 134.972 62.6223 140.703 62.6223C146.434 62.6223 151.11 67.2909 151.11 73.0125C151.11 78.7342 146.434 83.4028 140.703 83.4028ZM140.703 80.1383C144.641 80.1383 147.84 76.944 147.84 73.0125C147.84 69.0811 144.641 65.8868 140.703 65.8868C136.765 65.8868 133.566 69.0811 133.566 73.0125C133.566 76.944 136.765 80.1383 140.703 80.1383Z" fill="#F5992F"/>
<path d="M172.82 114.117C167.089 114.117 162.413 109.449 162.413 103.727C162.413 98.0052 167.089 93.3367 172.82 93.3367C178.551 93.3367 183.227 98.0052 183.227 103.727C183.227 109.449 178.551 114.117 172.82 114.117ZM172.82 110.853C176.758 110.853 179.957 107.658 179.957 103.727C179.957 99.7955 176.758 96.6012 172.82 96.6012C168.882 96.6012 165.683 99.7955 165.683 103.727C165.683 107.658 168.882 110.853 172.82 110.853Z" fill="#E60049"/>
<path d="M205.535 73.9953C205.535 73.1002 204.796 72.363 203.9 72.363H196.692C195.796 72.363 195.058 73.1002 195.058 73.9953C195.058 74.8904 195.796 75.6275 196.692 75.6275H203.9C204.796 75.6275 205.535 74.8904 205.535 73.9953Z" fill="#F5992F"/>
<path d="M218.139 73.9953C218.139 73.1002 217.401 72.363 216.504 72.363H209.314C208.418 72.363 207.679 73.1002 207.679 73.9953C207.679 74.8904 208.418 75.6275 209.314 75.6275H216.504C217.401 75.6275 218.139 74.8904 218.139 73.9953Z" fill="#F5992F"/>
<path d="M208.242 84.0696V77.6108C208.242 76.7157 207.504 75.9785 206.607 75.9785C205.71 75.9785 204.972 76.7157 204.972 77.6108V84.0696C204.972 84.9647 205.71 85.7018 206.607 85.7018C207.504 85.7018 208.242 84.9647 208.242 84.0696Z" fill="#F5992F"/>
<path d="M208.242 70.3623V63.9035C208.242 63.0084 207.504 62.2712 206.607 62.2712C205.71 62.2712 204.972 63.0084 204.972 63.9035V70.3623C204.972 71.2574 205.71 71.9945 206.607 71.9945C207.504 71.9945 208.242 71.2574 208.242 70.3623Z" fill="#F5992F"/>
<path d="M116.479 111.747C116.479 110.852 115.741 110.115 114.844 110.115H107.637C106.74 110.115 106.002 110.852 106.002 111.747C106.002 112.643 106.74 113.38 107.637 113.38H114.844C115.741 113.38 116.479 112.643 116.479 111.747Z" fill="#F5992F"/>
<path d="M129.083 111.747C129.083 110.852 128.345 110.115 127.448 110.115H120.259C119.362 110.115 118.624 110.852 118.624 111.747C118.624 112.643 119.362 113.38 120.259 113.38H127.448C128.345 113.38 129.083 112.643 129.083 111.747Z" fill="#F5992F"/>
<path d="M119.186 121.839V115.381C119.186 114.485 118.448 113.748 117.551 113.748C116.655 113.748 115.917 114.485 115.917 115.381V121.839C115.917 122.734 116.655 123.472 117.551 123.472C118.448 123.472 119.186 122.734 119.186 121.839Z" fill="#F5992F"/>
<path d="M119.186 108.114V101.656C119.186 100.761 118.448 100.023 117.551 100.023C116.655 100.023 115.917 100.761 115.917 101.656V108.114C115.917 109.01 116.655 109.747 117.551 109.747C118.448 109.747 119.186 109.01 119.186 108.114Z" fill="#F5992F"/>
<path d="M446.615 619.306C476.288 596.385 505.926 570.672 523.558 551.349C546.587 526.093 558.822 504.259 559.947 486.445C560.017 485.269 559.121 484.251 557.943 484.163C556.765 484.093 555.746 484.988 555.675 486.164C553.706 517.3 514.452 562.652 442.062 617.428L446.632 619.289L446.615 619.306Z" fill="#F2ABAB"/>
<path d="M542.192 527.128C542.192 527.128 554.111 540.502 576.858 518.651C576.858 518.651 552.792 503.347 542.192 527.128Z" fill="#FEDCCA"/>
<path d="M531.064 539.01C531.064 539.01 545.11 527.865 524.525 503.979C524.525 503.979 507.878 527.128 531.064 539.01Z" fill="#FEDCCA"/>
<path d="M555.042 499.45C555.042 499.45 572.006 493.623 560.562 464.243C560.562 464.243 537.147 480.513 555.042 499.45Z" fill="#FEDCCA"/>
<path d="M509.389 563.582C509.389 563.582 516.087 580.203 544.882 567.32C544.882 567.32 527.426 544.785 509.389 563.582Z" fill="#FEDCCA"/>
<path d="M496.205 573.955C496.205 573.955 511.974 565.407 495.818 538.326C495.818 538.326 475.409 558.246 496.205 573.955Z" fill="#FEDCCA"/>
<path d="M479.575 589.961C479.575 589.961 485.957 606.705 514.98 594.366C514.98 594.366 497.946 571.497 479.575 589.961Z" fill="#FEDCCA"/>
<path d="M155.434 423.314C134.093 392.512 113.614 359.059 102.662 335.313C88.3526 304.3 83.2898 279.781 87.6143 262.476C87.8955 261.335 89.0733 260.633 90.216 260.914C91.3586 261.195 92.0618 262.371 91.7805 263.511C84.2215 293.787 107.936 348.862 160.357 422.91L155.434 423.314Z" fill="#F2ABAB"/>
<path d="M92.2024 306.6C92.2024 306.6 76.7855 315.761 61.7202 288.066C61.7202 288.066 89.3018 280.729 92.2024 306.6Z" fill="#FEDCCA"/>
<path d="M99.2339 321.29C99.2339 321.29 89.2139 306.424 116.075 289.873C116.075 289.873 124.935 316.955 99.2339 321.29Z" fill="#FEDCCA"/>
<path d="M88.3349 276.341C88.3349 276.341 73.9376 265.67 93.7141 241.116C93.7141 241.116 111.117 263.705 88.3349 276.341Z" fill="#FEDCCA"/>
<path d="M112.454 351.249C112.454 351.249 101.045 365.079 77.4888 344.106C77.4888 344.106 100.957 327.889 112.454 351.249Z" fill="#FEDCCA"/>
<path d="M121.876 365.115C121.876 365.115 109.447 352.214 133.021 331.259C133.021 331.259 146.451 356.409 121.876 365.115Z" fill="#FEDCCA"/>
<path d="M132.898 385.386C132.898 385.386 121.753 399.427 97.8101 378.91C97.8101 378.91 120.962 362.254 132.898 385.386Z" fill="#FEDCCA"/>
<path d="M561.107 114.17C533.719 113.538 526.441 138.706 506.331 131.651C486.22 124.577 466.707 132.353 464.756 151.044C462.822 169.736 462.453 183.602 439.688 185.093C416.923 186.568 398.623 208.77 411.298 223.969C414.445 227.76 417.873 231.849 421.23 235.851C422.144 236.939 423.058 238.045 423.955 239.116C424.166 239.361 424.377 239.625 424.57 239.87C438.089 256 461.697 259.721 479.171 247.979C486.238 243.223 491.529 236.518 491.775 227.076C492.549 197.467 516.65 215.983 533.367 203.592C552.634 189.323 542.754 168.56 558.171 159.486C579.618 146.867 588.478 114.802 561.089 114.17H561.107Z" fill="#F2ABAB"/>
<path d="M539.872 142.953L421.213 235.851C422.127 236.939 423.041 238.045 423.937 239.116L542.491 146.288C543.423 145.569 543.581 144.235 542.86 143.305C542.139 142.374 540.803 142.216 539.872 142.936V142.953Z" fill="#90C3EF"/>
<path d="M470.698 61.534C446.702 74.7149 453.066 100.129 432.112 104.113C411.157 108.079 398.184 124.577 405.919 141.725C413.654 158.872 420.298 171.053 401.366 183.742C382.433 196.431 377.757 224.811 396.356 231.604C400.979 233.306 406.007 235.131 410.929 236.904C412.265 237.396 413.618 237.869 414.937 238.361C415.236 238.466 415.552 238.589 415.851 238.694C435.645 245.873 457.935 237.238 467.164 218.335C470.891 210.683 472.086 202.241 467.551 193.939C453.33 167.946 483.478 171.877 491.722 152.782C501.215 130.773 482.23 117.768 491.002 102.2C503.201 80.5418 494.746 48.3707 470.733 61.5516L470.698 61.534Z" fill="#FEDCCA"/>
<path d="M466.813 97.075L410.929 236.904C412.265 237.396 413.618 237.87 414.937 238.361L470.768 98.6546C471.207 97.5664 470.68 96.3203 469.59 95.8991C468.5 95.4603 467.252 95.9868 466.83 97.0926L466.813 97.075Z" fill="#F2ABAB"/>
<path d="M113.016 426.578C138.224 437.284 134.462 463.207 155.716 465.05C176.951 466.893 191.524 482.005 185.582 499.819C179.623 517.651 174.244 530.445 194.372 541.152C214.5 551.858 222.024 579.624 204.181 588.259C199.751 590.417 194.935 592.734 190.223 594.998C188.94 595.613 187.657 596.244 186.391 596.841C186.092 596.982 185.811 597.122 185.512 597.262C166.544 606.389 143.498 600.07 132.406 582.186C127.923 574.955 125.884 566.671 129.558 557.948C141.072 530.656 111.487 537.606 101.361 519.423C89.6885 498.485 107.268 483.637 96.9662 469.034C82.6393 448.71 87.8075 415.855 113.016 426.561V426.578Z" fill="#F2ABAB"/>
<path d="M120.469 461.54L190.206 595.016C188.922 595.63 187.639 596.262 186.374 596.859L116.69 463.506C116.145 462.47 116.549 461.189 117.587 460.645C118.624 460.101 119.907 460.505 120.452 461.54H120.469Z" fill="#90C3EF"/>
<path d="M50.7332 487.867C78.1038 488.849 83.8873 514.421 104.385 508.542C124.882 502.68 143.902 511.578 144.729 530.358C145.555 549.137 145.098 563.003 167.74 565.828C190.364 568.654 207.345 591.892 193.774 606.319C190.399 609.916 186.743 613.795 183.156 617.604C182.172 618.639 181.205 619.675 180.238 620.693C180.01 620.939 179.799 621.167 179.57 621.395C165.12 636.699 141.336 639.016 124.583 626.274C117.797 621.114 112.928 614.111 113.244 604.651C114.229 575.043 89.0732 592.12 73.1114 578.746C54.7236 563.354 65.816 543.222 50.9617 533.254C30.3063 519.388 23.3625 486.866 50.7332 487.849V487.867Z" fill="#FEDCCA"/>
<path d="M70.2283 517.844L183.174 617.604C182.19 618.639 181.223 619.675 180.256 620.693L67.4157 521.02C66.5367 520.248 66.4488 518.897 67.2223 518.019C67.9958 517.142 69.3494 517.054 70.2283 517.826V517.844Z" fill="#F2ABAB"/>
<path d="M706.609 653.075C710.916 633.435 732.222 647.757 747.445 636.471C766.712 622.202 756.833 601.44 772.25 592.366C793.696 579.746 802.556 547.681 775.168 547.049C747.779 546.417 740.502 571.585 720.391 564.53C700.281 557.457 680.768 565.232 678.817 583.924C676.883 602.615 676.514 616.481 653.749 617.973C632.812 619.324 615.637 638.227 622.898 653.075H706.609Z" fill="#F2ABAB"/>
<path d="M662.205 653.075L756.587 579.185C757.518 578.465 757.677 577.131 756.956 576.201C756.235 575.271 754.899 575.113 753.967 575.833L655.313 653.075H662.205Z" fill="#90C3EF"/>
<path d="M680.258 653.075C680.592 652.46 680.926 651.846 681.225 651.214C684.952 643.562 686.147 635.12 681.612 626.818C667.39 600.825 697.538 604.757 705.783 585.661C715.276 563.652 696.29 550.647 705.062 535.079C717.262 513.421 708.807 481.25 684.794 494.431C660.798 507.612 667.162 533.025 646.207 537.01C625.253 540.976 612.28 557.474 620.015 574.621C627.749 591.769 634.394 603.949 615.462 616.639C602.383 625.397 596.107 641.631 599.605 653.092H680.276L680.258 653.075Z" fill="#FEDCCA"/>
<path d="M636.258 653.075L684.829 531.534C685.268 530.445 684.741 529.199 683.651 528.778C682.561 528.357 681.313 528.866 680.891 529.972L631.687 653.092H636.275L636.258 653.075Z" fill="#F2ABAB"/>
<path d="M465.196 187.428H159.196C152.905 187.428 147.805 192.52 147.805 198.801V644.668C147.805 650.949 152.905 656.041 159.196 656.041H465.196C471.487 656.041 476.587 650.949 476.587 644.668V198.801C476.587 192.52 471.487 187.428 465.196 187.428Z" fill="#4B1819"/>
<path d="M441.675 147.166H182.717C176.426 147.166 171.326 152.257 171.326 158.539V617.499C171.326 623.78 176.426 628.872 182.717 628.872H441.675C447.966 628.872 453.066 623.78 453.066 617.499V158.539C453.066 152.257 447.966 147.166 441.675 147.166Z" fill="#304E7E"/>
<path d="M207.732 147.166H416.695C416.695 143.339 413.583 140.233 409.751 140.233H214.693C210.861 140.233 207.75 143.339 207.75 147.166H207.732Z" fill="#4B1819"/>
<path d="M406.78 602.879H217.612C216.427 602.879 215.467 603.837 215.467 605.02V607.495C215.467 608.677 216.427 609.636 217.612 609.636H406.78C407.965 609.636 408.925 608.677 408.925 607.495V605.02C408.925 603.837 407.965 602.879 406.78 602.879Z" fill="#4B1819"/>
<path d="M424.324 196.677V316.077C424.324 321.307 420.07 325.554 414.832 325.554H209.578C208.541 325.554 207.539 325.396 206.607 325.081C202.81 323.834 200.085 320.272 200.085 316.077V196.677C200.085 191.447 204.34 187.217 209.578 187.217H414.832C420.07 187.217 424.324 191.464 424.324 196.677Z" fill="#FEDCCA"/>
<path opacity="0.4" d="M404.987 187.217L266.429 325.554H209.56C208.523 325.554 207.521 325.396 206.59 325.081L344.673 187.217H404.97H404.987Z" fill="white"/>
<path opacity="0.4" d="M287.067 187.217L200.085 274.042V254.245L267.22 187.217H287.067Z" fill="white"/>
<path opacity="0.4" d="M424.324 238.887V258.685L357.348 325.555H337.519L424.324 238.887Z" fill="white"/>
<path d="M253.578 358.375H208.295C203.513 358.375 199.628 354.496 199.628 349.722C199.628 344.948 203.513 341.07 208.295 341.07H253.578C258.36 341.07 262.245 344.948 262.245 349.722C262.245 354.496 258.36 358.375 253.578 358.375Z" fill="#FEDCCA"/>
<path d="M334.846 358.375H289.563C284.781 358.375 280.896 354.496 280.896 349.722C280.896 344.948 284.781 341.07 289.563 341.07H334.846C339.628 341.07 343.513 344.948 343.513 349.722C343.513 354.496 339.628 358.375 334.846 358.375Z" fill="#FEDCCA"/>
<path d="M416.097 358.375H370.813C366.032 358.375 362.147 354.496 362.147 349.722C362.147 344.948 366.032 341.07 370.813 341.07H416.097C420.879 341.07 424.764 344.948 424.764 349.722C424.764 354.496 420.879 358.375 416.097 358.375Z" fill="#FEDCCA"/>
<path d="M256.848 413.204H202.441C199.751 413.204 197.589 410.8 197.589 407.834V381.718C197.589 378.752 199.769 376.347 202.441 376.347H256.848C259.538 376.347 261.7 378.752 261.7 381.718V407.834C261.7 410.8 259.52 413.204 256.848 413.204Z" fill="#FEDCCA"/>
<path d="M339.417 413.204H285.01C282.32 413.204 280.158 410.8 280.158 407.834V381.718C280.158 378.752 282.338 376.347 285.01 376.347H339.417C342.107 376.347 344.269 378.752 344.269 381.718V407.834C344.269 410.8 342.089 413.204 339.417 413.204Z" fill="#FEDCCA"/>
<path d="M421.969 413.204H367.561C364.872 413.204 362.709 410.8 362.709 407.834V381.718C362.709 378.752 364.889 376.347 367.561 376.347H421.969C424.658 376.347 426.82 378.752 426.82 381.718V407.834C426.82 410.8 424.641 413.204 421.969 413.204Z" fill="#FEDCCA"/>
<path d="M256.848 471.105H202.441C199.751 471.105 197.589 468.701 197.589 465.735V439.619C197.589 436.653 199.769 434.248 202.441 434.248H256.848C259.538 434.248 261.7 436.653 261.7 439.619V465.735C261.7 468.701 259.52 471.105 256.848 471.105Z" fill="#FEDCCA"/>
<path d="M339.417 471.105H285.01C282.32 471.105 280.158 468.701 280.158 465.735V439.619C280.158 436.653 282.338 434.248 285.01 434.248H339.417C342.107 434.248 344.269 436.653 344.269 439.619V465.735C344.269 468.701 342.089 471.105 339.417 471.105Z" fill="#FEDCCA"/>
<path d="M421.969 471.105H367.561C364.872 471.105 362.709 468.701 362.709 465.735V439.619C362.709 436.653 364.889 434.248 367.561 434.248H421.969C424.658 434.248 426.82 436.653 426.82 439.619V465.735C426.82 468.701 424.641 471.105 421.969 471.105Z" fill="#FEDCCA"/>
<path d="M256.848 529.006H202.441C199.751 529.006 197.589 526.602 197.589 523.636V497.52C197.589 494.553 199.769 492.149 202.441 492.149H256.848C259.538 492.149 261.7 494.553 261.7 497.52V523.636C261.7 526.602 259.52 529.006 256.848 529.006Z" fill="#FEDCCA"/>
<path d="M339.417 529.006H285.01C282.32 529.006 280.158 526.602 280.158 523.636V497.52C280.158 494.553 282.338 492.149 285.01 492.149H339.417C342.107 492.149 344.269 494.553 344.269 497.52V523.636C344.269 526.602 342.089 529.006 339.417 529.006Z" fill="#FEDCCA"/>
<path d="M421.969 529.006H367.561C364.872 529.006 362.709 526.602 362.709 523.636V497.52C362.709 494.553 364.889 492.149 367.561 492.149H421.969C424.658 492.149 426.82 494.553 426.82 497.52V523.636C426.82 526.602 424.641 529.006 421.969 529.006Z" fill="#FEDCCA"/>
<path d="M256.848 585.784H202.441C199.751 585.784 197.589 583.379 197.589 580.413V554.297C197.589 551.331 199.769 548.927 202.441 548.927H256.848C259.538 548.927 261.7 551.331 261.7 554.297V580.413C261.7 583.379 259.52 585.784 256.848 585.784Z" fill="#E60049"/>
<path d="M339.417 585.784H285.01C282.32 585.784 280.158 583.379 280.158 580.413V554.297C280.158 551.331 282.338 548.927 285.01 548.927H339.417C342.107 548.927 344.269 551.331 344.269 554.297V580.413C344.269 583.379 342.089 585.784 339.417 585.784Z" fill="#F5992F"/>
<path d="M421.969 585.784H367.561C364.872 585.784 362.709 583.379 362.709 580.413V554.297C362.709 551.331 364.889 548.927 367.561 548.927H421.969C424.658 548.927 426.82 551.331 426.82 554.297V580.413C426.82 583.379 424.641 585.784 421.969 585.784Z" fill="#FCD87D"/>
<path d="M702.847 596.086L714.467 611.724C714.467 611.724 712.129 618.552 703.129 623.642L689.224 605.634L702.847 596.086Z" fill="#FDA893"/>
<path d="M705.238 618.92C705.238 618.92 699.666 617.639 697.697 619.447C695.745 621.255 690.349 646.44 685.725 651.864C681.102 657.287 685.567 660.341 688.309 661.517C691.052 662.693 731.607 625.555 731.607 625.555C731.607 625.555 722.096 612.321 717.42 609.688C712.744 607.056 710.318 616.358 705.238 618.92Z" fill="#E60049"/>
<path d="M703.99 632.908C704.236 632.821 704.447 632.628 704.535 632.364C704.728 631.873 704.482 631.311 703.972 631.118C703.797 631.048 699.718 629.539 696.501 630.206C692.23 631.083 691.245 634.576 691.21 634.716C691.069 635.225 691.386 635.752 691.931 635.892C692.458 636.033 693.003 635.717 693.144 635.208C693.179 635.12 693.882 632.715 696.923 632.084C699.543 631.539 703.199 632.891 703.234 632.908C703.48 632.996 703.744 632.996 703.972 632.908H703.99Z" fill="white"/>
<path d="M704.535 628.995C704.781 628.907 704.974 628.714 705.08 628.451C705.273 627.959 705.027 627.397 704.517 627.204C704.342 627.134 700.263 625.625 697.046 626.292C692.757 627.169 691.79 630.662 691.755 630.802C691.614 631.311 691.931 631.838 692.476 631.978C693.003 632.119 693.548 631.803 693.689 631.294C693.724 631.206 694.427 628.802 697.468 628.17C700.105 627.626 703.744 628.977 703.779 628.995C704.025 629.082 704.289 629.082 704.517 628.995H704.535Z" fill="white"/>
<path d="M702.285 637.051C702.531 636.963 702.742 636.77 702.83 636.506C703.023 636.015 702.777 635.453 702.267 635.26C702.091 635.19 698.013 633.681 694.796 634.348C690.507 635.225 689.54 638.718 689.505 638.858C689.364 639.367 689.698 639.894 690.226 640.034C690.753 640.175 691.298 639.859 691.439 639.35C691.474 639.262 692.177 636.857 695.218 636.226C697.855 635.682 701.494 637.033 701.529 637.051C701.775 637.138 702.039 637.138 702.267 637.051H702.285Z" fill="white"/>
<path d="M631.986 385.632L640.442 488.358C640.442 488.358 654.224 505.541 664.138 524.584C672.453 540.573 708.104 597.842 708.104 597.842L690.103 611.865L600.273 506.436L582.694 383.456L632.004 385.632H631.986Z" fill="#16162F"/>
<path d="M608.694 622.202L607.288 642.123C607.288 642.123 600.959 646.107 590.64 644.492L591.853 621.219L608.711 622.22L608.694 622.202Z" fill="#FDA893"/>
<path d="M594.209 641.614C594.209 641.614 590.605 636.84 587.775 637.068C584.945 637.296 563.164 654.795 555.675 656.269C548.187 657.743 549.681 663.254 551.07 666.062C552.458 668.87 610.61 666.062 610.61 666.062C610.61 666.062 612.368 647.265 610.434 641.965C608.501 636.664 600.098 642.842 594.226 641.614H594.209Z" fill="#E60049"/>
<path d="M583.099 652.056C583.345 652.144 583.626 652.127 583.89 652.004C584.382 651.758 584.575 651.144 584.329 650.652C584.241 650.494 582.22 646.616 579.355 645.019C575.54 642.877 572.393 644.966 572.27 645.054C571.813 645.37 571.69 645.984 572.006 646.44C572.323 646.896 572.938 647.019 573.395 646.703C573.483 646.651 575.663 645.247 578.388 646.756C580.726 648.055 582.536 651.53 582.554 651.565C582.677 651.811 582.888 651.969 583.116 652.056H583.099Z" fill="white"/>
<path d="M586.21 649.371C586.457 649.459 586.738 649.441 587.002 649.319C587.494 649.073 587.687 648.459 587.441 647.967C587.353 647.809 585.331 643.93 582.466 642.333C578.651 640.192 575.505 642.281 575.382 642.368C574.925 642.684 574.802 643.299 575.118 643.755C575.434 644.211 576.05 644.334 576.507 644.018C576.595 643.965 578.774 642.561 581.499 644.071C583.855 645.387 585.648 648.845 585.665 648.88C585.789 649.125 586 649.283 586.228 649.371H586.21Z" fill="white"/>
<path d="M578.968 654.18C579.214 654.268 579.495 654.25 579.759 654.128C580.251 653.882 580.444 653.268 580.198 652.776C580.11 652.618 578.089 648.739 575.223 647.142C571.409 645.001 568.262 647.09 568.139 647.177C567.682 647.493 567.559 648.108 567.875 648.564C568.192 649.02 568.807 649.143 569.264 648.827C569.352 648.775 571.532 647.37 574.257 648.88C576.612 650.196 578.405 653.654 578.423 653.689C578.546 653.935 578.757 654.093 578.985 654.18H578.968Z" fill="white"/>
<path d="M688.064 389.879C688.064 389.879 664.736 465.945 635.748 506.611C635.748 506.611 630.633 546.698 623.003 567.935C619.646 577.219 610.417 632.821 610.417 632.821L606.971 632.242L604.932 631.891L589.673 629.328L599.606 496.73L635.713 392.67L679.309 390.318L681.63 390.213L688.064 389.862V389.879Z" fill="#2A3554"/>
<path d="M681.629 390.23L631.23 506.559C631.213 506.699 623.372 538.414 618.855 560.739C614.811 580.589 608.782 615.2 606.989 632.242L604.949 631.891C606.778 614.691 612.684 580.659 616.815 560.335C621.351 537.993 629.209 506.243 629.279 505.909L679.309 390.353L681.629 390.248V390.23Z" fill="#16162F"/>
<path d="M572.868 216.019L549.54 262.02L574.221 259.879C574.221 259.879 576.577 232.025 572.885 216.019H572.868Z" fill="#FCD87D"/>
<path d="M690.279 392.512C677.991 397.005 665.598 400.305 653.099 402.411C652.519 402.498 651.956 402.604 651.394 402.692C651.095 402.744 650.778 402.779 650.48 402.832C649.812 402.937 649.126 403.043 648.476 403.13C647.72 403.236 646.981 403.341 646.225 403.446C637.7 404.587 629.121 405.166 620.49 405.219C618.732 405.219 617.009 405.201 615.251 405.166H614.917C614.478 405.149 614.038 405.149 613.581 405.131C613.317 405.114 613.054 405.114 612.79 405.096C602.717 404.78 592.574 403.692 582.378 401.884C582.15 399.638 581.851 396.303 581.482 392.108C581.411 391.318 581.341 390.511 581.288 389.669C580.761 383.666 580.146 376.172 579.478 367.712C579.425 366.993 579.372 366.256 579.302 365.518C578.862 359.885 578.388 353.865 577.931 347.564C577.878 346.827 577.808 346.107 577.755 345.37C577.28 338.911 576.788 332.206 576.313 325.397C576.014 321.237 575.733 317.042 575.452 312.848C575.171 308.583 574.889 304.318 574.626 300.088C574.573 299.158 574.503 298.245 574.45 297.315C571.954 257.246 570.442 220.354 572.868 216.019C574.555 213.017 578.704 209.297 583.626 205.488C584.242 205.014 584.839 204.558 585.472 204.084C587.582 202.504 605.178 194.782 607.376 193.22L626.431 190.219C626.554 190.289 645.417 194.87 645.557 194.922C646.384 195.308 647.21 195.677 648.036 196.081C655.173 199.398 662.222 202.925 666.406 206.155C667.004 206.611 667.549 207.068 668.024 207.524C668.41 207.892 668.744 208.243 669.025 208.594C669.272 208.91 669.553 209.454 669.834 210.227C672.893 218.441 676.989 251.401 680.733 287.346C680.821 288.206 680.891 289.066 680.997 289.926L681.261 292.506C681.348 293.384 681.436 294.244 681.524 295.104C681.63 296.244 681.753 297.385 681.876 298.544C681.946 299.316 682.034 300.123 682.104 300.895C682.139 301.299 682.175 301.685 682.227 302.071C682.263 302.352 682.28 302.651 682.315 302.931L682.79 307.933C682.948 309.373 683.089 310.794 683.229 312.233C684.583 326.362 685.849 340.175 686.921 352.373C687.237 355.83 687.536 359.147 687.8 362.307C687.853 363.026 687.923 363.763 687.976 364.465C689.083 377.471 689.909 387.563 690.279 392.512Z" fill="#F5992F"/>
<path d="M686.921 352.373C670.977 375.365 650.954 391.863 650.954 391.863L646.331 358.831C652.782 345.826 667.742 317.622 680.997 289.926L681.26 292.506C681.348 293.384 681.436 294.244 681.524 295.104C681.63 296.244 681.753 297.385 681.876 298.544C681.946 299.316 682.034 300.123 682.104 300.895C682.139 301.299 682.175 301.685 682.227 302.071C682.262 302.352 682.28 302.651 682.315 302.931L682.79 307.933C682.948 309.373 683.089 310.794 683.229 312.233C684.583 326.362 685.849 340.175 686.921 352.373Z" fill="#FCD87D"/>
<path d="M604.598 249.717L582.519 250.348C582.519 250.348 584.013 277.044 595.633 275.201C607.253 273.375 604.598 249.717 604.598 249.717Z" fill="#FCD87D"/>
<path d="M664.596 363.131C643.87 364.834 625.377 356.953 613.511 350.056C600.678 342.579 592.592 334.593 592.521 334.506C592.135 334.12 592.135 333.488 592.521 333.102C592.908 332.715 593.541 332.715 593.928 333.102C593.998 333.172 601.944 341.017 614.565 348.371C626.168 355.128 644.257 362.816 664.42 361.148C664.965 361.096 665.457 361.517 665.492 362.061C665.545 362.605 665.123 363.096 664.578 363.131H664.596Z" fill="#FCD87D"/>
<path d="M643.624 372.03C625.658 373.592 606.848 364.922 605.987 364.518C605.495 364.29 605.266 363.693 605.512 363.184C605.741 362.693 606.338 362.464 606.848 362.71C607.077 362.815 629.209 373.013 647.737 369.45C648.282 369.344 648.809 369.695 648.915 370.24C649.02 370.784 648.669 371.31 648.124 371.415C646.647 371.696 645.153 371.907 643.659 372.03H643.624Z" fill="#FCD87D"/>
<path d="M611.577 342.035L623.548 370.292L634.447 343.123L621.421 229.726L620.911 225.461L615.743 225.18L615.532 231.007L611.577 342.035Z" fill="white"/>
<path d="M615.532 231.007L618.257 233.868L621.421 229.726L620.911 225.461L615.743 225.18L615.532 231.007Z" fill="#EDEDED"/>
<path d="M626.959 218.844L617.782 229.533L610.223 217.984L615.761 206.365L626.959 218.844Z" fill="white"/>
<path d="M629.191 188.902L632.25 190.71C633.094 191.201 633.92 191.728 634.711 192.307C637.084 194.062 637.981 195.326 637.699 198.801C637.664 199.327 637.576 199.801 637.489 200.17L634.289 227.023L615.761 206.348C615.761 206.348 627.451 201.012 629.191 188.885V188.902Z" fill="#FCD87D"/>
<path d="M607.376 191.868C607.376 191.868 600.379 199.731 603.368 208.12L608.114 222.407L615.761 206.348C615.761 206.348 608.993 203.013 607.376 191.851V191.868Z" fill="#FCD87D"/>
<path d="M642.077 139.496C643.518 156.117 634.272 168.473 617.624 169.912C600.977 171.351 588.302 160.048 586.861 143.427C585.419 126.807 594.174 113.362 610.821 111.906C630.791 110.168 640.635 122.875 642.077 139.496Z" fill="#621D1D"/>
<path d="M641.057 149.588C641.057 149.588 644.327 144.902 642.885 133.722C641.444 122.542 637.365 119.681 637.365 119.681C637.365 119.681 641.391 111.239 636.82 109.255C632.232 107.272 628.664 109.957 628.664 109.957C628.664 109.957 631.424 104.727 628.171 104.288C624.919 103.85 620.577 107.202 620.577 107.202C620.577 107.202 597.109 100.673 590.447 106.254C583.784 111.835 589.796 126.192 591.818 127.684L641.057 149.57V149.588Z" fill="#621D1D"/>
<path d="M638.965 146.973C638.965 146.973 643.061 140.408 646.946 145.2C650.831 149.991 647.28 165.454 638.526 162.523L638.965 146.973Z" fill="#FB876B"/>
<path d="M639.95 157.714C640.266 157.679 640.53 157.451 640.582 157.135C641.479 152.378 646.137 150.079 646.19 150.062C646.542 149.886 646.7 149.465 646.524 149.114C646.348 148.763 645.926 148.605 645.575 148.78C645.364 148.886 640.231 151.395 639.194 156.871C639.123 157.257 639.369 157.626 639.756 157.696C639.826 157.696 639.879 157.696 639.95 157.696V157.714Z" fill="#D45C48"/>
<path d="M644.626 154.958C644.749 154.958 644.889 154.906 644.995 154.818C645.311 154.572 645.364 154.133 645.118 153.817C645.083 153.765 644.116 152.536 642.252 151.904C641.883 151.782 641.479 151.975 641.338 152.343C641.215 152.712 641.409 153.115 641.778 153.256C643.219 153.747 643.975 154.695 643.975 154.695C644.133 154.888 644.362 154.993 644.608 154.976L644.626 154.958Z" fill="#D45C48"/>
<path d="M591.291 151.115C591.291 151.115 586.122 145.358 583.134 150.746C580.145 156.134 586.316 170.754 594.42 166.349L591.308 151.115H591.291Z" fill="#FB876B"/>
<path d="M592.17 161.856C591.853 161.891 591.554 161.698 591.431 161.4C589.726 156.872 584.734 155.397 584.698 155.397C584.312 155.292 584.101 154.888 584.206 154.52C584.312 154.134 584.716 153.923 585.085 154.028C585.314 154.098 590.798 155.696 592.767 160.908C592.908 161.277 592.715 161.68 592.345 161.821C592.275 161.838 592.222 161.856 592.152 161.856H592.17Z" fill="#D45C48"/>
<path d="M587.107 159.943C586.966 159.943 586.843 159.943 586.72 159.855C586.369 159.68 586.245 159.241 586.421 158.89C586.456 158.837 587.195 157.468 588.9 156.503C589.234 156.31 589.673 156.433 589.867 156.784C590.06 157.135 589.937 157.556 589.586 157.749C588.267 158.486 587.669 159.539 587.669 159.557C587.546 159.785 587.335 159.908 587.107 159.943Z" fill="#D45C48"/>
<path d="M606.198 178.178L607.499 193.132C607.499 193.132 606.708 207.313 618.099 206.225C624.146 205.646 629.543 192.798 629.543 192.798L628.189 177.318L606.198 178.161V178.178Z" fill="#FBA691"/>
<path d="M606.198 178.178L606.778 184.813C611.225 188.955 618.521 189.446 629.033 186.954L628.189 177.318L606.198 178.161V178.178Z" fill="#FB876B"/>
<path d="M587.054 141.146C587.845 146.938 589.023 154.151 590.64 159.873C591.045 161.294 591.484 162.628 591.924 163.822C596.037 174.563 605.565 192.781 626.959 183.005C636.399 178.687 639.985 167.455 641.04 156.24C641.76 148.64 641.303 141.04 640.741 135.652C640.161 130.141 636.698 125.35 631.652 123.051C617.976 116.802 604.475 120.751 595.721 125.016C589.638 127.965 586.158 134.476 587.072 141.146H587.054Z" fill="#FBA691"/>
<path d="M623.337 149.219C623.478 150.816 624.41 152.045 625.429 151.957C626.449 151.869 627.152 150.5 627.011 148.903C626.871 147.306 625.939 146.078 624.919 146.165C623.9 146.253 623.197 147.622 623.337 149.219Z" fill="#621D1D"/>
<path d="M601.979 151.062C602.119 152.659 603.051 153.888 604.071 153.8C605.09 153.712 605.793 152.343 605.653 150.746C605.512 149.149 604.58 147.92 603.561 148.008C602.541 148.096 601.838 149.465 601.979 151.062Z" fill="#621D1D"/>
<path d="M597.953 141.427C597.953 141.427 603.561 138.636 608.202 140.18L607.973 142.708C607.973 142.708 601.363 142.708 598.164 144.34C597.777 143.41 597.654 142.445 597.953 141.427Z" fill="#621D1D"/>
<path d="M631.793 138.495C631.793 138.495 625.781 136.705 621.474 139.022L622.142 141.461C622.142 141.461 628.664 140.338 632.074 141.391C632.285 140.408 632.25 139.443 631.775 138.495H631.793Z" fill="#621D1D"/>
<path d="M615.567 162.523C616.763 162.558 617.976 162.137 618.169 162.067C618.538 161.926 618.732 161.522 618.591 161.154C618.45 160.785 618.046 160.592 617.677 160.733C617.026 160.978 615.462 161.329 614.811 160.908C614.688 160.82 614.513 160.662 614.477 160.224C614.302 157.731 615.286 149.412 615.286 149.324C615.339 148.938 615.058 148.587 614.653 148.535C614.266 148.482 613.915 148.763 613.862 149.167C613.827 149.518 612.86 157.696 613.036 160.329C613.106 161.312 613.599 161.838 614.02 162.102C614.46 162.382 615.005 162.505 615.567 162.523Z" fill="#FB876B"/>
<path d="M625.675 165.945C625.341 168.911 623.882 174.458 617.378 175.019C610.856 175.581 608.588 170.825 607.674 167.507L625.693 165.945H625.675Z" fill="white"/>
<path d="M618.292 179.372C616.446 179.53 614.811 178.74 614.741 178.705C614.389 178.529 614.249 178.108 614.425 177.757C614.6 177.406 615.022 177.266 615.374 177.441C615.374 177.441 616.745 178.091 618.169 177.968C619.487 177.845 620.683 176.985 620.7 176.985C621.017 176.757 621.456 176.809 621.702 177.125C621.931 177.441 621.878 177.88 621.562 178.126C621.509 178.178 620.05 179.232 618.31 179.389L618.292 179.372Z" fill="#FB876B"/>
<path d="M588.707 151.466L591.924 151.185C591.291 147.991 592.117 143.971 592.873 141.286C594.56 135.196 589.638 133.002 593.189 129.702C596.723 126.403 606.268 126.859 612.825 126.087C619.417 125.297 630.035 124.472 632.672 124.841C635.309 125.209 634.272 129.615 633.604 133.02C632.936 136.407 637.383 139.724 638.368 143.094C638.649 144.059 638.737 145.534 638.719 147.131L641.409 146.902C641.356 142.69 641.075 138.811 640.741 135.652C640.161 130.141 636.698 125.35 631.652 123.051C617.976 116.802 604.475 120.751 595.721 125.016C589.638 127.965 586.158 134.476 587.072 141.146C587.494 144.322 588.056 147.92 588.724 151.466H588.707Z" fill="#621D1D"/>
<path d="M604.51 161.084C599.939 161.487 595.914 158.1 595.51 153.537C595.105 148.973 598.498 144.954 603.068 144.55C607.639 144.147 611.665 147.534 612.069 152.097C612.473 156.661 609.081 160.68 604.51 161.084ZM603.174 145.849C599.324 146.183 596.459 149.588 596.793 153.431C597.127 157.275 600.537 160.136 604.387 159.802C608.237 159.469 611.102 156.064 610.768 152.22C610.434 148.377 607.024 145.516 603.174 145.849Z" fill="white"/>
<path d="M627.134 159.136C622.564 159.539 618.538 156.152 618.134 151.589C617.729 147.025 621.122 143.006 625.693 142.602C630.263 142.199 634.289 145.586 634.693 150.149C635.098 154.713 631.705 158.732 627.134 159.136ZM625.798 143.884C621.948 144.217 619.083 147.622 619.417 151.466C619.751 155.309 623.161 158.17 627.011 157.837C630.861 157.503 633.726 154.098 633.392 150.255C633.058 146.411 629.648 143.55 625.798 143.884Z" fill="white"/>
<path d="M596.687 150.764C596.529 150.764 596.353 150.729 596.213 150.623C596.213 150.623 592.099 147.271 587.265 148.851C586.931 148.956 586.562 148.78 586.456 148.429C586.351 148.096 586.527 147.727 586.878 147.622C592.398 145.814 596.863 149.482 597.056 149.623C597.338 149.851 597.373 150.255 597.144 150.535C597.021 150.676 596.863 150.746 596.705 150.764H596.687Z" fill="white"/>
<path d="M633.216 147.587C633.006 147.604 632.795 147.517 632.654 147.341C632.425 147.06 632.478 146.657 632.759 146.428C632.988 146.253 638.525 141.971 643.571 142.357C643.922 142.392 644.186 142.69 644.168 143.059C644.133 143.41 643.834 143.673 643.465 143.655C638.912 143.304 633.603 147.411 633.55 147.464C633.445 147.552 633.322 147.587 633.216 147.604V147.587Z" fill="white"/>
<path d="M618.433 149.693C618.433 149.693 616.71 147.745 614.688 147.92C612.702 148.096 611.489 150.272 611.471 150.307L610.329 149.693C610.399 149.57 611.876 146.867 614.565 146.639C617.255 146.411 619.312 148.763 619.399 148.868L618.415 149.711L618.433 149.693Z" fill="white"/>
<path d="M668.902 256.403L659.568 383.771C659.146 389.493 654.153 393.811 648.423 393.389L431.76 377.558C429.176 377.365 426.873 376.242 425.168 374.557C423.094 372.486 421.898 369.572 422.127 366.431L431.461 239.063C431.883 233.341 436.876 229.024 442.607 229.445L659.269 245.276C665 245.697 669.324 250.682 668.902 256.403Z" fill="#E60049"/>
<path d="M430.283 254.871L428.216 283.106L665.656 300.431L667.723 272.197L430.283 254.871Z" fill="#621D1D"/>
<path d="M643.061 373.767L587.212 369.678L588.654 350.144L644.502 354.233L643.061 373.767Z" fill="#F5992F"/>
<path d="M440.23 308.17L439.632 316.345C439.582 317.031 440.098 317.628 440.786 317.678L456.442 318.821C457.13 318.871 457.728 318.355 457.778 317.669L458.376 309.494C458.427 308.808 457.91 308.211 457.223 308.161L441.566 307.018C440.879 306.968 440.281 307.484 440.23 308.17Z" fill="#F5992F"/>
<path d="M472.192 310.514L471.594 318.688C471.543 319.375 472.06 319.972 472.747 320.022L488.404 321.164C489.091 321.215 489.689 320.699 489.74 320.012L490.338 311.838C490.388 311.151 489.872 310.554 489.184 310.504L473.528 309.362C472.84 309.312 472.242 309.827 472.192 310.514Z" fill="#F5992F"/>
<path d="M504.222 312.883L503.622 321.057C503.572 321.743 504.088 322.341 504.776 322.391L520.432 323.536C521.119 323.586 521.718 323.071 521.768 322.384L522.368 314.21C522.418 313.523 521.902 312.926 521.214 312.876L505.558 311.731C504.871 311.681 504.272 312.196 504.222 312.883Z" fill="#F5992F"/>
<path d="M536.08 315.166L535.482 323.341C535.431 324.027 535.948 324.624 536.635 324.674L552.292 325.817C552.979 325.867 553.577 325.351 553.628 324.665L554.226 316.49C554.276 315.804 553.76 315.207 553.072 315.157L537.416 314.014C536.728 313.964 536.13 314.48 536.08 315.166Z" fill="#F5992F"/>
<path d="M568.042 317.492L567.443 325.667C567.393 326.353 567.91 326.95 568.597 327L584.253 328.143C584.941 328.193 585.539 327.677 585.589 326.991L586.188 318.816C586.238 318.13 585.721 317.533 585.034 317.482L569.377 316.34C568.69 316.29 568.092 316.806 568.042 317.492Z" fill="#F5992F"/>
<path d="M600.002 319.853L599.404 328.028C599.353 328.714 599.87 329.311 600.558 329.361L616.214 330.504C616.901 330.554 617.499 330.038 617.55 329.352L618.148 321.177C618.198 320.491 617.682 319.894 616.994 319.844L601.338 318.701C600.65 318.651 600.052 319.167 600.002 319.853Z" fill="#F5992F"/>
<path d="M631.946 322.179L631.348 330.354C631.297 331.04 631.814 331.637 632.501 331.688L648.158 332.83C648.845 332.88 649.443 332.364 649.494 331.678L650.092 323.503C650.142 322.817 649.626 322.22 648.938 322.17L633.282 321.027C632.594 320.977 631.996 321.493 631.946 322.179Z" fill="#F5992F"/>
<path d="M431.399 239.936L431.003 245.344L668.443 262.67L668.839 257.261L431.399 239.936Z" fill="#F5992F"/>
<path d="M466.641 331.574L442.78 329.832C440.543 329.669 438.597 331.347 438.434 333.58L436.69 357.404C436.527 359.637 438.207 361.58 440.444 361.743L464.306 363.484C466.542 363.647 468.488 361.969 468.652 359.736L470.395 335.913C470.559 333.679 468.878 331.737 466.641 331.574Z" fill="#F5992F"/>
<path d="M480.085 347.589L577.775 354.717C579.37 354.833 580.555 356.222 580.44 357.797L580.217 360.843C580.1 362.436 578.709 363.619 577.131 363.504L479.441 356.376C477.846 356.259 476.661 354.871 476.776 353.295L476.999 350.25C477.116 348.657 478.507 347.474 480.085 347.589Z" fill="#F5992F"/>
<path opacity="0.2" d="M581.692 239.607L425.186 374.575C423.111 372.504 421.916 369.59 422.144 366.448L425.414 321.763L525.439 235.518L581.692 239.625V239.607Z" fill="white"/>
<path opacity="0.2" d="M658.829 245.241L499.633 382.525L472.104 380.524L631.318 243.24L658.829 245.241Z" fill="white"/>
<path d="M512.167 378.348L509.354 381.613C509.354 381.613 501.303 381.033 500.53 377.664C500.248 376.435 500.53 375.084 501.549 374.522L512.167 378.366V378.348Z" fill="#FB876B"/>
<path d="M515.032 396.443C511.077 396.952 507.122 395.021 505.329 391.459C504.379 389.563 503.958 387.159 504.872 384.14C507.596 375.119 512.659 368.765 516.14 370.643C517.458 371.345 517.195 376.681 515.402 380.542C515.402 380.542 517.968 376.365 519.216 371.538C520.464 366.712 526.441 369.046 524.929 375.136C523.4 381.226 522.75 382.104 522.75 382.104C522.75 382.104 525.527 377.488 525.914 374.487C526.301 371.486 531.029 372.31 529.992 378.172C529.518 380.893 528.937 383.999 528.937 383.999C528.937 383.999 530.309 380.138 531.029 378.12C531.75 376.119 534.528 374.873 534.932 379.261C535.248 382.718 535.459 392.126 530.801 393.67C527.637 394.723 519.744 395.829 515.032 396.426V396.443Z" fill="#FBA691"/>
<path d="M595.72 390.423C595.51 387.282 602.348 387.475 605.705 385.614C609.063 383.754 616.868 377.558 615.392 375.961C613.915 374.364 611.665 373.188 610.153 372.188C608.659 371.187 607.534 368.274 609.168 367.94C610.821 367.607 616.095 369.959 618.239 371.609C618.995 372.205 620.419 374.153 621.351 375.171C622.81 376.786 624.585 377.822 626.554 378.032C628.365 376.172 630.316 374.048 631.582 373.048C634.377 373.223 643.905 379.858 641.707 385.369C639.264 388.721 635.572 392.547 635.572 392.547C622.37 404.534 614.618 403.938 611.419 403.867C608.219 403.797 607.604 400.392 607.604 400.392C604.668 399.69 604.651 396.882 604.651 396.882C600.115 395.741 600.748 392.687 600.748 392.687C600.748 392.687 595.896 393.547 595.685 390.406L595.72 390.423Z" fill="#FBA691"/>
<path d="M693.214 330.048C693.214 330.048 681.647 365.115 643.694 385.807L630.562 374.224C630.562 374.224 657.177 353.268 669.377 322.079C669.465 321.851 669.57 321.606 669.658 321.36L669.5 320.289L656.034 232.903C656.034 232.903 657.247 222.863 669.166 208.682C669.166 208.682 698.505 255.438 693.214 330.048Z" fill="#F5992F"/>
<path d="M680.329 325.625C680.171 325.906 679.872 326.046 679.573 326.046C679.415 326.046 679.274 326.011 679.133 325.941C676.514 324.431 672.242 322.975 669.377 322.079C669.465 321.851 669.57 321.606 669.658 321.36L669.5 320.289C672.436 321.167 677.112 322.729 680.012 324.414C680.434 324.66 680.575 325.204 680.329 325.625Z" fill="#FCD87D"/>
</g>
<defs>
<clipPath id="clip0_76_378">
<rect width="814" height="685" fill="white"/>
</clipPath>
</defs>
</svg>
