<svg width="1563" height="660" viewBox="0 0 1563 660" fill="none" xmlns="http://www.w3.org/2000/svg">
<rect width="1563" height="660" fill="#FFF6E8"/>
<rect x="1290" y="501.767" width="17.164" height="17.164" rx="8.58201" fill="#FFE8C4"/>
<rect x="1290" y="448.845" width="17.164" height="17.164" rx="8.58201" fill="#FFE8C4"/>
<rect x="1290" y="395.922" width="17.164" height="17.164" rx="8.58201" fill="#FFE8C4"/>
<rect x="1290" y="343" width="17.164" height="17.164" rx="8.58201" fill="#FFE8C4"/>
<rect x="1342.92" y="501.767" width="17.164" height="17.164" rx="8.58201" fill="#FFE8C4"/>
<rect x="1342.92" y="448.845" width="17.164" height="17.164" rx="8.58201" fill="#FCD87D"/>
<rect x="1342.92" y="395.922" width="17.164" height="17.164" rx="8.58201" fill="#FFE8C4"/>
<rect x="1342.92" y="343" width="17.164" height="17.164" rx="8.58201" fill="#FFE8C4"/>
<rect x="1395.84" y="501.767" width="17.164" height="17.164" rx="8.58201" fill="#FFE8C4"/>
<rect x="1395.84" y="448.845" width="17.164" height="17.164" rx="8.58201" fill="#FFE8C4"/>
<rect x="1395.84" y="395.922" width="17.164" height="17.164" rx="8.58201" fill="#FFE8C4"/>
<rect x="1395.84" y="343" width="17.164" height="17.164" rx="8.58201" fill="#FFE8C4"/>
<rect x="1448.77" y="501.767" width="17.164" height="17.164" rx="8.58201" fill="#FFE8C4"/>
<rect x="1448.77" y="448.845" width="17.164" height="17.164" rx="8.58201" fill="#FFE8C4"/>
<rect x="1448.77" y="395.922" width="17.164" height="17.164" rx="8.58201" fill="#FCD87D"/>
<rect x="1448.77" y="343" width="17.164" height="17.164" rx="8.58201" fill="#FFE8C4"/>
<rect x="1501.69" y="501.767" width="17.164" height="17.164" rx="8.58201" fill="#FFE8C4"/>
<rect x="1501.69" y="448.845" width="17.164" height="17.164" rx="8.58201" fill="#FFE8C4"/>
<rect x="1501.69" y="395.922" width="17.164" height="17.164" rx="8.58201" fill="#FFE8C4"/>
<rect x="1501.69" y="343" width="17.164" height="17.164" rx="8.58201" fill="#FFE8C4"/>
<rect width="794" height="560" fill="#FFEBD5"/>
</svg>
