<?xml version="1.0" encoding="utf-8"?>
<svg xmlns="http://www.w3.org/2000/svg" width="1920" height="464" viewBox="0 0 1920 464">
  <defs>
    <clipPath id="clip-path">
      <rect id="Rectangle_24591" data-name="Rectangle 24591" width="1920" height="464" transform="translate(0 5497)" fill="#fff" stroke="#707070" stroke-width="1"/>
    </clipPath>
  </defs>
  <g id="Mask_Group_581" data-name="Mask Group 581" transform="translate(0 -5497)" clip-path="url(#clip-path)">
    <g id="Group_31842" data-name="Group 31842">
      <rect id="Rectangle_24590" data-name="Rectangle 24590" width="1920" height="406" transform="translate(0 5554.637)" style="fill: color(prophoto-rgb 0.361 0.431 0.61);"/>
      <path id="Path_33021" data-name="Path 33021" d="M19821.057,9331.54c-247.512-11.828-752.342,30.963-752.342,30.963s-254.582-194.118-15.779-394.28,688.832-26.7,861.2-71.079,211.709,71.079,211.709,71.079S20068.564,9343.368,19821.057,9331.54Z" transform="translate(-19139 -3350.9)" style="fill: color(prophoto-rgb 0.749 0.785 0.893);"/>
      <text id="Refer_your_close_one" data-name="Refer your close one" transform="translate(134 5612.637)" style="white-space: pre;" font-weight="500" font-size="52" font-family="Poppins-Medium, Poppins"><tspan x="0" y="55">Refer your loved ones and </tspan><tspan x="0" y="124">earn rewards worth lakhs</tspan></text>
      <g id="Group_31841" data-name="Group 31841" transform="translate(-630.279 1381.637)">
        <path id="Path_33022" data-name="Path 33022" d="M398.819,184.463a3.927,3.927,0,1,1-3.927-3.927A3.927,3.927,0,0,1,398.819,184.463Z" transform="translate(1402.04 4082.615)" fill="#83daa6"/>
        <line id="Line_411" data-name="Line 411" y2="10.967" transform="translate(1795.375 4334.681)" stroke="#fff" stroke-linejoin="round" stroke-width="1" fill="none"/>
        <line id="Line_412" data-name="Line 412" x1="10.967" transform="translate(1789.891 4340.164)" stroke="#fff" stroke-linejoin="round" stroke-width="1" fill="none"/>
        <g id="Group_31828" data-name="Group 31828" transform="translate(1596.579 4204.805)">
          <g id="Group_31827" data-name="Group 31827" transform="translate(0 0)">
            <g id="Group_31817" data-name="Group 31817" transform="matrix(0.985, -0.174, 0.174, 0.985, 0, 17.832)">
              <path id="Path_33023" data-name="Path 33023" d="M8.433,16.308A16.217,16.217,0,0,1,.5,7.333,7.51,7.51,0,0,1,0,5.007,4.973,4.973,0,0,1,1.75,1.143,4.97,4.97,0,0,1,5.861.092c1.9.381,3.394,1.837,4.626,3.336C11.628,4.817,12.706,6.55,12.3,8.3" transform="translate(19.145 45.007)" fill="#ff886f"/>
              <path id="Path_33024" data-name="Path 33024" d="M42.672,12.139,32.961,25.909,9.982,0,0,6.626s16.93,44.84,32.961,44.84c11.968,0,28.656-29.106,28.656-29.106" transform="translate(24.203 52.327)" fill="#ffa18d"/>
              <path id="Path_33025" data-name="Path 33025" d="M45.524.255S30.441-1.794,20.338,5.716,0,30.539,0,30.539L29.746,48.387,45.524,26.841" transform="translate(57.164 44.765)" fill="#fad24c"/>
              <g id="Group_31816" data-name="Group 31816" transform="translate(0 0)">
                <path id="Path_33026" data-name="Path 33026" d="M15.641,0a75.205,75.205,0,0,1-9.38,9.174c-1.71,1.393-4.024,2.344-5.548,3.938-1.207,1.263-.776,1.61.5,2.6a23.713,23.713,0,0,0,5.621,3.162A2.258,2.258,0,0,0,7.98,19.1a2.166,2.166,0,0,0,.933-.463,21.731,21.731,0,0,0,3.58-3.577c2.749-3.276,8.119-9.144,10.369-12.78" transform="translate(15.252 34.604)" fill="#4376cf"/>
                <path id="Path_33027" data-name="Path 33027" d="M9.624,8.943a5.545,5.545,0,0,1-7.755,1.089,5.545,5.545,0,0,1-.5-7.815A5.545,5.545,0,0,1,9.122,1.128,5.545,5.545,0,0,1,9.624,8.943Z" transform="translate(33.965 31.458)" fill="#00b5e2"/>
                <path id="Path_33028" data-name="Path 33028" d="M6.2,17.342,0,12.546,9.865,0l6.513,5.681A1.72,1.72,0,0,1,16.53,7.9c-2.207,3.94-4.618,7.214-8.108,9.286C7.675,17.635,6.855,17.914,6.2,17.342Z" transform="translate(27.466 24.61)" fill="#1238a7"/>
                <path id="Path_33029" data-name="Path 33029" d="M7.972,8.443C5.182,11.868,1.853,13.774.536,12.7S.413,7.983,3.2,4.558,9.322-.774,10.64.3,10.762,5.018,7.972,8.443Z" transform="translate(26.807 24.408)" fill="#4376cf"/>
                <g id="Group_31815" data-name="Group 31815">
                  <path id="Path_33030" data-name="Path 33030" d="M0,24.569s13.5,2.716,20.154,5.338c2.431.559,5.141-2.328,6.517-4.049,3.551-4.44,3.071-6.329,3.071-6.329C24.394,13.143,20.084,0,20.084,0" transform="translate(7.262 6.07)" fill="#00b5e2"/>
                  <path id="Path_33031" data-name="Path 33031" d="M21.986,22.182C15.478,30.143,6.694,33.731,2.368,30.193S-.19,17.336,6.318,9.374,21.61-2.174,25.936,1.362,28.494,14.221,21.986,22.182Z" fill="#699fed"/>
                  <g id="Group_31814" data-name="Group 31814" transform="translate(2.119 2.375)">
                    <path id="Path_33032" data-name="Path 33032" d="M17.957,18.288C12.451,25.022,5.209,28.208,1.779,25.4S.03,14.867,5.535,8.134,18.283-1.786,21.713,1.018,23.461,11.554,17.957,18.288Z" transform="translate(0 0)" fill="#72e3ff"/>
                    <path id="Path_33033" data-name="Path 33033" d="M0,5.8a39.9,39.9,0,0,1,6.5,6.69,29.858,29.858,0,0,0,3.342-3.48,29.967,29.967,0,0,0,2.747-3.967A39.933,39.933,0,0,1,4.739,0Z" transform="translate(8.115 9.281)" fill="#1238a7"/>
                    <path id="Path_33034" data-name="Path 33034" d="M4.45,4.494C3.128,6.111,1.349,6.843.475,6.129s-.51-2.6.813-4.22S4.39-.441,5.262.274,5.772,2.877,4.45,4.494Z" transform="translate(7.615 8.979)" fill="#fff"/>
                  </g>
                </g>
              </g>
              <path id="Path_33035" data-name="Path 33035" d="M12.731,14.793A19.033,19.033,0,0,0,8.546,4.407C6.4,1.906,4.267-.285.987.03.54.073-.018.3,0,.745a.943.943,0,0,0,.468.645A8.683,8.683,0,0,1,3.981,6.029,20.116,20.116,0,0,1,4.22,9.1a9.761,9.761,0,0,0,3.664,6.818" transform="translate(22.984 40.599)" fill="#ffa18d"/>
              <path id="Path_33036" data-name="Path 33036" d="M.109,2.743A4.446,4.446,0,0,1,.1.954,2.157,2.157,0,0,1,.726.2,1.058,1.058,0,0,1,1.571.021,2.463,2.463,0,0,1,2.385.37,4.566,4.566,0,0,1,4.664,3.386a.443.443,0,0,1-.011.24.378.378,0,0,1-.135.153,1.993,1.993,0,0,1-1.153.356C2.43,4.134.853,2.574.74,2.327" transform="translate(17.577 43.564)" fill="#ff886f"/>
              <path id="Path_33037" data-name="Path 33037" d="M.006,2.824A5.278,5.278,0,0,1,.278.877,1.417,1.417,0,0,1,.689.2,1.059,1.059,0,0,1,1.534.021,2.47,2.47,0,0,1,2.347.37,4.563,4.563,0,0,1,4.626,3.386a.444.444,0,0,1-.01.24.39.39,0,0,1-.136.154,1.343,1.343,0,0,1-1.152.143,3.983,3.983,0,0,1-1.061-.556l-1.1-.728A1.465,1.465,0,0,1,.59,2.082" transform="translate(19.121 41.974)" fill="#ff886f"/>
              <path id="Path_33038" data-name="Path 33038" d="M.006,2.824A5.276,5.276,0,0,1,.277.878,1.407,1.407,0,0,1,.688.2,1.055,1.055,0,0,1,1.533.022a2.43,2.43,0,0,1,.813.349A4.556,4.556,0,0,1,4.625,3.386a.434.434,0,0,1-.01.24.386.386,0,0,1-.136.153,1.342,1.342,0,0,1-1.152.143,3.958,3.958,0,0,1-1.06-.556l-1.1-.729a1.475,1.475,0,0,1-.577-.556" transform="translate(20.627 40.384)" fill="#ff886f"/>
              <path id="Path_33039" data-name="Path 33039" d="M.006,2.824A5.3,5.3,0,0,1,.277.877,1.426,1.426,0,0,1,.688.2,1.058,1.058,0,0,1,1.533.021,2.454,2.454,0,0,1,2.347.37,4.566,4.566,0,0,1,4.626,3.386a.453.453,0,0,1-.01.24.381.381,0,0,1-.136.153,1.342,1.342,0,0,1-1.153.144,3.976,3.976,0,0,1-1.06-.556l-1.1-.728A1.475,1.475,0,0,1,.59,2.082" transform="translate(22.133 38.795)" fill="#ff886f"/>
              <path id="Path_33040" data-name="Path 33040" d="M0,0S.014,6.484,2,8.466" transform="translate(27.353 48.049)" stroke="#d85039" stroke-linejoin="round" stroke-width="0.75" fill="none"/>
            </g>
            <g id="Group_31822" data-name="Group 31822" transform="translate(85.734 121.538)">
              <g id="Group_31818" data-name="Group 31818" transform="translate(4.391 139.52)">
                <path id="Path_33041" data-name="Path 33041" d="M173.641,429.548v-1.727H147.207a3.1,3.1,0,0,1-2.662-1.51l-.192-.034v2.776a.407.407,0,0,0,.11.278l.066.071a2.387,2.387,0,0,0,1.741.753h26.763A.608.608,0,0,0,173.641,429.548Z" transform="translate(-144.353 -395.633)" fill="#010101"/>
                <path id="Path_33042" data-name="Path 33042" d="M171.436,394.683l1.426,22.134-.737,8.992H146.548a1.3,1.3,0,0,1-1.3-1.3h0a1.3,1.3,0,0,1,.835-1.215l12.244-7.385-4.561-21.681" transform="translate(-144.392 -394.226)" fill="#ff886f"/>
                <path id="Path_33043" data-name="Path 33043" d="M158.285,416.9l-13.01,7.349a1.642,1.642,0,0,0-.922,1.524h0a1.789,1.789,0,0,0,1.723,1.634h27.565l-.79-9.887S164.348,420.313,158.285,416.9Z" transform="translate(-144.353 -395.222)" fill="#173682"/>
                <path id="Path_33044" data-name="Path 33044" d="M156.376,417.527a15.861,15.861,0,0,1,1.916,3.178" transform="translate(-144.881 -395.249)" stroke="#010101" stroke-linecap="round" stroke-linejoin="round" stroke-width="1" fill="none"/>
                <path id="Path_33045" data-name="Path 33045" d="M154.608,418.6a13.972,13.972,0,0,1,1.576,2.7" transform="translate(-144.803 -395.296)" stroke="#010101" stroke-linecap="round" stroke-linejoin="round" stroke-width="1" fill="none"/>
                <path id="Path_33046" data-name="Path 33046" d="M153.113,419.378a19.55,19.55,0,0,1,1.429,2.481" transform="translate(-144.738 -395.331)" stroke="#010101" stroke-linecap="round" stroke-linejoin="round" stroke-width="1" fill="none"/>
              </g>
              <g id="Group_31819" data-name="Group 31819" transform="translate(50.828 139.52)">
                <path id="Path_33047" data-name="Path 33047" d="M222.21,429.548v-1.727H195.776a3.1,3.1,0,0,1-2.662-1.51l-.192-.034v2.776a.406.406,0,0,0,.11.278l.066.071a2.387,2.387,0,0,0,1.741.753H221.6A.608.608,0,0,0,222.21,429.548Z" transform="translate(-192.922 -395.633)" fill="#010101"/>
                <path id="Path_33048" data-name="Path 33048" d="M220.005,394.683l1.426,22.134-.737,8.992H195.117a1.3,1.3,0,0,1-1.3-1.3h0a1.3,1.3,0,0,1,.835-1.215l12.244-7.385-4.561-21.681" transform="translate(-192.961 -394.226)" fill="#ff886f"/>
                <path id="Path_33049" data-name="Path 33049" d="M206.854,416.9l-13.01,7.349a1.642,1.642,0,0,0-.922,1.524h0a1.789,1.789,0,0,0,1.724,1.634H222.21l-.79-9.887S212.917,420.313,206.854,416.9Z" transform="translate(-192.922 -395.222)" fill="#173682"/>
                <path id="Path_33050" data-name="Path 33050" d="M204.945,417.527a15.862,15.862,0,0,1,1.916,3.178" transform="translate(-193.45 -395.249)" stroke="#010101" stroke-linecap="round" stroke-linejoin="round" stroke-width="1" fill="none"/>
                <path id="Path_33051" data-name="Path 33051" d="M203.177,418.6a13.972,13.972,0,0,1,1.576,2.7" transform="translate(-193.372 -395.296)" stroke="#010101" stroke-linecap="round" stroke-linejoin="round" stroke-width="1" fill="none"/>
                <path id="Path_33052" data-name="Path 33052" d="M201.682,419.378a19.431,19.431,0,0,1,1.429,2.481" transform="translate(-193.307 -395.331)" stroke="#010101" stroke-linecap="round" stroke-linejoin="round" stroke-width="1" fill="none"/>
              </g>
              <path id="Path_33053" data-name="Path 33053" d="M166.135,248.3s-2.335,17.9,0,34.234,31.416,119.981,31.416,119.981h30.97l-17.167-117.22s1.311-17.8-9.228-32.94" transform="translate(-140.872 -248.298)" fill="#afd23d"/>
              <path id="Path_33054" data-name="Path 33054" d="M140.507,252.4s-1.352,24.035-.418,50.452c1.547,43.75,8.9,99.708,8.9,99.708h29.357l-1.411-113.982s6.151-26.856.186-39.195" transform="translate(-139.76 -248.346)" fill="#afd23d"/>
              <line id="Line_413" data-name="Line 413" x2="31.934" transform="translate(54.652 146.955)" stroke="#4376cf" stroke-linejoin="round" stroke-width="0.75" fill="none"/>
              <line id="Line_414" data-name="Line 414" x1="30.218" transform="translate(8.318 146.955)" stroke="#4376cf" stroke-linejoin="round" stroke-width="0.75" fill="none"/>
              <g id="Group_31821" data-name="Group 31821" transform="translate(0.525 10.727)">
                <g id="Group_31820" data-name="Group 31820" transform="translate(0 0)">
                  <path id="Path_33055" data-name="Path 33055" d="M178.6,335.591s-10.194-51.418-13.5-72.983" transform="translate(-141.398 -259.652)" stroke="#2eb162" stroke-linejoin="round" stroke-width="0.75" fill="none"/>
                  <path id="Path_33056" data-name="Path 33056" d="M162.325,262.608l2.23,13.469a3.5,3.5,0,0,0,2.137,2.461l.966.377" transform="translate(-141.276 -259.652)" stroke="#2eb162" stroke-linejoin="round" stroke-width="0.75" fill="none"/>
                  <path id="Path_33057" data-name="Path 33057" d="M225.282,403.005,205.8,285.364s1.186-16.334-5.836-25.847" transform="translate(-142.929 -259.517)" stroke="#2eb162" stroke-linejoin="round" stroke-width="0.75" fill="none"/>
                  <path id="Path_33058" data-name="Path 33058" d="M187.518,262.685s2.866,5.572,5.513,6.484,11.341,2.942,11.341,2.942" transform="translate(-142.382 -259.656)" stroke="#2eb162" stroke-linejoin="round" stroke-width="0.75" fill="none"/>
                  <path id="Path_33059" data-name="Path 33059" d="M140.309,272.061s6.9-2.03,8.854-2.942c2.477-1.158,2.683-7.57,2.683-7.57" transform="translate(-140.309 -259.608)" stroke="#2eb162" stroke-linejoin="round" stroke-width="0.75" fill="none"/>
                  <path id="Path_33060" data-name="Path 33060" d="M175.461,404.946s-3.3-89.09-3.3-101.22" transform="translate(-141.708 -261.458)" stroke="#2eb162" stroke-linejoin="round" stroke-width="0.75" fill="none"/>
                </g>
              </g>
            </g>
            <path id="Path_33061" data-name="Path 33061" d="M154.34,170.317s-12.3,9.293-14.135,34.034c-1.775,23.912-2.27,52.3-2.27,52.3,28.9,9.047,71.9-.311,71.9-.311s-7.547-63.069-19.325-81.7l-21.024-9.524Z" transform="translate(-53.946 -123.107)" fill="#fad24c"/>
            <g id="Group_31823" data-name="Group 31823" transform="translate(118.238 43.213)">
              <path id="Path_33062" data-name="Path 33062" d="M190.472,199.714s8.736,11.507,18.531,24.632c7.732,10.361,42.315,34.935,42.315,34.935l5.9-10.336-27.767-33.991-20.935-29.8" transform="translate(-174.491 -167.2)" fill="#ffa18d"/>
              <path id="Path_33063" data-name="Path 33063" d="M258.465,250.732c2.147,1.694,6.288,4.594,8.436,6.288,1.267,1,3.386,2.892,3.091,3.562-.76,1.723-3.771-2.054-4.156-1.18-.234.531,2.566,2.6,4,3.662,1.277.952,2.877,2.418,2.513,3.373-.468,1.229-7.6-4.165-7.6-4.165s7.265,5.994,6.819,7c-.643,1.458-7.964-4.556-7.964-4.556s6.107,5.223,5.63,6.3-4.867-2.87-6.913-4.165c1.24,1.274,4.781,4.223,4.434,5.009s-3.259-1.024-3.926-1.553c-4.022-3.2-11.354-10.348-11.354-10.348" transform="translate(-177.17 -170.079)" fill="#ff886f"/>
              <path id="Path_33064" data-name="Path 33064" d="M257.545,254.932s2.373,3.564,5.725,3.691" transform="translate(-177.436 -170.264)" stroke="#d85039" stroke-linejoin="round" stroke-width="0.75" fill="none"/>
              <path id="Path_33065" data-name="Path 33065" d="M173.757,166.429s19.6-1.161,28.122,7.361a85.944,85.944,0,0,1,14,19.388l-21.417,18.065-11.4-19.881" transform="translate(-173.757 -166.375)" fill="#fad24c"/>
              <line id="Line_415" data-name="Line 415" x1="12.029" y1="17.292" transform="translate(8.676 27.575)" stroke="#1e8848" stroke-linejoin="round" stroke-width="0.75" fill="none"/>
            </g>
            <path id="Path_33066" data-name="Path 33066" d="M159.576,166.375c.4.4-.964,6.49,8.623,6.49,9.205,0,11.6-6.274,11.6-6.274" transform="translate(-54.896 -123.163)" stroke="#1e8848" stroke-linejoin="round" stroke-width="0.75" fill="none"/>
            <line id="Line_416" data-name="Line 416" y1="25.549" x2="2.502" transform="translate(85.656 60.319)" stroke="#1e8848" stroke-linejoin="round" stroke-width="0.75" fill="none"/>
            <g id="Group_31826" data-name="Group 31826" transform="translate(101.07 8.465)">
              <path id="Path_33067" data-name="Path 33067" d="M162.975,155.214l9.992-11.744,4.014,11.581.262,2.539-.36,8.938s-8.029,5.744-14.1,1.032a1.338,1.338,0,0,1-.492-1.143l.681-11.2" transform="translate(-156.086 -130.622)" fill="#ffa18d"/>
              <path id="Path_33068" data-name="Path 33068" d="M165.038,134.716c-3.288,3.656-9.454,16.49-6.7,21.562,2.49,4.583,7.69,4.445,11.008,2.9,2.878-1.339,10.641-12.45,9.008-16.964S169.647,129.588,165.038,134.716Z" transform="translate(-155.882 -130.166)" fill="#ffa18d"/>
              <path id="Path_33069" data-name="Path 33069" d="M177.674,134.52c-1.1-2.689-4.206-4.29-7.312-4.483-1.573-.1-10.308,1.363-10.786,7.691l11.091,2.795c.628,3.256,1.149,7.788,2.54,10.8.153.33,3.4,6.826,3.779,6.489,6.7-4.34,10.17-9.851,8.415-15.14C184.454,139.816,182.147,135.226,177.674,134.52Z" transform="translate(-155.966 -130.032)" fill="#010101"/>
              <path id="Path_33070" data-name="Path 33070" d="M163.2,161.149s4.776.564,7.547-1.887" transform="translate(-156.126 -131.316)" stroke="#d85039" stroke-linejoin="round" stroke-width="0.75" fill="none"/>
              <path id="Path_33071" data-name="Path 33071" d="M161.315,144.41s-5.666,3-5.511,4.4,2.3,1.708,2.3,1.708" transform="translate(-155.801 -130.664)" fill="#ffa18d"/>
              <g id="Group_31824" data-name="Group 31824" transform="translate(6.748 13.638)">
                <path id="Path_33072" data-name="Path 33072" d="M163.454,144.474a3.774,3.774,0,0,0-.52.807.6.6,0,0,0,.5.866c.768.124,1.444-1.5.58-1.817A.508.508,0,0,0,163.454,144.474Z" transform="translate(-162.858 -144.297)" fill="#010101"/>
              </g>
              <path id="Path_33073" data-name="Path 33073" d="M159.859,152.841l5.558,1.1s-1.7,3.792-4.913,2.841C158.551,156.2,159.859,152.841,159.859,152.841Z" transform="translate(-155.96 -131.034)" fill="#fff"/>
              <g id="Group_31825" data-name="Group 31825" transform="translate(7.065 11.082)">
                <path id="Path_33074" data-name="Path 33074" d="M163.209,142.584a9.74,9.74,0,0,1,2.856,2.312c.139,0,.683-.374.676-.76a7.113,7.113,0,0,0-2.955-2.513S163.067,142.337,163.209,142.584Z" transform="translate(-163.19 -141.623)" fill="#010101"/>
              </g>
              <path id="Path_33075" data-name="Path 33075" d="M172.608,150.359c.8-.541,1.774-1.111,2.6-.779a1.6,1.6,0,0,1,.869,1,4.557,4.557,0,0,1-2.872,5.716c-.978.268-2.049.073-2.235-1.087l1.243-4.383C172.241,150.623,172.434,150.477,172.608,150.359Z" transform="translate(-156.467 -130.886)" fill="#ffa18d"/>
              <path id="Path_33076" data-name="Path 33076" d="M174.326,156.059s-1.966,1.094-3.22-.137" transform="translate(-156.473 -131.169)" stroke="#d85039" stroke-linejoin="round" stroke-width="0.75" fill="none"/>
            </g>
          </g>
        </g>
        <g id="Group_31840" data-name="Group 31840" transform="translate(1797.394 4227.28)">
          <g id="Group_31833" data-name="Group 31833" transform="translate(11.188 85.722)">
            <g id="Group_31830" data-name="Group 31830" transform="translate(0 155.068)">
              <path id="Path_33077" data-name="Path 33077" d="M540.937,383.294,539.11,416.08s-16.831,11.64-16.831,11.844,15.523.763,15.523.763l6.871-3.359h11.384a1.224,1.224,0,0,0,1.193-1.5l-1.4-6.128,4.683-26.212" transform="translate(-520.629 -383.294)" fill="#ffa18d"/>
              <path id="Path_33078" data-name="Path 33078" d="M523.389,425.8c2.445-1.42,10.882-6.742,10.882-6.742l10.343,6.442h12.97v4.783H544.206v-2.868h-1.172a1.369,1.369,0,0,0-.822.275l-2.938,2.2a1.946,1.946,0,0,1-1.17.39H522.271C520.133,430.28,519.655,427.968,523.389,425.8Z" transform="translate(-520.621 -383.462)" fill="#010101"/>
              <g id="Group_31829" data-name="Group 31829" transform="translate(26.254 35.593)">
                <path id="Path_33079" data-name="Path 33079" d="M548.193,426.4l8.619-5.317-.462-2.026L547,425.511Z" transform="translate(-546.999 -419.055)" fill="#010101"/>
              </g>
            </g>
            <g id="Group_31832" data-name="Group 31832" transform="translate(81.347 126.647)">
              <path id="Path_33080" data-name="Path 33080" d="M602.353,364.065l23.441,23s-2.35,20.329-2.2,20.463,10.81-11.165,10.81-11.165l2.007-7.38,7.507-8.558a1.225,1.225,0,0,0-.337-1.885l-5.529-2.99-16.617-20.808" transform="translate(-602.353 -354.738)" fill="#ffa18d"/>
              <path id="Path_33081" data-name="Path 33081" d="M622.705,405.285c.543-2.775,2.107-12.626,2.107-12.626l11.663-3.526,8.554-9.751,3.6,3.155L639.8,392.593l-2.156-1.892-.773.881a1.376,1.376,0,0,0-.336.8l-.28,3.662a1.954,1.954,0,0,1-.479,1.138l-10.441,11.9C623.927,410.689,621.874,409.523,622.705,405.285Z" transform="translate(-602.448 -354.854)" fill="#010101"/>
              <g id="Group_31831" data-name="Group 31831" transform="translate(35.53 21.301)">
                <path id="Path_33082" data-name="Path 33082" d="M639.5,387.113l1.687-9.985-1.827-.989-1.313,11.287Z" transform="translate(-638.051 -376.14)" fill="#010101"/>
              </g>
            </g>
            <path id="Path_33083" data-name="Path 33083" d="M557.48,248.015s-18.425,52.856-20.778,75.451-4.421,80.968-4.421,80.968h33.842s4.718-73.787,7.9-85.067c1.751-6.2,3.881-17.67,8.076-37.884,5.635-14.423,8.469-19.86,5.837-31.83" transform="translate(-520.676 -227.589)" fill="#f99229"/>
            <path id="Path_33084" data-name="Path 33084" d="M571.683,247.437s0,16.865-1.475,24.744c-1.938,8.369-12.447,38.08-6.82,53.907S610.765,385.2,610.765,385.2L629.2,361.863l-35.045-45.832,9.041-36.153s8.847-15.808.592-31.865" transform="translate(-520.815 -227.586)" fill="#f99229"/>
            <path id="Path_33085" data-name="Path 33085" d="M571.683,256.282a99.107,99.107,0,0,1-1.475,15.94c-1.938,8.369-12.447,38.08-6.82,53.907,1.3,3.649,4.353,8.555,8.292,13.948" transform="translate(-520.815 -227.628)" stroke="#91302c" stroke-linejoin="round" stroke-width="0.75" fill="none"/>
            <path id="Path_33086" data-name="Path 33086" d="M560.338,236.126,557.6,247.918c17.441,6.23,46.168,0,46.168,0l-9.077-20.426" transform="translate(-520.795 -227.492)" fill="#ffa18d"/>
            <path id="Path_33087" data-name="Path 33087" d="M626.5,365.472,591.236,322a6.9,6.9,0,0,1-1.418-5.673l6.767-34.679a13.683,13.683,0,0,1,.991-3.06c1.883-4.117,4.358-17.714,2.37-24.25" transform="translate(-520.946 -227.618)" stroke="#91302c" stroke-linejoin="round" stroke-width="0.75" fill="none"/>
            <path id="Path_33088" data-name="Path 33088" d="M555.886,253.033s15.01,8.236,49.922,0" transform="translate(-520.787 -227.612)" stroke="#91302c" stroke-linejoin="round" stroke-width="0.75" fill="none"/>
            <path id="Path_33089" data-name="Path 33089" d="M566.947,255.995l-1.677-.231a.866.866,0,0,1-.825-.957l.752-3.913a.99.99,0,0,1,1.126-.695l3.988.325" transform="translate(-520.828 -227.599)" stroke="#91302c" stroke-linejoin="round" stroke-width="0.75" fill="none"/>
            <path id="Path_33090" data-name="Path 33090" d="M557.6,248.015c17.441,6.23,46.168,0,46.168,0" transform="translate(-520.795 -227.589)" stroke="#91302c" stroke-linejoin="round" stroke-width="0.75" fill="none"/>
            <ellipse id="Ellipse_4078" data-name="Ellipse 4078" cx="1.47" cy="1.226" rx="1.47" ry="1.226" transform="translate(45.901 24.267)" fill="#f8f4f1"/>
            <line id="Line_417" data-name="Line 417" x2="0.704" y2="5.798" transform="translate(59.887 23.195)" stroke="#91302c" stroke-linejoin="round" stroke-width="0.75" fill="none"/>
            <line id="Line_418" data-name="Line 418" x2="1.64" y2="5.374" transform="translate(74.875 21.811)" stroke="#91302c" stroke-linejoin="round" stroke-width="0.75" fill="none"/>
            <path id="Path_33091" data-name="Path 33091" d="M589.69,256.022a14.074,14.074,0,0,0,10.764,9.166" transform="translate(-520.947 -227.626)" stroke="#91302c" stroke-linejoin="round" stroke-width="0.75" fill="none"/>
            <path id="Path_33092" data-name="Path 33092" d="M568.212,256.186s-.826,12.82-.826,14.348c0,1.87,2.573,2.8,2.573,2.8" transform="translate(-520.842 -227.627)" stroke="#91302c" stroke-linejoin="round" stroke-width="0.75" fill="none"/>
            <path id="Path_33093" data-name="Path 33093" d="M553.578,259.952a11.322,11.322,0,0,0,8.133-4.555" transform="translate(-520.776 -227.623)" stroke="#91302c" stroke-linejoin="round" stroke-width="0.75" fill="none"/>
            <line id="Line_419" data-name="Line 419" y1="70.314" x2="6.392" transform="translate(40.399 106.531)" stroke="#91302c" stroke-linejoin="round" stroke-width="0.75" fill="none"/>
          </g>
          <g id="Group_31834" data-name="Group 31834" transform="translate(0 34.369)">
            <path id="Path_33094" data-name="Path 33094" d="M555.319,188.473l-10.491,31.771-25.592,29.779,6.191,5.939s30.312-22.155,34.917-28.451S576.8,188.354,576.8,188.354" transform="translate(-509.427 -175.955)" fill="#ffa18d"/>
            <path id="Path_33095" data-name="Path 33095" d="M521.366,248.622c-1.834,1.474-5.362,4.047-7.2,5.521-1.082.869-2.9,2.486-2.661,2.948.6,1.186,3.2-1.911,3.507-1.31.186.365-2.2,2.182-3.424,3.118-1.09.835-2.46,2.083-2.174,2.747.368.854,6.451-3.871,6.451-3.871s-6.208,5.18-5.854,5.876c.511,1,6.767-4.2,6.767-4.2s-5.222,4.49-4.845,5.232,4.138-2.629,5.878-3.8c-1.066,1.068-4.092,3.614-3.817,4.155s2.753-1.1,3.321-1.56c3.436-2.778,9.724-8.816,9.724-8.816" transform="translate(-509.38 -176.238)" fill="#ffa18d"/>
            <path id="Path_33096" data-name="Path 33096" d="M515.043,255.811a12.223,12.223,0,0,0,5.207-.852" transform="translate(-509.407 -176.268)" stroke="#e07a6c" stroke-linejoin="round" stroke-width="0.75" fill="none"/>
            <path id="Path_33097" data-name="Path 33097" d="M509.58,256.284c.708,1.774,1.23,3.515,2.092,5.219.217.428.634.929,1.07.729.394-.182.354-.744.271-1.17-.167-.848-.608-2.908-.608-2.908" transform="translate(-509.381 -176.275)" fill="#ff886f"/>
            <path id="Path_33098" data-name="Path 33098" d="M518.081,262.988q-1.716-.96-3.464-1.863a1.655,1.655,0,0,0-.6-.217.566.566,0,0,0-.551.259.739.739,0,0,0,.093.676,5.287,5.287,0,0,0,2.974,2.111,1.984,1.984,0,0,0,.868.174.717.717,0,0,0,.655-.515" transform="translate(-509.399 -176.296)" fill="#ff886f"/>
            <path id="Path_33099" data-name="Path 33099" d="M519.215,262.2c-1.018-.826-2.144-1.392-3.19-2.184a1.651,1.651,0,0,0-.558-.315.565.565,0,0,0-.587.161.743.743,0,0,0-.024.682,5.288,5.288,0,0,0,2.573,2.585,1.986,1.986,0,0,0,.826.32,1,1,0,0,0,1.171-1.158" transform="translate(-509.406 -176.291)" fill="#ff886f"/>
            <path id="Path_33100" data-name="Path 33100" d="M520.184,261.019c-1.019-.825-1.662-1.258-2.708-2.049a1.657,1.657,0,0,0-.558-.316.565.565,0,0,0-.587.161.742.742,0,0,0-.024.682,5.289,5.289,0,0,0,2.573,2.585,1.982,1.982,0,0,0,.826.319c.3.022,1.053,0,.9-1.249" transform="translate(-509.413 -176.286)" fill="#ff886f"/>
            <path id="Path_33101" data-name="Path 33101" d="M521.384,260.027c-.958-.9-1.383-1.355-2.371-2.218a1.654,1.654,0,0,0-.535-.354.565.565,0,0,0-.6.119.739.739,0,0,0-.071.678,5.281,5.281,0,0,0,2.382,2.761,1.992,1.992,0,0,0,.8.377c.295.044,1.239-.282.717-1.659" transform="translate(-509.42 -176.28)" fill="#ff886f"/>
            <path id="Path_33102" data-name="Path 33102" d="M570.727,175.9s-11.543,1.136-18.265,9.983c-5.972,7.861-9.235,25.735-9.235,25.735l12.454,9.356L566.3,203.163" transform="translate(-509.54 -175.896)" fill="#fff"/>
          </g>
          <path id="Path_33103" data-name="Path 33103" d="M559.073,190.3c-8.75,13.476-8.75,49.392-8.75,49.392s22.824,8.276,57.411-.9c0,0-7.2-37.064-10.622-40.37S573.4,172.778,573.4,172.778L561.7,182.121Z" transform="translate(-509.573 -141.512)" fill="#fff"/>
          <g id="Group_31835" data-name="Group 31835" transform="translate(65.808 34.369)">
            <path id="Path_33104" data-name="Path 33104" d="M616.176,264.51c.03,2.353-.12,6.717-.09,9.07.018,1.387.172,3.813.68,3.912,1.306.257.47-3.7,1.132-3.569.4.079.36,3.079.344,4.619-.015,1.372.123,3.221.823,3.4.9.237.929-7.465.929-7.465s.25,8.082,1.016,8.232c1.105.216.867-7.916.867-7.916s.316,6.88,1.134,7.041.481-4.878.633-6.969c.184,1.5.323,5.449.919,5.567s.831-2.846.82-3.577c-.07-4.417-.947-13.091-.947-13.091" transform="translate(-575.691 -176.31)" fill="#ffa18d"/>
            <path id="Path_33105" data-name="Path 33105" d="M607.694,195.481s9.7,20.006,11.566,24.507c5.372,12.971,5.186,44.784,5.186,44.784l-8.254.172s-9.074-36.427-9.994-37.57c-3.5-4.358-15.258-22.664-15.258-22.664" transform="translate(-575.573 -175.988)" fill="#ffa18d"/>
            <path id="Path_33106" data-name="Path 33106" d="M575.5,175.9s17.238.676,26.64,7.546,17.108,28.31,17.108,28.31l-24.317,10.529-9.715-21.059" transform="translate(-575.5 -175.896)" fill="#fff"/>
            <path id="Path_33107" data-name="Path 33107" d="M585.262,201.342l9.716,21.059,24.317-10.53" transform="translate(-575.546 -176.016)" stroke="#d6d6d6" stroke-linejoin="round" stroke-width="0.75" fill="none"/>
          </g>
          <g id="Group_31839" data-name="Group 31839" transform="translate(44.543 0)">
            <g id="Group_31836" data-name="Group 31836" transform="translate(11.152 22.155)">
              <path id="Path_33108" data-name="Path 33108" d="M572.291,163.624l5.766,10.349s.329,4.6-5.243,6.615c-3.975,1.438-5.015-2.679-5.015-2.679l-2.46-11.769" transform="translate(-565.338 -163.624)" fill="#ffa18d"/>
            </g>
            <path id="Path_33109" data-name="Path 33109" d="M559.465,150.2c-4.289,6.3-6.4,20.99,2.262,21.03a12.342,12.342,0,0,0,12.346-10.9C575.068,151.97,563.755,143.9,559.465,150.2Z" transform="translate(-554.141 -141.395)" fill="#ffa18d"/>
            <path id="Path_33110" data-name="Path 33110" d="M566.256,170.524a14.067,14.067,0,0,0,5.171-3.9" transform="translate(-554.191 -141.483)" stroke="#e07a6c" stroke-linejoin="round" stroke-width="0.75" fill="none"/>
            <path id="Path_33111" data-name="Path 33111" d="M560.807,158.7a.779.779,0,1,1-.91-.62A.779.779,0,0,1,560.807,158.7Z" transform="translate(-554.158 -141.443)" fill="#33002c"/>
            <path id="Path_33112" data-name="Path 33112" d="M558.712,156.6a3.235,3.235,0,0,1,4.585,1.265" transform="translate(-554.155 -141.434)" stroke="#33002c" stroke-linejoin="round" stroke-width="1" fill="none"/>
            <path id="Path_33113" data-name="Path 33113" d="M557.167,157.883s-3.441,4.948-2.993,5.609c.74,1.092,2.516.755,2.516.755" transform="translate(-554.134 -141.442)" fill="#ffa18d"/>
            <path id="Path_33114" data-name="Path 33114" d="M561.547,165.8l-4.6-.726s.092,3.561,1.6,3.825C561.478,169.408,561.547,165.8,561.547,165.8Z" transform="translate(-554.147 -141.476)" fill="#fff"/>
            <g id="Group_31837" data-name="Group 31837" transform="translate(0.497)">
              <path id="Path_33115" data-name="Path 33115" d="M576.467,142.619a12.2,12.2,0,0,0-13.189,1.554c-2.834,0-6.8,1.616-8.151,5.5a6.734,6.734,0,0,0,1.326,7.218c.3-1.066,1.845-5.18,3.367-6.514a30.72,30.72,0,0,1,4.439,4.576,38.323,38.323,0,0,1,3.814,6.326c1.109,2.318,2.457,4.5,3.681,6.77a27.476,27.476,0,0,0,4.556,6.452,25.863,25.863,0,0,0,10.123,5.9c3.731,1.271,7.615,2.015,11.452,2.916,2.483.583,5.036,1.274,7.011,2.887a24.237,24.237,0,0,1,3.825,4.451,16.525,16.525,0,0,0,.047-10.385c-1.011-2.91-3.013-3.906-3.587-5.092-1.362-2.809-.352-3.831-.79-6.852a9.926,9.926,0,0,0-3.693-6.266c-2.389-1.894-5.345-2.259-8.255-2.771a16.643,16.643,0,0,1-7.1-2.8c-1.976-1.481-2.105-5.446-3.1-7.608A13.468,13.468,0,0,0,576.467,142.619Z" transform="translate(-554.632 -141.364)" fill="#010101"/>
            </g>
            <g id="Group_31838" data-name="Group 31838" transform="translate(12.222 18.991)">
              <path id="Path_33116" data-name="Path 33116" d="M566.413,161.622a2.194,2.194,0,0,1,2.669-1.063c1.537.562,1.988,2.438,1.646,4.039a2.767,2.767,0,0,1-2.305,2.492c-.853.1-1.684-.819-1.8-2.141" transform="translate(-566.413 -160.445)" fill="#ffa18d"/>
            </g>
          </g>
          <path id="Path_33117" data-name="Path 33117" d="M551.657,217.99s1.272-20.56,4.209-26.6" transform="translate(-509.579 -141.6)" stroke="#d6d6d6" stroke-linejoin="round" stroke-width="0.75" fill="none"/>
        </g>
      </g>
    </g>
  </g>
</svg>