<svg width="23" height="23" viewBox="0 0 23 23" fill="none" xmlns="http://www.w3.org/2000/svg">
<path d="M11.6672 17.9364C12.6396 17.9364 13.5722 17.5501 14.2599 16.8624C14.9475 16.1748 15.3338 15.2422 15.3338 14.2697C15.3338 13.2972 14.9475 12.3646 14.2599 11.677C13.5722 10.9893 12.6396 10.603 11.6672 10.603C10.6947 10.603 9.76206 10.9893 9.07443 11.677C8.3868 12.3646 8.00049 13.2972 8.00049 14.2697C8.00049 15.2422 8.3868 16.1748 9.07443 16.8624C9.76206 17.5501 10.6947 17.9364 11.6672 17.9364V17.9364Z" stroke="#2F80ED" stroke-width="1.5" stroke-miterlimit="10" stroke-linecap="round" stroke-linejoin="round"/>
<path d="M10.2373 14.2699L10.8331 14.8657C11.0073 15.0399 11.2915 15.0491 11.4656 14.8749L13.0973 13.3716" stroke="#2F80ED" stroke-width="1.5" stroke-linecap="round" stroke-linejoin="round"/>
<path d="M8.91708 20.6864H14.4171C18.1021 20.6864 18.7621 19.2105 18.9546 17.4139L19.6421 11.9139C19.8896 9.67719 19.2479 7.85303 15.3337 7.85303H8.00041C4.08624 7.85303 3.44458 9.67719 3.69208 11.9139L4.37958 17.4139C4.57208 19.2105 5.23208 20.6864 8.91708 20.6864Z" stroke="#2F80ED" stroke-width="1.5" stroke-miterlimit="10" stroke-linecap="round" stroke-linejoin="round"/>
<path d="M7.54199 7.55061V6.66144C7.54199 4.59894 9.20116 2.57311 11.2637 2.38061C11.8367 2.3243 12.4153 2.38861 12.962 2.56938C13.5087 2.75016 14.0115 3.0434 14.4381 3.43023C14.8646 3.81706 15.2055 4.28892 15.4386 4.81543C15.6718 5.34194 15.7922 5.91144 15.792 6.48727V7.75227" stroke="#2F80ED" stroke-width="1.5" stroke-miterlimit="10" stroke-linecap="round" stroke-linejoin="round"/>
</svg>
