<svg width="30" height="30" viewBox="0 0 30 30" fill="none" xmlns="http://www.w3.org/2000/svg">
<path d="M18.9564 3.4585H10.3764C7.33312 3.4585 6.66089 4.9739 6.26978 6.83149L4.88867 13.443H24.4442L23.0631 6.83149C22.672 4.9739 21.9998 3.4585 18.9564 3.4585V3.4585Z" stroke="#2F80ED" stroke-width="1.5" stroke-linecap="round" stroke-linejoin="round"/>
<path d="M26.8768 24.2218C27.0112 25.6516 25.8623 26.886 24.3956 26.886H22.0979C20.7779 26.886 20.5945 26.3238 20.3623 25.6272L20.1179 24.8939C19.7756 23.8918 19.5556 23.2197 17.7956 23.2197H11.5379C9.77786 23.2197 9.5212 23.9774 9.21564 24.8939L8.9712 25.6272C8.73897 26.3238 8.55564 26.886 7.23564 26.886H4.93786C3.4712 26.886 2.32231 25.6516 2.45675 24.2218L3.1412 16.7792C3.31231 14.9461 3.66675 13.4429 6.86897 13.4429H22.4645C25.6668 13.4429 26.0212 14.9461 26.1923 16.7792L26.8768 24.2218Z" stroke="#2F80ED" stroke-width="1.5" stroke-linecap="round" stroke-linejoin="round"/>
<path d="M4.88897 9.77686H3.66675" stroke="#2F80ED" stroke-width="1.5" stroke-linecap="round" stroke-linejoin="round"/>
<path d="M25.667 9.77686H24.4448" stroke="#2F80ED" stroke-width="1.5" stroke-linecap="round" stroke-linejoin="round"/>
<path d="M14.6667 3.66602V6.11021" stroke="#2F80ED" stroke-width="1.5" stroke-linecap="round" stroke-linejoin="round"/>
<path d="M12.8335 6.11035H16.5002" stroke="#2F80ED" stroke-width="1.5" stroke-linecap="round" stroke-linejoin="round"/>
<path d="M7.3335 18.3315H11.0002" stroke="#2F80ED" stroke-width="1.5" stroke-linecap="round" stroke-linejoin="round"/>
<path d="M18.3335 18.3315H22.0002" stroke="#2F80ED" stroke-width="1.5" stroke-linecap="round" stroke-linejoin="round"/>
</svg>
