<svg width="41" height="41" viewBox="0 0 41 41" fill="none" xmlns="http://www.w3.org/2000/svg">
<g clip-path="url(#clip0_350_3063)">
<path d="M41 20.5C41 9.17815 31.8218 0 20.5 0C9.17816 0 0 9.17815 0 20.5C0 30.732 7.49651 39.2131 17.2969 40.751V26.4258H12.0918V20.5H17.2969V15.9836C17.2969 10.8458 20.3575 8.00781 25.04 8.00781C27.2822 8.00781 29.6289 8.4082 29.6289 8.4082V13.4531H27.044C24.4975 13.4531 23.7031 15.0335 23.7031 16.6562V20.5H29.3887L28.4798 26.4258H23.7031V40.751C33.5035 39.2131 41 30.732 41 20.5Z" fill="#1877F2"/>
<path d="M28.4798 26.4258L29.3887 20.5H23.7031V16.6563C23.7031 15.0351 24.4975 13.4531 27.044 13.4531H29.6289V8.4082C29.6289 8.4082 27.283 8.00781 25.04 8.00781C20.3575 8.00781 17.2969 10.8458 17.2969 15.9836V20.5H12.0918V26.4258H17.2969V40.751C19.4194 41.083 21.5806 41.083 23.7031 40.751V26.4258H28.4798Z" fill="white"/>
</g>
<defs>
<clipPath id="clip0_350_3063">
<rect width="41" height="41" fill="white"/>
</clipPath>
</defs>
</svg>
