<svg width="40" height="41" viewBox="0 0 40 41" fill="none" xmlns="http://www.w3.org/2000/svg">
<path d="M39.9994 20.4603C39.9994 19.1008 39.8869 17.7339 39.647 16.3965H20.4023V24.0979H31.4229C30.9656 26.5817 29.4961 28.7789 27.3445 30.1752V35.1723H33.9194C37.7803 31.689 39.9994 26.545 39.9994 20.4603Z" fill="#4285F4"/>
<path d="M20.2326 40.167C25.7354 40.167 30.376 38.396 33.7571 35.339L27.1823 30.3419C25.353 31.5618 22.9915 32.2525 20.2401 32.2525C14.9173 32.2525 10.4041 28.7325 8.78474 24H2V29.1514C5.46359 35.9048 12.5182 40.167 20.2326 40.167Z" fill="#34A853"/>
<path d="M8.94761 23.8331C8.09296 21.3493 8.09296 18.6597 8.94761 16.1758V11.0244H2.17037C-0.723456 16.6755 -0.723456 23.3334 2.17037 28.9845L8.94761 23.8331Z" fill="#FBBC04"/>
<path d="M20.4025 7.91583C23.3113 7.87174 26.1227 8.94464 28.2293 10.9141L34.0545 5.20419C30.366 1.80911 25.4705 -0.0574414 20.4025 0.00134773C12.6881 0.00134773 5.63351 4.26356 2.16992 11.0243L8.94717 16.1757C10.559 11.4358 15.0797 7.91583 20.4025 7.91583Z" fill="#EA4335"/>
</svg>
