<svg id="Interface-Solid" xmlns="http://www.w3.org/2000/svg" width="16" height="16.005" viewBox="0 0 16 16.005"><g id="interface-solid-rating-star-6"><path id="Path_50" data-name="Path 50" d="M21.3,12.771l-3.693-.153a.728.728,0,0,1-.65-.494L15.678,8.5a.713.713,0,0,0-1.358,0l-1.281,3.626a.728.728,0,0,1-.65.494L8.7,12.77a.764.764,0,0,0-.42,1.351l2.9,2.395a.777.777,0,0,1,.248.8l-1,3.721a.732.732,0,0,0,1.1.835L14.6,19.726a.7.7,0,0,1,.8,0l3.074,2.146a.732.732,0,0,0,1.1-.835l-1-3.721a.777.777,0,0,1,.248-.8l2.9-2.395a.764.764,0,0,0-.42-1.351Z" transform="translate(-6.999 -6.995)" fill="none"></path><path id="Path_51" data-name="Path 51" d="M15.261,8.034a.083.083,0,0,1,0-.06l.661-1.658a1.158,1.158,0,0,0-.472-1.41L13.9,3.937a.113.113,0,0,1-.049-.061l-.485-1.712a1.179,1.179,0,0,0-1.216-.857l-1.854.088a.19.19,0,0,1-.1-.03L8.746.253a1.221,1.221,0,0,0-1.489,0L5.813,1.365a.2.2,0,0,1-.1.03L3.857,1.307a1.2,1.2,0,0,0-1.216.857L2.156,3.876a.109.109,0,0,1-.048.06L.554,4.9A1.159,1.159,0,0,0,.082,6.317L.743,7.971a.083.083,0,0,1,0,.06L.082,9.689A1.158,1.158,0,0,0,.554,11.1l1.553.968a.113.113,0,0,1,.049.061l.485,1.712a1.175,1.175,0,0,0,1.216.857l1.854-.088a.185.185,0,0,1,.1.03l1.445,1.112a1.221,1.221,0,0,0,1.489,0L10.19,14.64a.177.177,0,0,1,.1-.03l1.854.088a1.2,1.2,0,0,0,1.216-.857l.485-1.711a.109.109,0,0,1,.048-.06l1.553-.969a1.159,1.159,0,0,0,.472-1.412Zm-3.673-.5L10.04,8.81a.415.415,0,0,0-.132.427l.534,1.985a.39.39,0,0,1-.586.445l-1.64-1.145a.372.372,0,0,0-.429,0l-1.64,1.145a.39.39,0,0,1-.586-.445L6.1,9.237a.415.415,0,0,0-.132-.427L4.415,7.533a.408.408,0,0,1,.224-.721l1.97-.082a.388.388,0,0,0,.347-.264l.683-1.934a.381.381,0,0,1,.724,0l.683,1.934a.388.388,0,0,0,.347.264l1.97.082a.408.408,0,0,1,.224.721Z" transform="translate(-0.002 0)" fill="#bed72a"></path></g></svg>