<svg width="41" height="41" viewBox="0 0 41 41" fill="none" xmlns="http://www.w3.org/2000/svg">
<g clip-path="url(#clip0_350_3071)">
<path d="M2.56298 2.78984C-0.658934 6.13646 0.000482818 9.6915 0.000482818 20.4916C0.000482818 29.4603 -1.56435 38.4513 6.6254 40.5679C9.18277 41.2256 31.8421 41.2256 34.3961 40.5645C37.8059 39.6847 40.5802 36.9189 40.9595 32.0963C41.0124 31.4232 41.0124 9.57192 40.9578 8.88517C40.5546 3.74821 37.3925 0.787672 33.2259 0.188047C32.2709 0.0496718 32.0796 0.00867178 27.1801 0.000130117C9.80119 0.00867178 5.99161 -0.765203 2.56298 2.78984Z" fill="url(#paint0_linear_350_3071)"/>
<path d="M20.4959 5.36227C14.293 5.36227 8.40265 4.81047 6.15277 10.5846C5.22344 12.9695 5.3584 16.0667 5.3584 20.5015C5.3584 24.3931 5.23369 28.0506 6.15277 30.4167C8.39752 36.1943 14.3357 35.6408 20.4925 35.6408C26.4324 35.6408 32.5568 36.2592 34.834 30.4167C35.765 28.0079 35.6284 24.9569 35.6284 20.5015C35.6284 14.5873 35.9546 10.7691 33.0864 7.90256C30.1822 4.99839 26.2547 5.36227 20.4891 5.36227H20.4959ZM19.1395 8.09047C32.0784 8.06997 33.7253 6.63156 32.8164 26.6139C32.4936 33.6813 27.1123 32.9057 20.4976 32.9057C8.43681 32.9057 8.09002 32.5606 8.09002 20.4947C8.09002 8.28864 9.04669 8.09731 19.1395 8.08706V8.09047ZM28.5764 10.6034C27.5736 10.6034 26.7604 11.4166 26.7604 12.4194C26.7604 13.4222 27.5736 14.2354 28.5764 14.2354C29.5791 14.2354 30.3923 13.4222 30.3923 12.4194C30.3923 11.4166 29.5791 10.6034 28.5764 10.6034ZM20.4959 12.7269C16.2029 12.7269 12.723 16.2085 12.723 20.5015C12.723 24.7946 16.2029 28.2744 20.4959 28.2744C24.789 28.2744 28.2671 24.7946 28.2671 20.5015C28.2671 16.2085 24.789 12.7269 20.4959 12.7269ZM20.4959 15.4551C27.167 15.4551 27.1755 25.5479 20.4959 25.5479C13.8266 25.5479 13.8164 15.4551 20.4959 15.4551Z" fill="white"/>
</g>
<defs>
<linearGradient id="paint0_linear_350_3071" x1="2.6416" y1="38.3814" x2="40.7468" y2="5.40184" gradientUnits="userSpaceOnUse">
<stop stop-color="#FFDD55"/>
<stop offset="0.5" stop-color="#FF543E"/>
<stop offset="1" stop-color="#C837AB"/>
</linearGradient>
<clipPath id="clip0_350_3071">
<rect width="41" height="41" fill="white"/>
</clipPath>
</defs>
</svg>
