<svg width="23" height="23" viewBox="0 0 23 23" fill="none" xmlns="http://www.w3.org/2000/svg">
<path d="M7.52344 16.9975L10.3651 19.1975C10.7318 19.5642 11.5568 19.7475 12.1068 19.7475H15.5901C16.6901 19.7475 17.8818 18.9225 18.1568 17.8225L20.3568 11.1309C20.8151 9.84752 19.9901 8.74752 18.6151 8.74752H14.9484C14.3984 8.74752 13.9401 8.28919 14.0318 7.64752L14.4901 4.71419C14.6734 3.88919 14.1234 2.97252 13.2984 2.69752C12.5651 2.42252 11.6484 2.78919 11.2818 3.33919L7.52344 8.93086" stroke="#2F80ED" stroke-width="1.5" stroke-miterlimit="10"/>
<path d="M2.84863 16.9975V8.01413C2.84863 6.73079 3.39863 6.27246 4.68197 6.27246H5.59863C6.88197 6.27246 7.43197 6.73079 7.43197 8.01413V16.9975C7.43197 18.2808 6.88197 18.7391 5.59863 18.7391H4.68197C3.39863 18.7391 2.84863 18.2808 2.84863 16.9975Z" stroke="#2F80ED" stroke-width="1.5" stroke-linecap="round" stroke-linejoin="round"/>
</svg>
