<svg width="33" height="33" viewBox="0 0 33 33" fill="none" xmlns="http://www.w3.org/2000/svg">
<path d="M16.3335 10.6318C13.8135 10.6318 13.3335 11.6853 13.3335 13.6322V14.459H19.3335V13.6322C19.3335 11.6853 18.8535 10.6318 16.3335 10.6318Z" fill="#219653"/>
<path d="M16.3304 20.4308C16.7194 20.4308 17.0925 20.2763 17.3675 20.0012C17.6426 19.7261 17.7971 19.353 17.7971 18.9639C17.7971 18.5749 17.6426 18.2018 17.3675 17.9267C17.0925 17.6516 16.7194 17.4971 16.3304 17.4971C15.9415 17.4971 15.5684 17.6516 15.2933 17.9267C15.0183 18.2018 14.8638 18.5749 14.8638 18.9639C14.8638 19.353 15.0183 19.7261 15.2933 20.0012C15.5684 20.2763 15.9415 20.4308 16.3304 20.4308Z" fill="#219653"/>
<path d="M16.3333 2.96436C8.97333 2.96436 3 8.93851 3 16.2995C3 23.6605 8.97333 29.6347 16.3333 29.6347C23.6933 29.6347 29.6667 23.6605 29.6667 16.2995C29.6667 8.93851 23.6933 2.96436 16.3333 2.96436ZM23.5067 19.6333C23.5067 22.567 22.6 23.4738 19.6667 23.4738H13C10.0667 23.4738 9.16 22.567 9.16 19.6333V18.2998C9.16 16.0195 9.70667 14.966 11.3333 14.606V13.6325C11.3333 12.3923 11.3333 8.6318 16.3333 8.6318C21.3333 8.6318 21.3333 12.3923 21.3333 13.6325V14.606C22.96 14.966 23.5067 16.0195 23.5067 18.2998V19.6333Z" fill="#219653"/>
</svg>
