<svg width="23" height="23" viewBox="0 0 23 23" fill="none" xmlns="http://www.w3.org/2000/svg">
<path d="M11.6393 21.0145C16.7021 21.0145 20.806 16.9106 20.806 11.8478C20.806 6.78507 16.7021 2.68115 11.6393 2.68115C6.57657 2.68115 2.47266 6.78507 2.47266 11.8478C2.47266 16.9106 6.57657 21.0145 11.6393 21.0145V21.0145Z" stroke="#2F80ED" stroke-width="1.5" stroke-linecap="round" stroke-linejoin="round"/>
<path d="M11.667 15.9727C12.761 15.9727 13.8102 15.5381 14.5838 14.7645C15.3574 13.9909 15.792 12.9417 15.792 11.8477C15.792 10.7536 15.3574 9.70443 14.5838 8.93084C13.8102 8.15725 12.761 7.72266 11.667 7.72266C10.573 7.72266 9.52376 8.15725 8.75018 8.93084C7.97659 9.70443 7.54199 10.7536 7.54199 11.8477C7.54199 12.9417 7.97659 13.9909 8.75018 14.7645C9.52376 15.5381 10.573 15.9727 11.667 15.9727V15.9727Z" stroke="#2F80ED" stroke-width="1.5" stroke-linecap="round" stroke-linejoin="round"/>
<path d="M5.1582 5.36719L8.4032 8.60302" stroke="#2F80ED" stroke-width="1.5" stroke-linecap="round" stroke-linejoin="round"/>
<path d="M5.15869 18.3286L8.40369 15.0928" stroke="#2F80ED" stroke-width="1.5" stroke-linecap="round" stroke-linejoin="round"/>
<path d="M18.1293 18.3286L14.8843 15.0928" stroke="#2F80ED" stroke-width="1.5" stroke-linecap="round" stroke-linejoin="round"/>
<path d="M18.1293 5.36719L14.8843 8.60302" stroke="#2F80ED" stroke-width="1.5" stroke-linecap="round" stroke-linejoin="round"/>
</svg>
