<svg width="20" height="20" viewBox="0 0 20 20" fill="none" xmlns="http://www.w3.org/2000/svg">
<g clip-path="url(#clip0_3_581)">
<path d="M15.1171 18.0156C14.3838 18.2323 13.5171 18.3323 12.5005 18.3323H7.50046C6.48379 18.3323 5.61712 18.2323 4.88379 18.0156C5.06712 15.849 7.29212 14.1406 10.0005 14.1406C12.7088 14.1406 14.9338 15.849 15.1171 18.0156V18.0156Z" stroke="#4F4F4F" stroke-width="1.5" stroke-linecap="round" stroke-linejoin="round"/>
<path d="M12.5003 1.66602H7.50033C3.33366 1.66602 1.66699 3.33268 1.66699 7.49935V12.4993C1.66699 15.6493 2.61699 17.3743 4.88366 18.016C5.06699 15.8493 7.29199 14.141 10.0003 14.141C12.7087 14.141 14.9337 15.8493 15.117 18.016C17.3837 17.3743 18.3337 15.6493 18.3337 12.4993V7.49935C18.3337 3.33268 16.667 1.66602 12.5003 1.66602ZM10.0003 11.8077C8.35033 11.8077 7.01699 10.466 7.01699 8.81602C7.01699 7.16602 8.35033 5.83268 10.0003 5.83268C11.6503 5.83268 12.9837 7.16602 12.9837 8.81602C12.9837 10.466 11.6503 11.8077 10.0003 11.8077Z" stroke="#4F4F4F" stroke-width="1.5" stroke-linecap="round" stroke-linejoin="round"/>
<path d="M12.9833 8.81536C12.9833 10.4654 11.6499 11.807 9.99993 11.807C8.34993 11.807 7.0166 10.4654 7.0166 8.81536C7.0166 7.16536 8.34993 5.83203 9.99993 5.83203C11.6499 5.83203 12.9833 7.16536 12.9833 8.81536Z" stroke="#4F4F4F" stroke-width="1.5" stroke-linecap="round" stroke-linejoin="round"/>
</g>
<defs>
<clipPath id="clip0_3_581">
<rect width="20" height="20" fill="white"/>
</clipPath>
</defs>
</svg>
