<svg width="20" height="20" viewBox="0 0 20 20" fill="none" xmlns="http://www.w3.org/2000/svg">
<path d="M10.834 9.29297H5.83398" stroke="#4F4F4F" stroke-width="1.5" stroke-linecap="round" stroke-linejoin="round"/>
<path d="M1.66699 9.29219V5.44219C1.66699 3.74219 3.04199 2.36719 4.74199 2.36719H9.42533C11.1253 2.36719 12.5003 3.42552 12.5003 5.12552" stroke="#4F4F4F" stroke-width="1.5" stroke-linecap="round" stroke-linejoin="round"/>
<path d="M14.567 10.1667C14.1503 10.5667 13.9503 11.1833 14.117 11.8167C14.3253 12.5917 15.092 13.0833 15.892 13.0833H16.667V14.2917C16.667 16.1333 15.1753 17.625 13.3337 17.625H5.00033C3.15866 17.625 1.66699 16.1333 1.66699 14.2917V8.45833C1.66699 6.61667 3.15866 5.125 5.00033 5.125H13.3337C15.167 5.125 16.667 6.625 16.667 8.45833V9.66667H15.767C15.3003 9.66667 14.8753 9.85 14.567 10.1667V10.1667Z" stroke="#4F4F4F" stroke-width="1.5" stroke-linecap="round" stroke-linejoin="round"/>
<path d="M18.3338 10.518V12.2346C18.3338 12.7013 17.9505 13.0846 17.4755 13.0846H15.8672C14.9672 13.0846 14.1422 12.4263 14.0672 11.5263C14.0172 11.0013 14.2172 10.5096 14.5672 10.168C14.8755 9.8513 15.3005 9.66797 15.7672 9.66797H17.4755C17.9505 9.66797 18.3338 10.0513 18.3338 10.518V10.518Z" stroke="#4F4F4F" stroke-width="1.5" stroke-linecap="round" stroke-linejoin="round"/>
</svg>
