<svg width="30" height="30" viewBox="0 0 30 30" fill="none" xmlns="http://www.w3.org/2000/svg">
<path d="M12.3074 3.44651L3.83742 10.2292C2.88409 10.9869 2.27298 12.5878 2.48076 13.7855L4.10631 23.5134C4.39965 25.2488 6.06187 26.6542 7.82187 26.6542H21.5108C23.2585 26.6542 24.933 25.2365 25.2263 23.5134L26.8519 13.7855C27.0474 12.5878 26.4363 10.9869 25.4952 10.2292L17.0252 3.45873C15.7174 2.40773 13.603 2.40773 12.3074 3.44651V3.44651Z" stroke="#2F80ED" stroke-width="1.5" stroke-linecap="round" stroke-linejoin="round"/>
<path d="M12.0757 17.5739C13.6279 16.0952 15.7057 16.0952 17.2579 17.5739" stroke="#2F80ED" stroke-width="1.5" stroke-linecap="round" stroke-linejoin="round"/>
<path d="M19.8481 14.9835C19.2183 14.3647 18.4917 13.8528 17.697 13.4681C16.7501 13.0096 15.7118 12.7715 14.6598 12.7715C13.6078 12.7715 12.5694 13.0096 11.6225 13.4681C10.8648 13.8347 10.1437 14.3358 9.47144 14.9835" stroke="#2F80ED" stroke-width="1.5" stroke-linecap="round" stroke-linejoin="round"/>
<path d="M14.6602 20.7759H14.6705" stroke="#2F80ED" stroke-width="2" stroke-linecap="round" stroke-linejoin="round"/>
</svg>
