<svg width="30" height="30" viewBox="0 0 30 30" fill="none" xmlns="http://www.w3.org/2000/svg">
<path d="M2.44458 18.3315H22.6112C24.9701 18.3315 26.889 20.2502 26.889 22.6089C26.889 24.9675 24.9701 26.8862 22.6112 26.8862C20.2524 26.8862 18.3335 24.9675 18.3335 22.6089V21.9978" stroke="#2F80ED" stroke-width="1.5" stroke-miterlimit="10" stroke-linecap="round" stroke-linejoin="round"/>
<path d="M2.44458 14.665H22.6112C24.9579 14.665 26.889 12.7463 26.889 10.3877C26.889 8.04127 24.9579 6.11035 22.6112 6.11035C21.4777 6.11358 20.3915 6.56526 19.59 7.36672C18.7884 8.16818 18.3367 9.25427 18.3335 10.3877V10.9987" stroke="#2F80ED" stroke-width="1.5" stroke-miterlimit="10" stroke-linecap="round" stroke-linejoin="round"/>
<path d="M2.44458 10.9987H11.379C12.0293 10.9987 12.6649 10.8059 13.2056 10.4447C13.7463 10.0835 14.1677 9.57003 14.4165 8.96933C14.6654 8.36862 14.7305 7.70763 14.6036 7.06993C14.4768 6.43222 14.1636 5.84646 13.7038 5.3867C13.244 4.92694 12.6582 4.61384 12.0204 4.487C11.3827 4.36015 10.7216 4.42525 10.1208 4.67407C9.52008 4.92289 9.0066 5.34425 8.64534 5.88487C8.28407 6.42549 8.09125 7.06108 8.09125 7.71127V8.17567" stroke="#2F80ED" stroke-width="1.5" stroke-miterlimit="10" stroke-linecap="round" stroke-linejoin="round"/>
</svg>
